<svg xmlns="http://www.w3.org/2000/svg" width="84" height="84" viewBox="0 0 84 84" fill="none"><g clip-path="url(#clip0_2192_17135)"><path d="M83.676 42.324c0 16.849-9.996 31.36-24.382 37.929A41.518 41.518 0 0142 84a41.474 41.474 0 01-23.22-7.064C7.648 69.456.323 56.746.323 42.324.323 19.307 18.983.65 42.001.65c23.015 0 41.675 18.658 41.675 41.675z" fill="#ACD728"/><mask id="mask0_2192_17135" style="mask-type:alpha" maskUnits="userSpaceOnUse" x="0" y="0" width="84" height="84"><path d="M83.676 42.324c0 16.849-9.996 31.36-24.382 37.929A41.518 41.518 0 0142 84a41.474 41.474 0 01-23.22-7.064C7.648 69.456.323 56.746.323 42.324.323 19.307 18.983.65 42.001.65c23.015 0 41.675 18.658 41.675 41.675z" fill="#55C6A1"/></mask><g mask="url(#mask0_2192_17135)"><path d="M69.69 13.595l-5.436-5.437-2.719 2.718 5.437 5.437 2.718-2.718z" fill="#463C4B"/><path d="M54.734 31.266l-8.156-8.156L59.21 10.477a1.36 1.36 0 011.923 0l6.233 6.234c.531.53.531 1.391 0 1.922L54.735 31.266z" fill="#555A6E"/><path d="M54.734 31.266l-4.078-4.078L64.25 13.594l3.117 3.117c.53.53.53 1.391 0 1.922L54.734 31.266z" fill="#463C4B"/><path d="M39.781 62.531H20.75v13.594h19.031V62.531z" fill="#555A6E"/><path d="M39.781 62.531H20.75v5.438h19.031V62.53z" fill="#463C4B"/><path d="M53.375 38.063h-5.438v10.874h5.438V38.063z" fill="#23AAE6"/><path d="M47.938 46.219h5.437a5.438 5.438 0 005.438-5.438V24.47a5.438 5.438 0 00-5.438-5.438h-5.438A5.438 5.438 0 0042.5 24.47v16.31a5.438 5.438 0 005.438 5.438z" fill="#D7E6F0"/><path d="M47.938 24.469v2.718H42.5V24.47a5.438 5.438 0 015.438-5.438h5.437a5.438 5.438 0 00-5.438 5.438z" fill="#A5C3DC"/><path d="M20.75 57.094h10.875v-8.157c0-5.996 4.879-10.874 10.875-10.874h16.313V27.187H42.5c-11.993 0-21.75 9.757-21.75 21.75v8.157z" fill="#555A6E"/><path d="M68.328 84.281H11.234a1.36 1.36 0 01-1.359-1.36v-1.359a5.438 5.438 0 015.438-5.437H64.25a5.438 5.438 0 015.438 5.438v1.359c0 .75-.61 1.36-1.36 1.36z" fill="#463C4B"/><path d="M61.531 57.094H31.625v5.437h29.906a2.719 2.719 0 100-5.437z" fill="#555A6E"/><path d="M45.219 67.969h10.875a2.719 2.719 0 012.718 2.719v5.437H42.5v-5.438a2.719 2.719 0 012.719-2.718z" fill="#D7E6F0"/><path d="M18.031 59.813c0-1.158.605-2.173 1.514-2.752a3.257 3.257 0 013.891-3.89 3.257 3.257 0 015.503 0 3.257 3.257 0 013.89 3.89 3.258 3.258 0 010 5.503 3.257 3.257 0 01-3.89 3.89 3.257 3.257 0 01-5.503 0 3.257 3.257 0 01-3.89-3.89 3.257 3.257 0 01-1.515-2.752z" fill="#23AAE6"/><path d="M26.187 64.706a4.894 4.894 0 110-9.787 4.894 4.894 0 010 9.787z" fill="#5AD7FF"/><path d="M27.547 59.813a1.36 1.36 0 110-2.72 1.36 1.36 0 010 2.72z" fill="#AFFAFF"/><path d="M50.656 76.125H42.5v-5.438h5.438a2.719 2.719 0 012.718 2.72v2.718z" fill="#A5C3DC"/><path d="M37.063 76.125H64.25a5.438 5.438 0 015.438 5.438v1.359c0 .75-.61 1.36-1.36 1.36H32.984a1.36 1.36 0 01-1.359-1.36v-1.36a5.438 5.438 0 015.438-5.437zm21.75-38.062V27.187a2.719 2.719 0 012.718 2.72v5.437a2.719 2.719 0 01-2.718 2.718z" fill="#555A6E"/><path d="M47.938 51.656h5.437a1.36 1.36 0 000-2.718h-5.438a1.36 1.36 0 000 2.718z" fill="#5AD7FF"/><path d="M58.813 38.063H42.5v2.718h16.313v-2.718z" fill="#A5C3DC"/><path d="M63.852 7.758l6.233 6.234c.531.53 1.392.53 1.923 0l.796-.796a1.36 1.36 0 000-1.923L66.57 5.04a1.36 1.36 0 00-1.922 0l-.796.797a1.36 1.36 0 000 1.922z" fill="#D7E6F0"/><path d="M66.968 10.875l3.117 3.117c.531.53 1.392.53 1.923 0l.796-.796a1.36 1.36 0 000-1.923l-3.117-3.117-2.719 2.719z" fill="#A5C3DC"/><path d="M55.188 25.375a1.36 1.36 0 001.359-1.36v-1.359a1.36 1.36 0 00-2.719 0v1.36c0 .75.609 1.359 1.36 1.359zm0 48.938c.75 0 1.359-.61 1.359-1.36v-1.36a1.36 1.36 0 00-2.719 0v1.36c0 .751.609 1.36 1.36 1.36z" fill="#fff"/><path d="M24.828 43.5c-11.261 0-20.39-9.13-20.39-20.39 0-11.262 9.129-20.391 20.39-20.391 11.262 0 20.39 9.129 20.39 20.39 0 11.262-9.128 20.391-20.39 20.391z" fill="#FFD205"/><path d="M18.031 31.266a4.078 4.078 0 110-8.157 4.078 4.078 0 010 8.157z" fill="#FAA019"/><path d="M8.516 25.828h4.25c.129-.498.327-.968.583-1.4l-3.007-3.008a1.359 1.359 0 111.922-1.922l3.007 3.007a5.414 5.414 0 011.4-.583v-4.25a1.36 1.36 0 012.72 0v4.25c.498.129.968.327 1.4.583l3.008-3.007a1.36 1.36 0 111.922 1.922l-3.008 3.008a5.4 5.4 0 01.584 1.4h4.25a1.36 1.36 0 010 2.719h-4.25a5.397 5.397 0 01-.584 1.4l3.008 3.008a1.359 1.359 0 11-1.923 1.922l-3.007-3.007a5.417 5.417 0 01-1.4.583v4.25a1.36 1.36 0 01-2.72 0v-4.25a5.403 5.403 0 01-1.4-.583l-3.007 3.007a1.355 1.355 0 01-.961.398 1.359 1.359 0 01-.961-2.32l3.007-3.008a5.403 5.403 0 01-.584-1.4h-4.25a1.36 1.36 0 010-2.719zm9.515 4.078c1.5 0 2.719-1.22 2.719-2.718 0-1.5-1.22-2.72-2.719-2.72a2.722 2.722 0 00-2.718 2.72 2.721 2.721 0 002.718 2.718zm14.953 1.36c0 .75.609 1.359 1.36 1.359h2.718a1.36 1.36 0 000-2.719h-2.718a1.36 1.36 0 00-1.36 1.36zM15.313 12.234c0 .751.608 1.36 1.359 1.36h2.719a1.36 1.36 0 000-2.719h-2.72a1.36 1.36 0 00-1.358 1.36zm17.327 7.141a1.437 1.437 0 000-2.033l-2.045-2.046a1.437 1.437 0 00-2.032 2.033l2.045 2.046a1.437 1.437 0 002.033 0z" fill="#98B82D"/><path d="M32.984 10.875a1.36 1.36 0 110-2.719 1.36 1.36 0 010 2.719zm-5.437 29.906a1.36 1.36 0 110-2.718 1.36 1.36 0 010 2.718zm10.875-16.312a1.36 1.36 0 110-2.72 1.36 1.36 0 010 2.72z" fill="#FAA019"/></g><g clip-path="url(#clip1_2192_17135)"><path d="M69.69 13.595l-5.436-5.437-2.719 2.718 5.437 5.437 2.718-2.718z" fill="#463C4B"/><path d="M54.734 31.266l-8.156-8.156L59.21 10.477a1.36 1.36 0 011.923 0l6.233 6.234c.531.53.531 1.391 0 1.922L54.735 31.266z" fill="#555A6E"/><path d="M54.734 31.266l-4.078-4.078L64.25 13.594l3.117 3.117c.53.53.53 1.391 0 1.922L54.734 31.266z" fill="#463C4B"/><path d="M39.781 62.531H20.75v13.594h19.031V62.531z" fill="#555A6E"/><path d="M39.781 62.531H20.75v5.438h19.031V62.53z" fill="#463C4B"/><path d="M53.375 38.063h-5.438v10.874h5.438V38.063z" fill="#23AAE6"/><path d="M47.938 46.219h5.437a5.438 5.438 0 005.438-5.438V24.47a5.438 5.438 0 00-5.438-5.438h-5.438A5.438 5.438 0 0042.5 24.47v16.31a5.438 5.438 0 005.438 5.438z" fill="#D7E6F0"/><path d="M47.938 24.469v2.718H42.5V24.47a5.438 5.438 0 015.438-5.438h5.437a5.438 5.438 0 00-5.438 5.438z" fill="#A5C3DC"/><path d="M20.75 57.094h10.875v-8.157c0-5.996 4.879-10.874 10.875-10.874h16.313V27.187H42.5c-11.993 0-21.75 9.757-21.75 21.75v8.157zm40.781 0H31.625v5.437h29.906a2.719 2.719 0 100-5.437z" fill="#555A6E"/><path d="M18.031 59.813c0-1.158.605-2.173 1.514-2.752a3.257 3.257 0 013.891-3.89 3.257 3.257 0 015.503 0 3.257 3.257 0 013.89 3.89 3.258 3.258 0 010 5.503 3.257 3.257 0 01-3.89 3.89 3.257 3.257 0 01-5.503 0 3.257 3.257 0 01-3.89-3.89 3.257 3.257 0 01-1.515-2.752z" fill="#23AAE6"/><path d="M26.187 64.706a4.894 4.894 0 110-9.787 4.894 4.894 0 010 9.787z" fill="#5AD7FF"/><path d="M27.547 59.813a1.36 1.36 0 110-2.72 1.36 1.36 0 010 2.72z" fill="#AFFAFF"/><path d="M58.813 38.063V27.187a2.719 2.719 0 012.718 2.72v5.437a2.719 2.719 0 01-2.718 2.718z" fill="#555A6E"/><path d="M47.938 51.656h5.437a1.36 1.36 0 000-2.718h-5.438a1.36 1.36 0 000 2.718z" fill="#5AD7FF"/><path d="M58.813 38.063H42.5v2.718h16.313v-2.718z" fill="#A5C3DC"/><path d="M63.852 7.758l6.233 6.234c.531.53 1.392.53 1.923 0l.796-.796a1.36 1.36 0 000-1.923L66.57 5.04a1.36 1.36 0 00-1.922 0l-.796.797a1.36 1.36 0 000 1.922z" fill="#D7E6F0"/><path d="M66.968 10.875l3.117 3.117c.531.53 1.392.53 1.923 0l.796-.796a1.36 1.36 0 000-1.923l-3.117-3.117-2.719 2.719z" fill="#A5C3DC"/><path d="M55.188 25.375a1.36 1.36 0 001.359-1.36v-1.359a1.36 1.36 0 00-2.719 0v1.36c0 .75.609 1.359 1.36 1.359z" fill="#fff"/><path d="M24.828 43.5c-11.261 0-20.39-9.13-20.39-20.39 0-11.262 9.129-20.391 20.39-20.391 11.262 0 20.39 9.129 20.39 20.39 0 11.262-9.128 20.391-20.39 20.391z" fill="#FFD205"/><path d="M18.031 31.266a4.078 4.078 0 110-8.157 4.078 4.078 0 010 8.157z" fill="#FAA019"/><path d="M8.516 25.828h4.25c.129-.498.327-.968.583-1.4l-3.007-3.008a1.359 1.359 0 111.922-1.922l3.007 3.007a5.414 5.414 0 011.4-.583v-4.25a1.36 1.36 0 012.72 0v4.25c.498.129.968.327 1.4.583l3.008-3.007a1.36 1.36 0 111.922 1.922l-3.008 3.008a5.4 5.4 0 01.584 1.4h4.25a1.36 1.36 0 010 2.719h-4.25a5.397 5.397 0 01-.584 1.4l3.008 3.008a1.359 1.359 0 11-1.923 1.922l-3.007-3.007a5.417 5.417 0 01-1.4.583v4.25a1.36 1.36 0 01-2.72 0v-4.25a5.403 5.403 0 01-1.4-.583l-3.007 3.007a1.355 1.355 0 01-.961.398 1.359 1.359 0 01-.961-2.32l3.007-3.008a5.403 5.403 0 01-.584-1.4h-4.25a1.36 1.36 0 010-2.719zm9.515 4.078c1.5 0 2.719-1.22 2.719-2.718 0-1.5-1.22-2.72-2.719-2.72a2.722 2.722 0 00-2.718 2.72 2.721 2.721 0 002.718 2.718zm14.953 1.36c0 .75.609 1.359 1.36 1.359h2.718a1.36 1.36 0 000-2.719h-2.718a1.36 1.36 0 00-1.36 1.36zM15.313 12.234c0 .751.608 1.36 1.359 1.36h2.719a1.36 1.36 0 000-2.719h-2.72a1.36 1.36 0 00-1.358 1.36zm17.327 7.141a1.437 1.437 0 000-2.033l-2.045-2.046a1.437 1.437 0 00-2.032 2.033l2.045 2.046a1.437 1.437 0 002.033 0z" fill="#5FAA46"/><path d="M32.984 10.875a1.36 1.36 0 110-2.719 1.36 1.36 0 010 2.719zm-5.437 29.906a1.36 1.36 0 110-2.718 1.36 1.36 0 010 2.718zm10.875-16.312a1.36 1.36 0 110-2.72 1.36 1.36 0 010 2.72z" fill="#FAA019"/></g></g><defs><clipPath id="clip0_2192_17135"><path fill="#fff" d="M0 0h84v84H0z"/></clipPath><clipPath id="clip1_2192_17135"><path fill="#fff" transform="matrix(-1 0 0 1 73 2)" d="M0 0h69v63H0z"/></clipPath></defs></svg>