<svg xmlns="http://www.w3.org/2000/svg" width="84" height="84" viewBox="0 0 84 84" fill="none"><g clip-path="url(#clip0_2192_16660)"><path d="M42 84c22.645 0 41.002-18.357 41.002-41.002C83.002 20.353 64.645 1.995 42 1.995 19.355 1.995.997 20.353.997 42.998S19.355 84 42 84z" fill="#319DF5"/><path d="M9.13 67.512C16.608 77.52 28.548 84 42 84c13.454 0 25.394-6.48 32.87-16.488H9.13z" fill="#3A82BC"/><path d="M40.346 67.512H9.131c7.066 9.46 18.12 15.765 30.67 16.429-10.573-.598-10.077-16.429.545-16.429z" fill="#3A82BC"/><path d="M61.45 15.032V9H21.33v6.033c0 9.485 6.585 17.432 15.433 19.521A2.885 2.885 0 0139 37.355a2.846 2.846 0 01-2.208 2.765C27.929 42.198 21.33 50.152 21.33 59.648v6.033h40.12v-6.033c0-9.51-6.618-17.472-15.499-19.537a2.795 2.795 0 01-2.172-2.718c0-1.364.948-2.531 2.275-2.847 8.829-2.103 15.396-10.04 15.396-19.514z" fill="#B1E4F9"/><path d="M38.148 40.12c.497-.303.852-1.44.852-2.765 0-1.341-.36-2.492-.863-2.8-3.414-2.09-5.955-10.037-5.955-19.523V9H21.33c.006 6.396-.012 5.908.013 6.742.32 9.17 6.793 16.776 15.42 18.812A2.885 2.885 0 0139 37.355c0 1.325-.92 2.462-2.208 2.765-8.64 2.026-15.129 9.637-15.449 18.818-.025.838-.007.456-.013 6.742h10.852v-6.032c0-9.496 2.546-17.45 5.966-19.529z" fill="#9DC6FB"/><path d="M61.45 65.122v-3.084l-9.338-3.604a29.782 29.782 0 00-21.445 0l-9.337 3.604v3.084h40.12z" fill="#F4DD45"/><path d="M32.212 57.888c-1.429.463-1.394.504-10.882 4.15v3.084h10.852c.008-5.268-.019-5.79.03-7.234z" fill="#FBB031"/><path d="M36.763 34.554A2.885 2.885 0 0139 37.34v19.195a29.764 29.764 0 014.782 0V37.34a2.935 2.935 0 012.272-2.795c7.435-1.77 13.264-7.678 14.92-15.155a67.81 67.81 0 01-39.167 0c1.659 7.49 7.505 13.405 14.956 15.164z" fill="#F4DD45"/><path d="M36.76 34.553l.003.001c1.283.303 2.238 1.44 2.238 2.801 0-1.342-.36-2.493-.864-2.8-2.571-1.574-4.647-6.471-5.515-12.845a67.795 67.795 0 01-10.811-2.318c1.69 7.62 7.615 13.429 14.95 15.161zM39 37.355z" fill="#FBB031"/><path d="M58.315 0h-33.85a3.134 3.134 0 00-3.135 3.134v2.203h40.12V3.134A3.135 3.135 0 0058.315 0zm0 74.68h-33.85a3.135 3.135 0 01-3.135-3.134v-2.202h40.12v2.202a3.135 3.135 0 01-3.135 3.134z" fill="#A87B69"/><path d="M33.366 71.546v-2.202H21.33v2.202a3.134 3.134 0 003.135 3.134H36.5a3.134 3.134 0 01-3.135-3.134zM36.236 0h-11.77a3.134 3.134 0 00-3.135 3.134v2.203h11.77V3.134A3.134 3.134 0 0136.236 0z" fill="#8D6451"/><path d="M63.16 65.123H19.62a2.39 2.39 0 100 4.778h43.54a2.39 2.39 0 100-4.778z" fill="#8D6451"/><path d="M29.267 67.512a2.39 2.39 0 012.39-2.39H19.62a2.39 2.39 0 100 4.78h12.036a2.39 2.39 0 01-2.39-2.39z" fill="#825A4A"/><path d="M63.16 9.558H19.62a2.39 2.39 0 110-4.779h43.54a2.39 2.39 0 110 4.779z" fill="#8D6451"/><path d="M29 7.168a2.39 2.39 0 012.39-2.389H19.62a2.39 2.39 0 100 4.779h11.77A2.39 2.39 0 0129 7.168z" fill="#825A4A"/><path d="M65.455 40.701c-9.515 0-17.228 7.714-17.228 17.229 0 9.515 7.713 17.229 17.228 17.229.726 0 1.44-.046 2.142-.133 6.982-5.587 12.096-13.408 14.26-22.38-2.23-6.93-8.73-11.945-16.402-11.945z" fill="#5C515E"/><path d="M58.836 52.673c0-4.6 1.803-8.78 4.74-11.87-8.63.937-15.35 8.247-15.35 17.127 0 9.515 7.714 17.23 17.23 17.23.725 0 1.44-.046 2.141-.133a41.25 41.25 0 005.553-5.372c-8.127-1.386-14.314-8.46-14.314-16.982z" fill="#4A404E"/><path d="M65.456 46.008c-6.585 0-11.923 5.337-11.923 11.922 0 6.585 5.338 11.923 11.923 11.923 6.584 0 11.922-5.338 11.922-11.923H65.456V46.008z" fill="#E8E6E9"/><path d="M70.191 68.873c-6.623-2.402-11.355-8.748-11.355-16.2 0-1.79.274-3.514.78-5.136-3.63 2.044-6.083 5.93-6.083 10.393 0 6.585 5.338 11.923 11.923 11.923 1.683 0 3.284-.351 4.735-.98z" fill="#D3D0D4"/><path d="M65.456 46.008V57.93H77.38c0-6.584-5.338-11.922-11.923-11.922z" fill="#FD6874"/><path d="M65.455 60.855a1.5 1.5 0 01-1.499-1.5v-10.52a1.5 1.5 0 112.999 0v10.52a1.5 1.5 0 01-1.5 1.5z" fill="#5C515E"/><path d="M71.17 59.43h-7.197a1.5 1.5 0 010-3h7.197a1.5 1.5 0 010 3z" fill="#5C515E"/></g><defs><clipPath id="clip0_2192_16660"><path fill="#fff" d="M0 0h84v84H0z"/></clipPath></defs></svg>