<svg xmlns="http://www.w3.org/2000/svg" width="84" height="84" viewBox="0 0 84 84" fill="none"><g clip-path="url(#clip0_2192_16770)"><path d="M9.622 66.753c-.589.386-1.38.25-1.79-.322A41.806 41.806 0 010 42.001C0 18.808 18.804.004 42 .004c23.178 0 42.054 18.921 42 42.098-.033 13.946-6.863 26.296-17.353 33.91a.74.74 0 01-1.015-.132c-7.692-9.742-19.607-15.995-32.984-15.995a41.805 41.805 0 00-23.026 6.869z" fill="#FFB52D"/><path d="M66.803 10.694l-.03 32.143V75.92a41.97 41.97 0 01-5.778 3.55 7.174 7.174 0 01-3.256.776l-25.273-.024c-6.956-.006-13.7-2.546-18.828-7.243a42.216 42.216 0 01-5.927-6.718v-7.776a2.523 2.523 0 01-.015-.27l.015-15.408v-4.25c0-.048.001-.096.004-.143l.026-27.775a2.46 2.46 0 012.463-2.458l54.14.05a2.461 2.461 0 012.46 2.463z" fill="#2B4D66"/><path d="M18.047 72.956a34.075 34.075 0 01-2.49-1.42L6.783 26.47a.66.66 0 01.522-.774l10.742-2.091v49.35z" fill="#94D1FE"/><path d="M61.22 15.61l-.06 63.118A41.822 41.822 0 0142 83.344c-11.118 0-21.226-4.32-28.74-11.372l.054-56.406a.82.82 0 01.821-.82l46.266.044a.82.82 0 01.82.82z" fill="#E9F3FE"/><path d="M61.163 77.168l-.002 2.217A41.823 41.823 0 0142 84c-11.118 0-21.226-4.32-28.74-11.371l.054-57.063a.82.82 0 01.821-.82l3.196.003-.034 36.482c-.015 15.604 12.427 28.491 28.029 28.744a41.9 41.9 0 0015.837-2.807z" fill="#C8E2FD"/><path d="M51.598 42.658H22.887a1.23 1.23 0 010-2.461h28.71a1.23 1.23 0 010 2.46zm-28.711-4.922h28.71a1.23 1.23 0 000-2.46h-28.71a1.23 1.23 0 000 2.46zm20.672 7.383H30.926a1.23 1.23 0 000 2.46h12.633a1.23 1.23 0 000-2.46zm12.68 23.788h-5.133a1.23 1.23 0 100 2.46h5.132a1.23 1.23 0 100-2.46z" fill="#A7D0FC"/><path d="M47.031 31.174H27.453a1.64 1.64 0 110-3.281h19.578a1.64 1.64 0 010 3.28zm9.16 42.654H45.527a1.23 1.23 0 000 2.461h10.664a1.23 1.23 0 000-2.46z" fill="#76B6FA"/><path d="M52.018 12.67a7.604 7.604 0 00-3.085-1.533c.047-.282.071-.571.072-.866l.004-4.922A5.338 5.338 0 0043.682.012L30.557 0h-.005a5.338 5.338 0 00-5.332 5.327l-.005 4.922c0 .296.024.587.07.87-3.058.744-5.307 3.167-5.31 6.035-.002 1.717.784 3.32 2.214 4.513 1.364 1.139 3.164 1.767 5.066 1.768l19.683.016h.007c4.015 0 7.283-2.811 7.287-6.27.002-1.716-.785-3.319-2.214-4.512zM27.68 5.33c0-.766.3-1.486.844-2.029a2.85 2.85 0 012.027-.84h.003l13.125.012a2.874 2.874 0 012.868 2.874l-.004 4.921c0 .218-.025.429-.071.632l-18.727-.014a2.895 2.895 0 01-.07-.635l.005-4.922zm19.264 15.66h-.005l-19.683-.015c-1.328-.001-2.568-.427-3.491-1.197-.86-.717-1.331-1.648-1.33-2.621.002-1.833 1.647-3.366 3.83-3.73a5.327 5.327 0 004.277 2.158l13.125.013h.005a5.33 5.33 0 004.278-2.153c.942.158 1.803.54 2.49 1.113.859.717 1.33 1.647 1.33 2.621-.003 2.102-2.167 3.811-4.826 3.81z" fill="#4A82AE"/><path d="M37.93 9.027l-.004 4.922a2.46 2.46 0 01-2.464 2.458l-9.843-.01a2.46 2.46 0 01-2.459-2.462l.005-4.922a2.461 2.461 0 012.463-2.459l9.844.01a2.461 2.461 0 012.458 2.463z" fill="#3493F8"/><path d="M51.22 9.04l-.005 4.921a2.46 2.46 0 01-2.464 2.458l-12.468-.011a4.922 4.922 0 01.009-9.844l12.468.012a2.46 2.46 0 012.46 2.463z" fill="#55A4F9"/><path d="M47.906 11.485a1.64 1.64 0 11-3.281-.003 1.64 1.64 0 013.281.003zm-19.82-1.647a1.64 1.64 0 10-.004 3.28 1.64 1.64 0 00.003-3.28z" fill="#2B4D66"/><path d="M36.422 67.758c0 6.887-5.582 12.469-12.469 12.469-6.886 0-12.469-5.582-12.469-12.469 0-6.885 5.583-12.468 12.47-12.468 6.886 0 12.468 5.583 12.468 12.468z" fill="#5CA33B"/><path d="M36.422 67.758a12.41 12.41 0 01-2 6.777 12.41 12.41 0 01-6.777 2c-6.887 0-12.47-5.582-12.47-12.468 0-2.498.736-4.825 2.001-6.776a12.41 12.41 0 016.777-2c6.887 0 12.469 5.582 12.469 12.468z" fill="#6DC54A"/><path d="M34.67 59.915L24.594 71.647c-.437.498-1.088.606-1.559.611h-.033c-.401 0-1.105-.079-1.563-.576l-4.308-4.801a1.23 1.23 0 111.832-1.644l4.032 4.495 9.808-11.42a1.23 1.23 0 111.867 1.603z" fill="#2B4D66"/><path d="M41.227 67.037l-5.8 5.8a1.64 1.64 0 11-2.32-2.32l5.8-5.8a1.64 1.64 0 012.32 2.32z" fill="#4A82AE"/><path d="M81.213 30.035C76.55 37.414 70.727 44.73 63.849 51.608c-6.879 6.878-16.391-2.634-9.513-9.512 6.878-6.878 14.195-12.7 21.573-17.364a3.823 3.823 0 014.74.521l.021.022.022.022a3.823 3.823 0 01.52 4.738z" fill="#3493F8"/><path d="M81.778 27.532a3.824 3.824 0 00-2.504.564C71.895 32.758 64.579 38.58 57.7 45.459c-.177.177-2.898-3.827-2.664-4.057 6.674-6.576 13.745-12.164 20.875-16.67a3.823 3.823 0 014.738.521l.022.022.022.022a3.8 3.8 0 011.085 2.235z" fill="#1380E2"/><path d="M82.991 32.467l-12.76 12.76a3.445 3.445 0 01-4.873-4.871l12.76-12.761a3.446 3.446 0 014.873 4.872z" fill="#86BEFB"/><path d="M58.532 44.9S40.606 69.641 39.746 69.531a3.798 3.798 0 01-2.21-1.081l-.043-.044a3.823 3.823 0 01-.52-4.739c4.662-7.378 10.485-14.694 17.363-21.572.233-.233.466-.464.699-.694l3.497 3.497z" fill="#D63030"/><path d="M64.543 50.91c-.23.233-.462.466-.694.698-6.878 6.878-14.195 12.7-21.574 17.364-.773.488-1.67.67-2.53.56-.02-.75.176-1.51.599-2.179 4.73-7.485 10.637-14.907 17.615-21.884.19-.191.382-.38.573-.57l6.01 6.01z" fill="#FB5858"/></g><defs><clipPath id="clip0_2192_16770"><path fill="#fff" d="M0 0h84v84H0z"/></clipPath></defs></svg>