<svg xmlns="http://www.w3.org/2000/svg" width="84" height="84" viewBox="0 0 84 84" fill="none"><g clip-path="url(#clip0_2192_16974)"><path d="M10.58 69.87A41.842 41.842 0 0021.157 42c0-10.694-3.444-20.144-10.026-27.56.201-.226.405-.45.61-.672.104-.111-.346-.533-.242-.643C19.155 5.042 29.99 0 42 0c23.196 0 42 18.804 42 42 0 13.24-6.126 25.049-15.698 32.747H15.699a42.24 42.24 0 01-5.12-4.877z" fill="#55A4F9"/><path d="M77.615 37.649c0 18.511-15.006 33.518-33.518 33.518-18.511 0-33.518-15.007-33.518-33.518 0-18.512 15.007-33.518 33.518-33.518 18.512 0 33.518 15.006 33.518 33.518z" fill="#76B6FA"/><path d="M42 84a41.833 41.833 0 01-27.133-9.94h54.266A41.832 41.832 0 0142 84z" fill="#1380E2"/><path d="M51.491 63.29V26.25H65.58c9.06 0 16.406 7.345 16.406 16.406v20.358a2.461 2.461 0 01-2.461 2.46H53.676a2.185 2.185 0 01-2.185-2.184z" fill="#FFB52D"/><path d="M64.281 63.29V26.25h3.313C76.654 26.25 84 33.595 84 42.656v7.063l-.841.856v4.733L84 56.486v6.528a2.46 2.46 0 01-2.46 2.46H66.465a2.185 2.185 0 01-2.185-2.184z" fill="#FFC14F"/><path d="M61.488 47.525V32.483c0-.906.735-1.64 1.64-1.64h3.42c7.192 0 13.022 5.83 13.022 13.022v3.384a2.461 2.461 0 01-2.46 2.46H63.672a2.185 2.185 0 01-2.185-2.184z" fill="#274C91"/><path d="M65.143 49.71h-4.43a2.185 2.185 0 01-2.185-2.185V32.483c0-.906.735-1.64 1.64-1.64h4.43a1.64 1.64 0 00-1.64 1.64v15.042c0 1.206.978 2.185 2.185 2.185z" fill="#203E76"/><path d="M54.14 14.766v50.709H7.169A41.805 41.805 0 010 42c0-11.185 4.372-21.348 11.5-28.875h41c.906 0 1.64.735 1.64 1.64z" fill="#E9F3FE"/><path d="M54.14 14.766v50.709H14.271A41.806 41.806 0 017.104 42c0-11.185 4.372-21.348 11.5-28.875H52.5c.906 0 1.64.735 1.64 1.64z" fill="#FFF5F5"/><path d="M79.567 66.269a8.936 8.936 0 01-.828 4.016 2.943 2.943 0 01-1.426 1.426 8.933 8.933 0 01-4.016.829c-4.727-.125-8.588-3.987-8.713-8.713a8.934 8.934 0 01.829-4.017 2.943 2.943 0 011.425-1.425 8.933 8.933 0 014.016-.829c4.727.125 8.589 3.986 8.713 8.713z" fill="#203E76"/><path d="M22.837 66.511a8.958 8.958 0 11-17.915 0 8.958 8.958 0 0117.915 0zm51.998 4.736a8.958 8.958 0 01-8.085-12.82 8.958 8.958 0 1011.947 11.947c-1.17.56-2.48.873-3.862.873z" fill="#19305C"/><path d="M74.594 66.51a3.981 3.981 0 11-7.963 0 3.981 3.981 0 017.963 0z" fill="#6990D7"/><path d="M37.989 63.152l-12.115 15.16c-.639.8-1.855.8-2.494 0l-12.97-16.23c-7.314-9.152-5.877-22.49 3.218-29.873a21.428 21.428 0 012.493-1.746 12.925 12.925 0 018.818-1.646 21.268 21.268 0 019.831 4.463c9.095 7.384 10.532 20.721 3.219 29.872z" fill="#FB5858"/><path d="M26.007 78.145L21.328 84 4.668 63.152C-2.647 54.001-1.21 40.663 7.885 33.28a21.321 21.321 0 0118.121-4.252 21.27 21.27 0 00-8.763 4.252C8.149 40.663 6.712 54 14.026 63.152l11.981 14.993z" fill="#F44545"/><path d="M23.022 36.917c.561.074.329 1.045.865 1.191 4.51 1.225 8.163 4.613 9.257 9.174.128.533.902.471.96 1.027a12.79 12.79 0 01-1.808 8.033c-.21.343-.498.632-.841.842a12.79 12.79 0 01-6.844 1.877c-6.939-.08-12.613-5.755-12.693-12.693a12.79 12.79 0 011.956-6.97c.161-.258.378-.475.636-.636a12.79 12.79 0 016.97-1.956c.522.006 1.037.043 1.542.11z" fill="#274C91"/><path d="M32.408 56.157a12.84 12.84 0 01-11.08 6.34c-1.478 0-2.898-.25-4.22-.71-.245-.085-.425-1.17-.663-1.269-4.64-1.937-7.344-5.437-7.344-10.779 0-2.552.866-4.563 2.15-6.563.135-.21-.464-.874-.316-1.076a12.91 12.91 0 013.887-3.528 12.788 12.788 0 00-1.767 6.506c0 7.095 5.752 12.846 12.846 12.846a12.8 12.8 0 006.507-1.767z" fill="#203E76"/><path d="M34.102 48.288c-.49.494-1.015 1.024-1.576 1.593-4.945 5.015-6.576 5.81-8.043 5.445-1.98-.492-3.665-3.102-3.267-5.026.447-2.162 3.305-2.412 3.518-4.44.173-1.637-1.616-2.16-2.261-4.022-.478-1.375-.217-3.153.549-4.922 5.823.777 10.453 5.505 11.08 11.372z" fill="#82CD64"/><path d="M17.108 61.787c-5.022-1.746-8.626-6.52-8.626-12.136 0-2.822.91-5.432 2.453-7.551 2.035-.295 4.75 1.287 5.283 3.173.572 2.022-1.622 3.48-.838 5.585.536 1.439 1.747 1.257 2.96 2.96 1.166 1.638 1.698 4.122 1.006 5.753-.385.906-1.194 1.656-2.238 2.216z" fill="#6DC54A"/><path d="M80.855 53.102A3.393 3.393 0 0184 49.72v6.767a3.393 3.393 0 01-3.145-3.383z" fill="#F44545"/><path d="M60.163 23.306c.48.48 1.26.48 1.74 0a4.587 4.587 0 016.48 0 1.23 1.23 0 101.74-1.74 7.051 7.051 0 00-9.96 0c-.48.48-.48 1.26 0 1.74zm0-7.328a1.23 1.23 0 001.74 1.74 4.587 4.587 0 016.48 0 1.23 1.23 0 001.74-1.74 7.05 7.05 0 00-9.96 0z" fill="#C8E2FD"/></g><defs><clipPath id="clip0_2192_16974"><path fill="#fff" d="M0 0h84v84H0z"/></clipPath></defs></svg>