<svg xmlns="http://www.w3.org/2000/svg" width="84" height="93" viewBox="0 0 84 93" fill="none"><path d="M42 93c23.196 0 42-18.804 42-42S65.196 9 42 9 0 27.804 0 51s18.804 42 42 42z" fill="#A3D4FF"/><path d="M84 51.13l-40.496-3.174L26.58 43.61.006 51.756C.41 74.604 19.057 93 42 93c23.153 0 41.93-18.734 42-41.87z" fill="#65B1FC"/><path d="M63.435 57.227l-2.478-4.224-24.864 13.428 5.996 10.218 19.228-11.284a5.946 5.946 0 002.118-8.138z" fill="#D47F6C"/><path d="M74.2 52.66L63.947 35.19l-10.35 6.073a8.46 8.46 0 00-9.912-.983L26.622 50.293l9.47 16.138 15.913-8.593 3.426 5.837L74.2 52.66z" fill="#E09380"/><path d="M50.06 54.524l5.37 9.151L74.2 52.66l-4.986-8.497L50.06 54.524z" fill="#D47F6C"/><path d="M84 51a41.826 41.826 0 00-9.4-26.482l-20.09 11.79 7.043 11.999 15.77-3.845L84 51.13V51z" fill="#FF9500"/><path d="M61.553 48.307l6.982 11.898L84 51.13V51a41.94 41.94 0 00-2.257-13.615l-20.19 10.922z" fill="#FE6A16"/><path d="M48.706 74.148a3.435 3.435 0 11-3.553 5.88l-5.524-3.336 3.552-5.881 5.525 3.337z" fill="#FAA68E"/><path d="M48.706 74.148a3.435 3.435 0 01.426 5.579 3.437 3.437 0 00-1.584-3.662l-5.525-3.337 1.159-1.917 5.524 3.337z" fill="#F49782"/><path d="M54.717 69.751a3.435 3.435 0 11-3.553 5.881l-7.982-4.821 3.552-5.882 7.983 4.822z" fill="#FAA68E"/><path d="M54.717 69.751a3.435 3.435 0 01.425 5.58 3.437 3.437 0 00-1.583-3.662l-7.983-4.822 1.158-1.918 7.983 4.822z" fill="#F49782"/><path d="M60.26 65.072a3.435 3.435 0 01-3.553 5.881l-9.973-6.023 3.553-5.882 9.972 6.024z" fill="#FFBEAA"/><path d="M52.03 42.964l-14.454-5.577a5.168 5.168 0 00-5.735 2.327l-.125.206-6.35-3.931-7.262 12.022 29.691 17.913 3.71-6.14 9.776 5.905a3.435 3.435 0 004.682-1.108c1.027-1.63.453-3.817-1.196-4.813l-12.991-7.741c-.553-.316-2.996-2.85-2.383-2.678l2.637-6.385z" fill="#FFBEAA"/><path d="M40.847 77.427l7.105-11.762-29.69-17.913-3.55 10.72 6.526 3.961a5.402 5.402 0 002.698 5.201l16.91 9.793zM59.1 66.99a3.437 3.437 0 011.585 3.661 3.436 3.436 0 00-.425-5.579l-8.756-5.288-1.158 1.917L59.1 66.99z" fill="#FAA68E"/><path d="M28.476 71.205l-5.323-3.128a.572.572 0 01-.203-.782c.941-1.602 3-2.239 4.619-1.328a3.373 3.373 0 011.254 4.648l-.347.59z" fill="#E09380"/><path d="M28.476 71.205L26.58 70.09l.346-.59a3.374 3.374 0 00-.343-3.901 3.373 3.373 0 012.24 5.015l-.347.59z" fill="#D47F6C"/><path d="M34.291 74.622l-5.815-3.417 1.774-3.02a3.373 3.373 0 115.816 3.417l-1.775 3.02z" fill="#E09380"/><path d="M34.292 74.622l-1.897-1.114 1.775-3.02a3.374 3.374 0 00-.344-3.902 3.373 3.373 0 012.24 5.016l-1.774 3.02z" fill="#D47F6C"/><path d="M40.108 78.04l-5.816-3.418 2.931-4.988a3.373 3.373 0 115.816 3.418l-2.931 4.988z" fill="#E09380"/><path d="M50.113 74.327l-2.147 3.608a4.094 4.094 0 01-5.593 1.436l-2.266-1.331 4.229-7.196a3.373 3.373 0 014.56-1.231c1.648.927 2.175 3.084 1.217 4.714z" fill="#E09380"/><path d="M40.107 78.04l-1.896-1.115 2.93-4.988a3.374 3.374 0 00-.343-3.9 3.373 3.373 0 012.24 5.016l-2.93 4.987z" fill="#D47F6C"/><path d="M54.94 44.711l-7.688-5.566-9.84 1.075a5.533 5.533 0 00-3.326 1.59l-5.535 5.54A3.978 3.978 0 0034 53.134l4.608-3.842 14.037 1.294 2.297-5.874z" fill="#E09380"/><path d="M0 51c0 .252.002.504.007.756l15.006 8.334 13.454-24.224L8.979 25.043A41.82 41.82 0 000 51z" fill="#7583F1"/><path d="M0 51c0 .253.002.504.007.756l15.006 8.334 5.948-10.71-19.11-10.746A41.99 41.99 0 000 51z" fill="#606AE9"/><path d="M53.403 16.213c-1.758-.497-2.849-1.581-2.86-1.593l-3.155-3.154c-1.685-1.685-2.485-3.494-2.379-5.378.108-1.904 1.129-3.542 2.028-4.634a14.996 14.996 0 00-3.489-.41 14.945 14.945 0 00-11.94 5.941c-.116.905-.252 3.245 1.113 4.917.944 1.158 2.416 1.75 4.375 1.764l8.229 6.04c-.096.622-.379 3.286 1.39 5.444 1.263 1.542 3.273 2.45 5.981 2.712a14.944 14.944 0 005.816-12.26c-1.698.882-3.41 1.09-5.109.61z" fill="#D1F26C"/><path d="M58.515 15.829C58.429 8.764 53.45 2.878 46.81 1.402c-1.695 2.092-3.72 6.056.433 10.209l3.155 3.154s3.398 3.438 8.117 1.064zm-12.967 3.786l-8.385-6.153c-6.688 0-5.295-6.81-5.295-6.81a14.905 14.905 0 00-3.289 9.361c0 8.268 6.702 14.97 14.97 14.97 3.55 0 6.813-1.238 9.379-3.304-8.848-.738-7.38-8.064-7.38-8.064z" fill="#D1F26C"/><path d="M41.279 20.73l-4.115-4.114a2.23 2.23 0 013.154-3.154l4.115 4.114a2.23 2.23 0 01-3.154 3.155z" fill="#fff"/><path d="M41.278 20.73a2.23 2.23 0 010-3.154l5.965-5.965a2.23 2.23 0 013.155 3.154l-5.965 5.965a2.23 2.23 0 01-3.155 0z" fill="#fff"/></svg>