<svg width="84" height="84" viewBox="0 0 84 84" fill="none" xmlns="http://www.w3.org/2000/svg"><path d="M42 83c23.196 0 42-18.356 42-41S65.196 1 42 1 0 19.356 0 42s18.804 41 42 41z" fill="#85D6FF"/><path d="M8.54 24.387v-.001a3.605 3.605 0 014.942-3.379 4.677 4.677 0 018.677 1.393 2.63 2.63 0 012.933 1.986H8.54z" fill="#fff"/><path d="M12.056 24.386a2.073 2.073 0 012.842-1.943 2.688 2.688 0 014.99.801 1.513 1.513 0 011.687 1.142h-9.519z" fill="#DFEBFF"/><path d="M58.652 31.686a.685.685 0 00-.537-.49c-3.583-.674-7.433.388-10.12 3.15-2.689 2.762-3.555 6.546-2.647 9.968.066.248.277.44.537.49 3.583.673 7.433-.388 10.12-3.15 2.689-2.762 3.555-6.545 2.647-9.968z" fill="#D6C843"/><path d="M51.904 36.084c1.941-1.977 4.483-3.082 7.096-3.304a10.28 10.28 0 00-.229-1.094.69.69 0 00-.541-.49c-3.614-.674-7.498.388-10.21 3.15-2.711 2.762-3.585 6.546-2.67 9.968.067.248.28.44.542.49 1.027.191 2.076.242 3.114.154-.481-3.115.472-6.404 2.898-8.874z" fill="#CABD2A"/><path d="M38.971 41.478c.373-.1.662-.416.735-.806 1.01-5.375-.584-11.15-4.727-15.183-4.142-4.031-9.818-5.33-14.95-3.967a1.028 1.028 0 00-.735.806c-1.01 5.375.584 11.151 4.726 15.183 4.143 4.031 9.819 5.33 14.951 3.967z" fill="#D6C843"/><path d="M52.782 61.435c-.84 0-1.52-.68-1.52-1.52v-6.534a1.52 1.52 0 113.04 0v6.534c0 .84-.68 1.52-1.52 1.52zM20.986 66.61a1.52 1.52 0 01-1.52-1.519v-3.28a1.52 1.52 0 113.04 0v3.28c0 .84-.68 1.52-1.52 1.52zm22.368-8.645a1.52 1.52 0 01-1.52-1.52c0-6.977-2.196-13.423-6.529-19.16-3.263-4.32-6.582-6.593-6.616-6.616a1.52 1.52 0 011.7-2.52c.149.101 3.703 2.52 7.267 7.208 3.293 4.33 7.218 11.503 7.218 21.088 0 .84-.68 1.52-1.52 1.52z" fill="#AAA211"/><path d="M43.443 57.965a1.52 1.52 0 01-1.519-1.52c0-14.97 9.247-20.797 9.64-21.038a1.52 1.52 0 011.59 2.59c-.046.029-2.092 1.333-4.104 4.224-2.712 3.897-4.087 8.683-4.087 14.224 0 .84-.68 1.52-1.52 1.52zm-7.273 3.817c-.84 0-1.52-.68-1.52-1.519 0-4.026-1.737-5.753-1.755-5.77a1.52 1.52 0 012.069-2.225c1.282 1.192 2.725 4.068 2.725 7.995 0 .84-.68 1.52-1.52 1.52z" fill="#AAA211"/><path d="M60 48.889a.34.34 0 00-.16-.304 4.247 4.247 0 00-4.532.145c-1.44.953-2.26 2.635-2.308 4.381a.34.34 0 00.16.304 4.247 4.247 0 004.532-.145c1.44-.953 2.26-2.635 2.308-4.381zM15 57.74a.282.282 0 01.137-.253 3.728 3.728 0 013.885.122c1.234.794 1.936 2.195 1.978 3.65a.282.282 0 01-.137.254 3.728 3.728 0 01-3.885-.122c-1.234-.794-1.937-2.195-1.978-3.65z" fill="#CABD2A"/><path d="M18.105 59.6c-.922-.601-1.546-1.546-1.82-2.6a3.79 3.79 0 00-1.148.425.286.286 0 00-.137.257c.042 1.475.744 2.896 1.978 3.701a3.686 3.686 0 003.885.123.286.286 0 00.137-.257 4.913 4.913 0 00-.157-1.1 3.68 3.68 0 01-2.738-.549z" fill="#AAA211"/><path d="M61.565 62.996a12.1 12.1 0 00-.74.064.682.682 0 01-.689-.396c-1.267-2.65-3.965-4.406-6.996-4.242a7.13 7.13 0 00-1.98.394.667.667 0 01-.7-.163c-1.854-1.884-4.397-3.04-7.2-3.023-2.801.017-5.332 1.203-7.165 3.108a.668.668 0 01-.698.172 7.125 7.125 0 00-1.984-.37c-3.032-.128-5.71 1.66-6.948 4.325a.682.682 0 01-.686.404 12.11 12.11 0 00-.74-.055c-5.516-.233-10.342 3.266-12.212 8.328v.004c7.998 7.509 18.609 12.084 30.252 12.084 11.885 0 22.694-4.77 30.747-12.558-1.953-4.981-6.787-8.373-12.26-8.076z" fill="#BA6831"/><path d="M32.728 73.269a.694.694 0 00.373-.617c-.007-5.665 4.447-10.279 10-10.337a.677.677 0 00.6-.387 7.46 7.46 0 011.119-1.688A7.223 7.223 0 0149 57.883 9.903 9.903 0 0043.13 56c-2.773.017-5.278 1.175-7.094 3.035a.667.667 0 01-.69.167 7.145 7.145 0 00-1.964-.36c-3.003-.126-5.654 1.62-6.88 4.222a.677.677 0 01-.678.394 12.102 12.102 0 00-.733-.053c-5.46-.228-10.239 3.188-12.09 8.13L13 71.54A44.388 44.388 0 0028.818 81c-.459-3.218 1.15-6.298 3.91-7.731z" fill="#A85822"/><path d="M68.63 30.227c.034.165.053.333.053.503l-5.37 33.068h14.82l-3.69-5.452-2.53-3.739v-24.38H68.63z" fill="#fff"/><path d="M55.566 64.262l8.458-1.514 4.63-6.842a5.115 5.115 0 00.879-2.867V30.227H62.1v24.38l-2.53 3.739-4.004 5.916z" fill="#E8D6FF"/><path d="M60.215 28.53h7.62v5.212h-7.62v-5.213z" fill="#E8D6FF"/><path d="M68.595 57.583a2.105 2.105 0 100-4.21 2.105 2.105 0 000 4.21z" fill="#F5415F"/><path d="M69.501 53.58a2.105 2.105 0 00-1.834 3.785l.988-1.459a5.114 5.114 0 00.846-2.326zm-3.623-8.544a1.479 1.479 0 100-2.957 1.479 1.479 0 000 2.957zm1.659-7.076a1.956 1.956 0 100-3.912 1.956 1.956 0 000 3.912z" fill="#CD2846"/><path d="M64.958 26.467a2.08 2.08 0 100-4.161 2.08 2.08 0 000 4.16z" fill="#F5415F"/><path d="M74.736 58.777c0 1.317-1.216 4.77-4.085 4.77-2.87 0-6.705-.13-6.705-1.446 0-1.318 3.883-2.806 6.705-3.324 2.097-.386 4.085 0 4.085 0z" fill="#CD2846"/><path d="M73.793 33.742h-6.23a2.606 2.606 0 010-5.213h6.23v5.213z" fill="#fff"/><path d="M82.073 69.621l-7.338-10.844c-2.021 1.248-4.484 1.81-6.835 1.736-.878-.028-1.718-.195-2.554-.382L58.29 67.73a3.65 3.65 0 00-.945 2.955 4.895 4.895 0 004.854 4.263h17.047c2.737 0 4.36-3.06 2.826-5.326z" fill="#F5415F"/><path d="M59.374 69.621l6.364-9.404c-.988-.21-1.962-.473-2.977-.599-1.53-.189-3.078-.037-4.473.623l-6.347 9.38c-1.534 2.267.09 5.326 2.827 5.326H62.2c-2.737 0-4.361-3.06-2.827-5.326zm8.184-4.206a1.382 1.382 0 100-2.764 1.382 1.382 0 000 2.764zm5.762 5.555a1.863 1.863 0 100-3.725 1.863 1.863 0 000 3.725z" fill="#CD2846"/><path d="M42.612 19.194v-.001a4.953 4.953 0 016.79-4.643 6.426 6.426 0 0111.923 1.915 3.615 3.615 0 014.03 2.73H42.613z" fill="#fff"/><path d="M47.445 19.193a2.848 2.848 0 013.905-2.67 3.693 3.693 0 016.856 1.1 2.079 2.079 0 012.318 1.57H47.445z" fill="#DFEBFF"/></svg>