<svg width="85" height="84" viewBox="0 0 85 84" fill="none" xmlns="http://www.w3.org/2000/svg"><g clip-path="url(#clip0_1145_3077)"><mask id="mask0_1145_3077" style="mask-type:luminance" maskUnits="userSpaceOnUse" x="0" y="0" width="85" height="84"><path d="M84.5 0H.5v84h84V0z" fill="#fff"/></mask><g mask="url(#mask0_1145_3077)"><path d="M84.5 41.98c0 23.184-18.794 41.978-41.98 41.978C19.338 83.958.543 65.164.543 41.98.542 18.795 19.337 0 42.521 0 65.706 0 84.5 18.795 84.5 41.98z" fill="#75BDEF"/><path d="M35.343 14.708H10.608A41.938 41.938 0 002.99 27.824h27.361a2.188 2.188 0 002.184-2.288c-.053-1.178-1.066-2.085-2.246-2.085h-2.316a2.185 2.185 0 01-2.183-2.317c.069-1.165 1.078-2.054 2.245-2.054h7.37a2.188 2.188 0 002.184-2.272c-.045-1.184-1.061-2.1-2.246-2.1zm1.721-8.743h3.257a2.186 2.186 0 110 4.371h-3.257a2.186 2.186 0 110-4.371z" fill="#A0D5FF"/><path d="M5.48 61.748c7.07 13.217 21.004 22.21 37.04 22.21 16.037 0 29.971-8.993 37.04-22.21H5.48z" fill="#AFBC31"/><path d="M48.91 61.748H5.48c7.07 13.217 21.004 22.21 37.04 22.21a42.5 42.5 0 004.23-.212c-12.752-2.096-11.69-21.998 2.16-21.998z" fill="#9FA519"/><path d="M26.877 80.945a12.543 12.543 0 004.401-9.126H12.996a42.028 42.028 0 0013.881 9.126zm56.286-11.544c-.273.121-.578.19-.906.19h-18.1c-.81.731-1.829 1.317-3.154 1.715-.05.428-.077.862-.077 1.302 0 6.269 5.082 11.35 11.35 11.35 6.269 0 11.35-5.081 11.35-11.35 0-1.114-.163-2.19-.463-3.207z" fill="#5D5D84"/><path d="M78.987 81.495a3.3 3.3 0 01-3.057-4.54l-.004-.002s-4.45-1.723-2.954-7.18l.048-.181h-8.862c-.81.73-1.83 1.316-3.155 1.714-.05.428-.077.861-.077 1.302 0 6.269 5.082 11.35 11.35 11.35a11.3 11.3 0 007.086-2.486 3.288 3.288 0 01-.375.023z" fill="#494970"/><path d="M66.602 72.608a5.674 5.674 0 1010.48-3.016h-9.611a5.646 5.646 0 00-.87 3.016z" fill="#FAB941"/><path d="M72.616 71.794c0-.781.162-1.525.448-2.202h-5.593a5.674 5.674 0 008.456 7.361 5.675 5.675 0 01-3.31-5.159z" fill="#F6A221"/><path d="M84.255 66.547c-2.25-4.37-7.164-7.358-12.417-7.358-.709 0-1.403.056-2.081.162-1.266.948-2.206 2.357-2.7 4.055-.737 2.53-1.51 4.788-3.261 6.366h18.46c1.658 0 2.758-1.752 1.999-3.225z" fill="#E2E9F2"/><path d="M70.612 65.209a5.594 5.594 0 014.844-5.544 14.095 14.095 0 00-3.618-.477c-.709 0-1.403.057-2.081.163-1.266.948-2.206 2.357-2.7 4.055-.737 2.53-1.51 4.788-3.261 6.366h9.175a5.588 5.588 0 01-2.36-4.563z" fill="#C7D6E5"/><path d="M3.87 49.72a2.45 2.45 0 00-2.286 1.59 41.661 41.661 0 002.929 8.508c.28-.077.54-.203.771-.368a16.25 16.25 0 01.978-1.498c.032-.157.05-.32.05-.486v-5.304a2.45 2.45 0 00-2.443-2.442z" fill="#FAB941"/><path d="M3.87 55.185c-.494 0-.953-.149-1.338-.402a41.654 41.654 0 001.98 5.035c.28-.077.541-.203.772-.368.299-.518.626-1.018.978-1.497.032-.158.05-.32.05-.487v-4.723a2.45 2.45 0 01-2.443 2.442z" fill="#F6A221"/><path d="M6.311 52.162v5.846c0 .167-.017.332-.05.49 2.932-3.997 7.662-7.497 12.999-7.497H6.016c.187.346.295.742.295 1.16z" fill="#494970"/><path d="M34.805 47.763H16.002c-.941 0-1.705.764-1.705 1.705v2.675a16.104 16.104 0 014.963-.78 16.08 16.08 0 0112.51 5.958c.685-3.881 2.298-6.577 3.687-7.922.615-.596.204-1.636-.652-1.636z" fill="#E2E9F2"/><path d="M24.01 50.397a2.552 2.552 0 012.427-2.548v-.086H16.002c-.941 0-1.705.763-1.705 1.705v2.674a16.1 16.1 0 014.963-.78c2.025 0 3.962.375 5.748 1.057a2.549 2.549 0 01-.997-2.022z" fill="#C7D6E5"/><path d="M39.41 45.502a2.442 2.442 0 00-2.443-2.442h-22.16a2.442 2.442 0 100 4.884h22.16a2.442 2.442 0 002.442-2.442z" fill="#5D5D84"/><path d="M23.451 45.502a2.442 2.442 0 012.442-2.442H14.808a2.442 2.442 0 100 4.884h11.085a2.442 2.442 0 01-2.442-2.442z" fill="#494970"/><path d="M29.827 71.639v2.924c0 1.194.977 2.171 2.17 2.171h11.639c1.194 0 2.17-.976 2.17-2.171v-2.924H29.828z" fill="#717196"/><path d="M37.817 74.563v-2.924h-7.99v2.924c0 1.194.977 2.171 2.17 2.171h7.99a2.177 2.177 0 01-2.17-2.171z" fill="#5D5D84"/><path d="M56.655 70a1.99 1.99 0 011.438-1.92c.463-.13.992-.314 1.52-.566a2.427 2.427 0 00-1.336-.399H35.014a2.442 2.442 0 010 4.885h23.263c.069 0 .135-.005.202-.01A2 2 0 0156.655 70z" fill="#5D5D84"/><path d="M56.655 70a1.99 1.99 0 011.438-1.92 9.52 9.52 0 001.519-.566 2.428 2.428 0 00-1.335-.399h-6.475a2.617 2.617 0 011.68 2.443A2.617 2.617 0 0151.803 72h6.475c.069 0 .135-.005.202-.01A2 2 0 0156.655 70z" fill="#494970"/><path d="M62.444 63.587c0-3.276-2.075-16.028-2.957-21.304l-1.92 3.72a9.163 9.163 0 00.051 8.504l4.826 9.08z" fill="#C7D6E5"/><path d="M61.241 53.314a655.638 655.638 0 00-1.754-11.03l-1.92 3.719a9.163 9.163 0 00.051 8.504c1.02 1.92 3.943.958 3.623-1.193z" fill="#E2E9F2"/><path d="M4.731 60.281a42.006 42.006 0 004.303 7.015h26.34c0-8.9-7.214-16.295-16.114-16.295-6.4 0-11.927 3.823-14.529 9.28z" fill="#F5585C"/><path d="M24.523 51.9a15.812 15.812 0 00-5.263-.899c-6.4 0-11.927 3.823-14.529 9.28a42.006 42.006 0 004.303 7.015h19.483c-9.18 0-10.736-11.99-3.994-15.395z" fill="#D13044"/><path d="M65.632 29.879V41.08c2.811 0 5.111-2.18 5.111-4.846v-1.51c0-2.666-2.3-4.846-5.111-4.846z" fill="#82B4F2"/><path d="M67.637 36.235v-1.51c0-1.357.597-2.588 1.554-3.47a5.24 5.24 0 00-3.56-1.376V41.08a5.24 5.24 0 003.56-1.377c-.957-.882-1.554-2.112-1.554-3.469z" fill="#6393E4"/><path d="M74.116 53.204c-1.084-2.44-2.454-3.988-3.546-4.922-1.356-1.159-2.428-2.613-3.087-4.27a2.933 2.933 0 00-2.725-1.85H59.11l-.006.007c.871 5.203 2.976 18.119 2.976 21.419 0 2.807-2.636 4.009-4.35 4.493A1.99 1.99 0 0056.293 70a2.002 2.002 0 002.193 1.99c6.454-.612 7.833-4.19 9.113-8.585.69-2.368 2.243-4.18 4.347-4.955 2.13-.784 3.092-3.173 2.17-5.247z" fill="#FAB941"/><path d="M15.306 58.951h-2.017a1.357 1.357 0 010-2.714h2.017a1.357 1.357 0 110 2.714zm0 4.154h-2.017a1.357 1.357 0 010-2.714h2.017a1.357 1.357 0 110 2.714z" fill="#B7253D"/><path d="M58.613 42.162h6.326c.572 0 1.034-.463 1.034-1.034V29.832c0-.571-.463-1.034-1.034-1.034h-3.588a3.772 3.772 0 00-3.772 3.771v8.56c0 .57.463 1.033 1.034 1.033z" fill="#FAB941"/><path d="M63.824 35.48h-4.096a2.149 2.149 0 01-2.149-2.148v7.797c0 .57.463 1.034 1.034 1.034h6.326c.572 0 1.034-.463 1.034-1.034v-7.797a2.148 2.148 0 01-2.149 2.149z" fill="#F6A221"/><path d="M62.082 30.155c-.75 0-1.357-.608-1.357-1.357v-2.142c0-2.1-1.709-3.81-3.81-3.81H55.7a1.357 1.357 0 010-2.713h1.217a6.53 6.53 0 016.523 6.523v2.142c0 .75-.608 1.357-1.357 1.357z" fill="#5D5D84"/><path d="M62.584 35.661a2.442 2.442 0 00-2.442-2.442h-5.125a2.443 2.443 0 000 4.884h5.125a2.443 2.443 0 002.442-2.442z" fill="#717196"/><path d="M57.986 35.661a2.442 2.442 0 00-2.443-2.442h-.527a2.442 2.442 0 000 4.884h.527a2.442 2.442 0 002.443-2.442z" fill="#5D5D84"/><path d="M54.474 16.485a2.442 2.442 0 00-2.443 2.442v5.125a2.442 2.442 0 104.884 0v-5.125a2.442 2.442 0 00-2.441-2.442z" fill="#E2E9F2"/><path d="M54.474 22.032a2.442 2.442 0 01-2.443-2.442v4.462a2.443 2.443 0 004.884 0V19.59a2.441 2.441 0 01-2.441 2.442z" fill="#C7D6E5"/><path d="M75.287 54.514a2.42 2.42 0 00-2.413-2.413h-3.005a2.42 2.42 0 00-2.414 2.413 2.42 2.42 0 002.414 2.414h3.005a2.42 2.42 0 002.413-2.414z" fill="#FAD964"/><path d="M71.01 54.514c0-1.234.94-2.259 2.139-2.397a2.426 2.426 0 00-.275-.016h-3.005a2.42 2.42 0 00-2.414 2.413 2.42 2.42 0 002.414 2.414h3.005c.093 0 .184-.007.275-.017a2.421 2.421 0 01-2.14-2.397z" fill="#F6A221"/><path d="M20.153 77.507a6.288 6.288 0 004.834-5.688h-11.99a42.169 42.169 0 007.156 5.688z" fill="#F5585C"/><path d="M18.101 71.82h-5.105a42.145 42.145 0 007.157 5.687 6.283 6.283 0 001.391-.505 6.287 6.287 0 01-3.443-5.183z" fill="#D13044"/><path d="M35.375 67.115H8.896A42.097 42.097 0 0013.183 72h22.192a2.442 2.442 0 100-4.884z" fill="#E2E9F2"/><path d="M26.71 67.115H8.895A42.097 42.097 0 0013.183 72h13.526a2.442 2.442 0 110-4.884z" fill="#C7D6E5"/><path d="M67.648 59.939a7.113 7.113 0 01-6.385-3.976c.47 3.354.819 6.283.819 7.624 0 2.808-2.637 4.009-4.35 4.493a1.99 1.99 0 00-1.44 1.92 2.002 2.002 0 002.193 1.99c6.454-.611 7.833-4.189 9.113-8.584.469-1.607 1.334-2.956 2.498-3.9a7.103 7.103 0 01-2.45.433z" fill="#F6A221"/><path d="M28.53 56.995a1.84 1.84 0 10-.808 3.591 1.84 1.84 0 00.808-3.591zm-3.539 2.292a1.096 1.096 0 10-.483 2.138 1.096 1.096 0 00.483-2.138z" fill="#FC757E"/><path d="M1.299 21.266h4.334v-3.592l-4.334 3.592z" fill="#D13044"/><path d="M23.04 17.674v3.592h4.272l-4.273-3.592z" fill="#F5585C"/><path d="M20.216 16.485H8.455a3.957 3.957 0 00-3.953 3.953v.828h2.835v-.969c0-.64.52-1.161 1.161-1.161h11.675c.64 0 1.161.521 1.161 1.161v.97h2.835v-.829a3.957 3.957 0 00-3.953-3.953z" fill="#FC757E"/><path d="M13.55 17.808a1.5 1.5 0 01.795-1.323h-5.89a3.957 3.957 0 00-3.953 3.953v.828h2.835v-.968c0-.641.52-1.162 1.161-1.162h5.858a1.497 1.497 0 01-.806-1.328z" fill="#F5585C"/><path d="M25.286 20.21H3.325A2.833 2.833 0 00.5 23.037v17.198a2.833 2.833 0 002.825 2.825h21.96a2.833 2.833 0 002.826-2.825V23.036a2.833 2.833 0 00-2.825-2.825z" fill="#E2E9F2"/><path d="M5.026 40.234V23.036a2.834 2.834 0 012.825-2.825H3.325A2.833 2.833 0 00.5 23.036v17.198a2.833 2.833 0 002.825 2.825H7.85a2.834 2.834 0 01-2.825-2.825z" fill="#C7D6E5"/><path d="M9.05 51.629l-4.237-8.123a1.357 1.357 0 112.406-1.255l4.238 8.122A1.357 1.357 0 019.05 51.63z" fill="#717196"/><path d="M11.457 50.373l-2.059-3.946a1.599 1.599 0 01-2.394 1.276l2.047 3.925a1.356 1.356 0 102.406-1.255z" fill="#494970"/><path d="M20.209 28.185a6.9 6.9 0 10-11.952 6.9 6.9 6.9 0 0011.952-6.9z" fill="#FAB941"/><path d="M12.497 32.637a6.904 6.904 0 01.63-7.814 6.9 6.9 0 106.452 11.175 6.903 6.903 0 01-7.082-3.36z" fill="#F6A221"/><path d="M17.058 30.787h-5.444a1.23 1.23 0 110-2.46h5.444a1.23 1.23 0 110 2.46zm0 4.156h-5.444a1.23 1.23 0 110-2.46h5.444a1.23 1.23 0 110 2.46z" fill="#FAD964"/><path d="M61.722 4.64a2.187 2.187 0 01-2.01 1.325h-8.745a2.186 2.186 0 000 4.371h13.194a2.186 2.186 0 010 4.372h-4.62a2.187 2.187 0 000 4.372h18.166A42.18 42.18 0 0061.722 4.64z" fill="#A0D5FF"/></g></g><defs><clipPath id="clip0_1145_3077"><path fill="#fff" transform="translate(.5)" d="M0 0h84v84H0z"/></clipPath></defs></svg>