<svg width="84" height="84" viewBox="0 0 84 84" fill="none" xmlns="http://www.w3.org/2000/svg"><path d="M42 3.61c-22.2 0-40.195 17.995-40.195 40.195 0 4.8.843 9.404 2.387 13.672l.202.073 5.631-4.935a7.532 7.532 0 019.892 0l2.136 1.86V23.989l-.082-.047a3.595 3.595 0 01-1.791-3.1 3.586 3.586 0 013.582-3.581h36.476a3.586 3.586 0 013.582 3.582 3.595 3.595 0 01-1.79 3.099l-.083.047v29.558l1.07-.932a7.532 7.532 0 019.892 0l6.443 5.61.195-.048a40.084 40.084 0 002.648-14.372C82.195 21.605 64.2 3.609 42 3.609z" fill="#D8ECFE"/><path d="M62.558 11.625l-2.355-2.354-2.873 2.874a1.23 1.23 0 01-.876.363c-.331 0-.642-.13-.876-.363a1.23 1.23 0 01-.363-.876c0-.33.129-.642.363-.876l2.874-2.874-2.354-2.354a.913.913 0 00-1.292 0l-5.621 5.621 7.943 6.475h1.086l4.344-4.344a.914.914 0 000-1.292z" fill="#8D9CA8"/><path d="M61.88 7.704l-1.863-1.861a.332.332 0 01-.051-.07l-4.504 4.504a1.402 1.402 0 101.983 1.983l4.504-4.504a.324.324 0 01-.07-.052z" fill="#7A8C98"/><path d="M67.193.53a1.809 1.809 0 010 2.557L62.46 7.821a.492.492 0 01-.696 0l-1.862-1.862a.492.492 0 010-.696L64.635.53a1.809 1.809 0 012.558 0z" fill="#FD8087"/><path d="M57.387 17.26L46.274 8.203a6.766 6.766 0 00-8.55 0L26.613 17.26h30.775z" fill="#D88A55"/><path d="M43.822 6.933a6.764 6.764 0 00-6.096 1.27l-11.113 9.058h3.644L41.37 8.204a6.744 6.744 0 012.453-1.27z" fill="#C57A44"/><path d="M36.717 13.526a2.06 2.06 0 00-1.987 1.516.438.438 0 00.429.544h3.116a.438.438 0 00.429-.544 2.06 2.06 0 00-1.987-1.516zm12.304.493a2.06 2.06 0 00-1.987 1.515.438.438 0 00.43.544h3.115c.285 0 .505-.269.43-.544a2.06 2.06 0 00-1.988-1.515z" fill="#F6A96C"/><path d="M73.017 52.491a7.696 7.696 0 00-10.107 0l-.963.839v11.292l.031.018h13.819l.68-.164a40.066 40.066 0 003.07-6.3l-6.53-5.685zM18.058 62.845a14.629 14.629 0 013.995-2.31v-6.278l-2.029-1.766a7.696 7.696 0 00-10.106 0l-5.726 4.985a40.041 40.041 0 003.33 7l.72.164h7.613l2.203-1.795z" fill="#C57A44"/><path d="M42 84c14.639 0 27.448-7.827 34.477-19.523H7.522C14.551 76.173 27.36 84 42 84z" fill="#78A91F"/><path d="M62.111 64.528V24.084a3.742 3.742 0 001.873-3.241 3.746 3.746 0 00-3.746-3.746H23.762a3.746 3.746 0 00-3.746 3.746c0 1.386.754 2.593 1.873 3.24v36.515a14.65 14.65 0 015.415-1.043c3.359 0 6.642 1.169 9.245 3.29l10.638 8.67h13.051a3.746 3.746 0 003.746-3.746 3.742 3.742 0 00-1.873-3.24z" fill="#FFBD86"/><path d="M27.139 59.559v-35.03a.808.808 0 00-.325-.656 3.736 3.736 0 01-1.548-3.03 3.746 3.746 0 013.746-3.746h-5.163c-2.04 0-3.772 1.595-3.832 3.634a3.741 3.741 0 001.872 3.353v36.514a14.657 14.657 0 015.25-1.04z" fill="#F6A96C"/><path d="M42 52.185c6.143 0 11.124-4.98 11.124-11.124 0-6.143-4.98-11.123-11.124-11.123s-11.124 4.98-11.124 11.123c0 6.144 4.98 11.124 11.124 11.124z" fill="#FEE97D"/><path d="M42 49.22a8.157 8.157 0 100-16.316 8.157 8.157 0 000 16.315z" fill="#FED402"/><path d="M40.61 48.091a8.149 8.149 0 01-3.855-8.677 11.77 11.77 0 01-2.366-1.287 8.158 8.158 0 006.221 10.971v-1.007z" fill="#FAC600"/><path d="M40.774 33.681a11.84 11.84 0 00-2.06-2.774 11.83 11.83 0 00-8.822-3.465.562.562 0 00-.543.543 11.828 11.828 0 003.465 8.821 11.813 11.813 0 007.96 3.461v-6.586z" fill="#8BC727"/><path d="M40.61 38.769a11.79 11.79 0 01-6.458-3.311 11.814 11.814 0 01-3.463-8.014c-.265-.008-.531-.01-.797-.001a.563.563 0 00-.542.542 11.829 11.829 0 003.464 8.821 11.812 11.812 0 007.796 3.455V38.77z" fill="#81B823"/><path d="M54.65 27.985a.562.562 0 00-.542-.543 11.83 11.83 0 00-8.821 3.465 11.84 11.84 0 00-2.06 2.774v6.586a11.813 11.813 0 007.96-3.46 11.83 11.83 0 003.464-8.822z" fill="#8BC727"/><path d="M54.65 27.985a.562.562 0 00-.542-.543 11.83 11.83 0 00-8.821 3.465 11.867 11.867 0 00-1.897 2.472v4.948a11.783 11.783 0 013.23-6.027 11.814 11.814 0 018.028-3.463c.01-.284.013-.568.003-.852z" fill="#81B823"/><path d="M42 49.218c.475 0 .939-.042 1.391-.12V33.367a1.39 1.39 0 10-2.78 0v15.731c.451.078.915.12 1.39.12z" fill="#78A91F"/><path d="M48.303 57.217H35.696a1.23 1.23 0 110-2.461h12.607a1.23 1.23 0 110 2.46z" fill="#81B823"/><path d="M49.293 65.953a1.23 1.23 0 100-2.46 1.23 1.23 0 000 2.46zm3.773 0a1.23 1.23 0 100-2.46 1.23 1.23 0 000 2.46zm3.774 0a1.23 1.23 0 100-2.46 1.23 1.23 0 000 2.46z" fill="#F6A96C"/><path d="M49.219 8.203a1.64 1.64 0 100-3.281 1.64 1.64 0 000 3.281zM34.29 6.563a1.64 1.64 0 100-3.282 1.64 1.64 0 000 3.281zm-6.727 7.054a1.64 1.64 0 100-3.28 1.64 1.64 0 000 3.28z" fill="#D88A55"/><path d="M42.526 9.753a2.06 2.06 0 00-1.988 1.515.438.438 0 00.43.545h3.115a.438.438 0 00.43-.545 2.06 2.06 0 00-1.987-1.515z" fill="#F6A96C"/><path d="M71.4 55.198a2.06 2.06 0 00-1.987 1.516.438.438 0 00.43.544h3.115a.438.438 0 00.43-.544 2.06 2.06 0 00-1.988-1.516zm-5.808 3.938a2.06 2.06 0 00-1.987 1.515.438.438 0 00.429.544h3.115a.438.438 0 00.43-.544 2.06 2.06 0 00-1.987-1.515zm-48.824-5.25A2.06 2.06 0 0014.78 55.4a.438.438 0 00.43.544h3.115a.438.438 0 00.43-.544 2.06 2.06 0 00-1.987-1.515zm-5.317 4.848a2.06 2.06 0 00-1.987 1.516.438.438 0 00.43.544h3.115a.44.44 0 00.43-.544 2.06 2.06 0 00-1.988-1.516z" fill="#D88A55"/><path d="M32.648 77.191c0-.68-.55-1.23-1.23-1.23h-2.461a1.23 1.23 0 000 2.46h2.461c.68 0 1.23-.55 1.23-1.23zM47.25 79.16c0-.68-.55-1.23-1.23-1.23h-2.461a1.23 1.23 0 100 2.46h2.46c.68 0 1.231-.55 1.231-1.23zm14.438-4.43c0-.68-.551-1.23-1.231-1.23h-2.46a1.23 1.23 0 100 2.46h2.46c.68 0 1.23-.55 1.23-1.23z" fill="#81B823"/><path d="M48.58 72.44l-11.927-9.722a14.799 14.799 0 00-18.7 0l-7.443 6.067a40.427 40.427 0 004.844 5.11h32.708c.772 0 1.116-.968.518-1.455z" fill="#D88A55"/><path d="M27.104 63.164a2.06 2.06 0 00-1.988 1.516.438.438 0 00.43.544h3.115c.286 0 .505-.27.43-.544a2.06 2.06 0 00-1.987-1.516zm-5.414 4.758a2.06 2.06 0 00-1.988 1.516.438.438 0 00.43.544h3.115c.286 0 .505-.27.43-.544a2.06 2.06 0 00-1.988-1.516zm15.027 1.148a2.06 2.06 0 00-1.987 1.516.438.438 0 00.429.544h3.116a.438.438 0 00.429-.544 2.06 2.06 0 00-1.987-1.516z" fill="#F6A96C"/></svg>