<svg width="76" height="182" fill="none" xmlns="http://www.w3.org/2000/svg"><path d="M5.062 178.689c.636 1.444 1.892 2.906 2.96 2.381 17.638-7.941 35.745-15.001 54.263-21.367 3.13-1.142.378-10.327-2.752-9.184a739.073 739.073 0 00-39.268 14.831c16.028-11.952 29.376-27.391 38.771-45.118C71.037 98.252 76.574 73.103 75.42 48.12c-.538-14.75-3.495-29.387-8.457-43.22C66.569 3.588 65.24.514 63.309.888c-1.874.562-1.425 4.104-.845 5.36 8.22 22.66 10.069 47.232 4.945 71.032-4.655 22.638-15.513 43.662-30.773 60.9-6.093 6.932-12.842 13.04-20.19 18.51 3.45-7.57 6.039-15.291 7.222-23.612.376-2.155-.41-4.779-1.966-6.56-1.255-1.462-2.942-.957-3.186.955C16.3 143.253 8.256 157.306.53 171.06c-1.107 1.761.036 4.892 1.16 6.597.636 1.444 2.398 2.55 3.373 1.032z" fill="#ACD728"/></svg>