<svg width="130" height="130" viewBox="0 0 130 130" fill="none" xmlns="http://www.w3.org/2000/svg"><path d="M89.43 60.64l-1.045 1.045c-.526.517-1.02 1.06-1.489 1.528-2.092 2.056-4.009 3.599-6.066 3.589l-3.933-.02v.001c-2.716-.013-5.446.966-5.48.978L51.29 75.648c-4.802 1.771-3.358 9.505 2.806 8.478l8.887-1.202 25.34 28.54 12.135-12.166c5.602-5.592.733-9.638 5.237-14.135l3.528-3.523.603-.605c-4.185-4.183-15.798-15.797-20.396-20.395z" fill="#FFBEAB"/><path d="M54 80.473c21.885-8.574 23.018-9.38 27.046-9.361v-.001l4.153.02c2.172.011 4.198-1.617 6.406-3.788v-.001c.494-.494 1.018-1.068 1.573-1.614l.67-.67-4.418-4.418-1.045 1.045h.001c-.527.517-1.022 1.06-1.49 1.529-2.091 2.056-4.009 3.598-6.066 3.588l-3.932-.02v.001c-2.717-.013-5.446.966-5.48.978L51.29 75.648c-3.88 1.43-3.68 6.75-.213 8.202.288-1.44 1.241-2.756 2.924-3.377z" fill="#F7AF9F"/><path d="M87.971 114.102a4.382 4.382 0 00-.014-6.203L63.126 82.918a.343.343 0 00-.29-.098l-8.756 1.262c-6.164 1.027-7.427-6.548-2.79-8.173l13.75-5.65-6.377-2.497c-.034-.012-2.763-.992-5.48-.978l-.001-.001-3.933.019c-2.057.01-3.974-1.532-6.066-3.588h.001c-.468-.468-.964-1.012-1.49-1.528v-.001L40.61 60.6 20.214 80.995l4.173 4.169c4.502 4.497-.367 8.542 5.235 14.133l13.117 13.098-.01.009 14.7 14.699a4.395 4.395 0 106.216-6.217l5.578 5.578c1.744 1.744 4.652 1.798 6.363.021a4.4 4.4 0 00-.06-6.161l2.271 2.27c1.744 1.745 4.653 1.799 6.363.021a4.4 4.4 0 00-.06-6.162l-2.296-2.296.004-.004a4.393 4.393 0 006.163-.051z" fill="#FFCDBF"/><path d="M51.03 113.628l.012-.012-15.97-15.947c-6.821-6.808-.894-11.735-6.377-17.21l-3.974-3.97-4.506 4.506 4.171 4.169c4.503 4.497-.364 8.541 5.237 14.133l13.116 13.097-.009.01 14.699 14.699a4.395 4.395 0 006.216.001c.146-.147.276-.304.397-.464L51.03 113.628zm8.163-17.318a2.616 2.616 0 00-3.724 3.675l20.599 20.88 1.73 1.73c1.743 1.744 4.651 1.797 6.362.021.166-.173.31-.357.443-.549L59.193 96.31zm6.803-5.639a2.616 2.616 0 00-3.725 3.675l19.555 19.821a4.39 4.39 0 006.146-.065c.195-.196.367-.408.517-.629L65.996 90.671zM52.61 102.19a2.616 2.616 0 00-3.73 3.668l15.41 15.673 4.934 4.933c1.743 1.744 4.651 1.797 6.362.021a4.39 4.39 0 00.414-.507L52.61 102.19z" fill="#FFBEAB"/><path d="M112.724 84.196a1.636 1.636 0 002.313 0l14.484-14.484a1.635 1.635 0 000-2.313l-26.373-26.372a1.634 1.634 0 00-2.313 0L86.352 55.51a1.634 1.634 0 000 2.313l26.372 26.373z" fill="#54A0FF"/><path d="M89.74 59.187l14.772-14.772a1.669 1.669 0 011.588-.437l-2.952-2.951a1.635 1.635 0 00-2.313 0L86.352 55.51a1.634 1.634 0 000 2.313l2.951 2.952a1.665 1.665 0 01.437-1.588z" fill="#338DEF"/><path d="M17.276 84.196a1.635 1.635 0 01-2.313 0L.479 69.712a1.635 1.635 0 010-2.313l26.373-26.372a1.633 1.633 0 012.313 0L43.648 55.51c.64.639.64 1.674 0 2.313L17.275 84.196z" fill="#576574"/><path d="M19.543 80.788L3.888 65.133a1.759 1.759 0 01-.432-.71L.479 67.399a1.635 1.635 0 000 2.313l14.484 14.484a1.635 1.635 0 002.313 0l2.976-2.977a1.764 1.764 0 01-.71-.431z" fill="#3E4B5A"/><path d="M123.9 15.827c.794-.76.356-2.081-.742-2.237l-8.481-1.207a1.334 1.334 0 01-1.008-.718l-3.794-7.527c-.491-.975-1.909-.975-2.4 0l-3.793 7.527a1.337 1.337 0 01-1.008.718l-8.482 1.207c-1.097.156-1.536 1.478-.741 2.237l6.137 5.86c.315.3.459.734.385 1.16l-1.45 8.273c-.187 1.072.96 1.889 1.944 1.383l7.585-3.907c.39-.2.856-.2 1.246 0l7.585 3.907c.982.506 2.13-.311 1.942-1.383l-1.449-8.273c-.074-.426.071-.86.386-1.16l6.138-5.86z" fill="#FECA57"/><path d="M109.234 21.332a1.291 1.291 0 00-.384-1.16l-6.137-5.86c-.609-.581-.492-1.49.087-1.955a1.32 1.32 0 01-.125.026l-8.481 1.207c-1.099.156-1.537 1.478-.742 2.237l6.136 5.86c.315.3.459.734.385 1.16l-1.45 8.273c-.187 1.072.96 1.889 1.944 1.383l7.487-3.856 1.28-7.315zm-5.779-9.257l8.481-1.207c.423-.06.788-.315.987-.682l-3.047-6.048c-.491-.975-1.91-.975-2.401 0l-3.793 7.527a1.294 1.294 0 01-.362.44 1.2 1.2 0 01.135-.03z" fill="#F4B537"/><path d="M36.549 15.826c.794-.758.356-2.08-.742-2.236l-8.481-1.207a1.338 1.338 0 01-1.008-.718l-3.792-7.528c-.491-.974-1.91-.974-2.402 0l-3.792 7.528a1.334 1.334 0 01-1.008.717L6.843 13.59c-1.098.155-1.536 1.478-.742 2.236l6.137 5.86c.316.3.46.735.385 1.16l-1.449 8.274c-.187 1.071.96 1.889 1.942 1.383l7.586-3.907c.39-.2.855-.2 1.246 0l7.586 3.907c.982.506 2.13-.312 1.942-1.383l-1.45-8.274c-.074-.425.07-.86.386-1.16l6.137-5.86z" fill="#FECA57"/><path d="M21.885 21.332a1.297 1.297 0 00-.385-1.16l-6.137-5.86c-.608-.58-.492-1.49.088-1.955a1.36 1.36 0 01-.127.026L6.843 13.59c-1.098.156-1.536 1.478-.742 2.237l6.137 5.86c.316.3.46.734.385 1.16l-1.449 8.274c-.187 1.07.96 1.888 1.943 1.382l7.487-3.856 1.28-7.315zm-5.78-9.257l8.48-1.207a1.34 1.34 0 00.988-.682l-3.047-6.05c-.491-.973-1.91-.973-2.401 0l-3.793 7.529a1.307 1.307 0 01-.362.439c.044-.01.088-.022.135-.029z" fill="#F4B537"/><path d="M87.73 20.322c1.187-1.133.532-3.107-1.107-3.34L73.96 15.18a1.999 1.999 0 01-1.504-1.071l-5.663-11.24c-.733-1.455-2.852-1.455-3.585 0l-5.663 11.24c-.29.577-.854.978-1.505 1.071l-12.662 1.802c-1.64.233-2.294 2.207-1.108 3.34l9.162 8.748c.471.45.687 1.099.575 1.733l-2.163 12.354c-.28 1.6 1.434 2.82 2.9 2.064l11.326-5.833c.582-.3 1.279-.3 1.86 0l11.326 5.833c1.466.755 3.18-.465 2.9-2.064l-2.163-12.354a1.933 1.933 0 01.576-1.733l9.162-8.748z" fill="#FECA57"/><path d="M64.592 13.781a1.998 1.998 0 001.505-1.07l2.826-5.612-2.131-4.23c-.733-1.456-2.852-1.456-3.584 0l-5.664 11.24a1.968 1.968 0 01-.713.777l7.761-1.105zm-6.195 27.977l2.163-12.354a1.934 1.934 0 00-.575-1.732l-9.163-8.75c-.965-.92-.712-2.397.298-3.042l-7.742 1.102c-1.64.233-2.294 2.207-1.108 3.34l9.162 8.748c.471.45.687 1.098.575 1.733l-2.163 12.353c-.28 1.6 1.434 2.82 2.9 2.064l5.636-2.902a1.942 1.942 0 01.017-.56z" fill="#F4B537"/></svg>