<svg width="27" height="27" viewBox="0 0 27 27" fill="none" xmlns="http://www.w3.org/2000/svg">
<path d="M18.5625 0H8.4375C3.77831 0 0 3.77162 0 8.42255V18.5296C0 23.1806 3.77831 26.9522 8.4375 26.9522H18.5625C23.2217 26.9522 27 23.1806 27 18.5296V8.42255C27 3.77162 23.2217 0 18.5625 0ZM24.4688 18.5296C24.4688 21.7807 21.8194 24.4254 18.5625 24.4254H8.4375C5.18062 24.4254 2.53125 21.7807 2.53125 18.5296V8.42255C2.53125 5.17145 5.18062 2.52677 8.4375 2.52677H18.5625C21.8194 2.52677 24.4688 5.17145 24.4688 8.42255V18.5296Z" fill="#FDFDFD"/>
<path d="M13.5 6.73828C9.77231 6.73828 6.75 9.75524 6.75 13.4763C6.75 17.1974 9.77231 20.2144 13.5 20.2144C17.2277 20.2144 20.25 17.1974 20.25 13.4763C20.25 9.75524 17.2277 6.73828 13.5 6.73828ZM13.5 17.6876C11.1746 17.6876 9.28125 15.7976 9.28125 13.4763C9.28125 11.1534 11.1746 9.26505 13.5 9.26505C15.8254 9.26505 17.7188 11.1534 17.7188 13.4763C17.7188 15.7976 15.8254 17.6876 13.5 17.6876Z" fill="#FDFDFD"/>
<path d="M20.7549 7.12967C21.2516 7.12967 21.6543 6.72769 21.6543 6.23183C21.6543 5.73596 21.2516 5.33398 20.7549 5.33398C20.2582 5.33398 19.8555 5.73596 19.8555 6.23183C19.8555 6.72769 20.2582 7.12967 20.7549 7.12967Z" fill="#FDFDFD"/>
</svg>
