<svg width="130" height="130" viewBox="0 0 130 130" fill="none" xmlns="http://www.w3.org/2000/svg"><g clip-path="url(#clip0_1717_5561)"><path d="M129.97 120.78l-10.213-56.269a1.905 1.905 0 00-.95-1.326L93.101 48.888a1.902 1.902 0 00-1.075-.231l4.677 60.33-.157.07 30.765 13.801a1.91 1.91 0 001.957-.237 1.906 1.906 0 00.702-1.841zM65 62.556L38.71 48.863a1.902 1.902 0 00-.735-.206l-4.677 60.33 30.92 13.872c.25.112.517.167.782.167v-60.47z" fill="#44C868"/><path d="M37.974 48.657a1.904 1.904 0 00-1.075.231L11.193 63.186c-.5.277-.848.763-.95 1.325L.032 120.78a1.905 1.905 0 001.877 2.246c.265 0 .532-.055.782-.167l30.596-13.726 4.688-60.476zm54.052-.001a1.9 1.9 0 00-.735.208L65 62.556v60.47c.266 0 .532-.056.781-.168l30.921-13.872-4.676-60.331z" fill="#4CE166"/><path d="M7.149 81.563l-2.075 11.43 30.721-16.226.714-9.201.118-1.526L7.149 81.563z" fill="#FFDB56"/><path d="M36.072 73.2l-.277 3.568L5.074 92.994.03 120.78a1.905 1.905 0 001.877 2.246c.265 0 .532-.055.782-.167l30.596-13.727L36.071 73.2z" fill="#A8EEFC"/><path d="M65.008 70.099L36.627 66.04l-.832 10.728L65 121.12v-16.128L47.573 77.55l17.435 2.086v-9.537zm51.775-8.039l-12.348-6.868-11.69 2.731.145 1.888.578 7.448 23.315-5.199z" fill="#FFBB24"/><path d="M94.505 80.635l-1.107-14.282-.654-8.43L65.008 70.1v9.537l18.118-7.879 11.379 8.878z" fill="#FFDB56"/><path d="M129.969 120.78l-2.565-14.134-33.936-39.387 1.037 13.376 34.803 41.95a1.9 1.9 0 00.661-1.805z" fill="#FFBB24"/><path d="M65.122 6.974c-14.717 0-26.69 11.963-26.69 26.668 0 9.097 4.318 18.863 12.836 29.028 6.256 7.465 12.427 12.267 12.687 12.468a1.905 1.905 0 002.335 0c.26-.201 6.431-5.003 12.687-12.468 8.518-10.165 12.837-19.93 12.837-29.028C91.813 18.938 79.84 6.974 65.121 6.974zm9.885 26.668c0 5.455-4.426 9.877-9.885 9.877s-9.884-4.422-9.884-9.877c0-5.455 4.425-9.876 9.884-9.876 5.46 0 9.885 4.422 9.885 9.876z" fill="#FF4A4A"/><path d="M65.122 6.974a26.84 26.84 0 00-3.442.221c13.097 1.693 23.248 12.908 23.248 26.447 0 9.097-4.319 18.863-12.837 29.028A95.445 95.445 0 0161.68 73.25a58.227 58.227 0 002.275 1.888 1.906 1.906 0 002.335 0c.26-.201 6.431-5.003 12.687-12.468 8.518-10.165 12.837-19.93 12.837-29.028 0-14.705-11.974-26.668-26.692-26.668z" fill="#E7343F"/><path d="M65.781 122.859L77.28 117.7 65 104.992v18.034c.266 0 .532-.055.781-.167z" fill="#FFDB56"/><path d="M119.755 64.51a1.906 1.906 0 00-.949-1.325l-2.024-1.125-23.315 5.199 33.936 39.386-7.648-42.134zM65 123.026v-1.906L35.794 76.767l-2.498 32.22 30.92 13.872c.25.112.517.167.782.167z" fill="#1EA4E9"/></g><defs><clipPath id="clip0_1717_5561"><path fill="#fff" d="M0 0h130v130H0z"/></clipPath></defs></svg>