<svg width="26" height="25" viewBox="0 0 26 25" fill="none" xmlns="http://www.w3.org/2000/svg"><path d="M12.59 4.43c1.163 0 2.132-.9 2.132-1.98 0-1.079-.969-1.978-2.131-1.978-1.163 0-2.131.72-2.131 1.978 0 1.08.968 1.98 2.13 1.98zm6.2 16.009c0-.18-1.937-5.217-1.937-5.217l-2.906-2.878V6.588c0-1.26-2.519-2.159-2.712-1.8-.194 0-4.457 2.7-4.457 2.7l-.581 4.316v.18c0 .54.387.9.969.9.581 0 .968-.36.968-.9l.388-3.418 2.131-1.259v5.037l3.875 3.598 1.938 5.037c.194.36.581.72.968.72.582 0 1.163-.54 1.163-1.08.194 0 .194 0 .194-.18zm-12.98-.72c-.194.18-.194.36-.194.72 0 .54.581 1.08 1.162 1.08.388 0 .775-.18.969-.54l3.488-4.318.968-2.158-1.743-1.62-1.357 2.52-3.294 4.316zm8.718-10.793v2.339s1.356.9 1.55 1.259c.194.18.388.18.582.18.58 0 .968-.36.968-.9 0-.36-.194-.54-.387-.72l-2.713-2.158z" fill="#C1C1C1"/></svg>