<svg width="84" height="84" viewBox="0 0 84 84" fill="none" xmlns="http://www.w3.org/2000/svg"><g clip-path="url(#clip0_918_4344)"><path d="M42.719 83.64C65.518 83.64 84 65.16 84 42.36S65.518 1.078 42.72 1.078c-22.8 0-41.282 18.482-41.282 41.281 0 22.8 18.483 41.282 41.282 41.282z" fill="#85D6FF"/><path d="M27.076 56.827H13.883a2.186 2.186 0 010-4.372h4.62a2.186 2.186 0 000-4.371H1.836A41.125 41.125 0 0012.01 69.943h9.848a2.186 2.186 0 000-4.373h-3.527a2.185 2.185 0 110-4.372h8.745a2.186 2.186 0 000-4.371z" fill="#B8EBFF"/><path d="M46.163 72.076a1.338 1.338 0 01-1.338-1.338v-7.383c0-.327 0-1.32-1.356-1.983a1.338 1.338 0 111.175-2.404c1.842.9 2.857 2.458 2.857 4.387v7.383c0 .739-.6 1.338-1.338 1.338zm-8.653 2.5a1.338 1.338 0 01-1.337-1.337v-4.823a1.338 1.338 0 112.676 0v4.823c0 .738-.6 1.337-1.338 1.337z" fill="#AAA211"/><path d="M35.464 51.03c-.032-4.129 4.33-6.849 8.01-5.056.574.279 1.075.64 1.5 1.061a.28.28 0 00.344.04 5.6 5.6 0 013.564-.782.48.48 0 00.472-.238L61.06 25.78a1.279 1.279 0 00-.468-1.747L19.887.531a1.279 1.279 0 00-1.746.468L.17 32.122a1.279 1.279 0 00.47 1.748L32.737 52.4a.407.407 0 00.455-.03 5.582 5.582 0 012.016-1.007.344.344 0 00.256-.333z" fill="#F8A748"/><path d="M3.93 27.24a1.376 1.376 0 01-.572-.636L.171 32.123a1.279 1.279 0 00.469 1.746l32.097 18.532a.407.407 0 00.455-.03 5.586 5.586 0 012.016-1.007.344.344 0 00.256-.334 5.562 5.562 0 012.083-4.382L3.93 27.24z" fill="#F28D2A"/><path d="M33.192 52.371a5.583 5.583 0 012.016-1.007.344.344 0 00.255-.334c-.025-3.309 2.82-5.876 6.088-5.588L55.58 21.14 24.898 3.424 5.65 36.762 32.737 52.4a.407.407 0 00.455-.03z" fill="#FAC149"/><path d="M33.01 52.447a.392.392 0 00.182-.076 5.586 5.586 0 012.016-1.008.343.343 0 00.195-.14.34.34 0 00.06-.193 5.563 5.563 0 012.084-4.382L9.343 30.364l-3.694 6.397 27.088 15.64a.41.41 0 00.233.054c.013 0 .027-.006.04-.008z" fill="#F8A748"/><path d="M34.983 32.89c-2.433 0-4.836-.636-6.982-1.875l-7.024-4.056a1.535 1.535 0 111.535-2.659l7.024 4.056a10.885 10.885 0 007.886 1.189 1.535 1.535 0 01.683 2.993 14.03 14.03 0 01-3.122.353z" fill="#AAA211"/><path d="M36.51 20.592c.166.09.268.27.259.46a7.87 7.87 0 01-3.991 6.477 7.87 7.87 0 01-7.607.078.497.497 0 01-.26-.46 7.87 7.87 0 013.99-6.476 7.87 7.87 0 017.608-.08z" fill="#CABD2A"/><path d="M31.431 23.514a7.835 7.835 0 015.105-.918 7.913 7.913 0 00.233-1.544.497.497 0 00-.26-.46 7.87 7.87 0 00-7.607.078 7.87 7.87 0 00-3.991 6.477c-.01.19.092.37.26.46.781.42 1.629.7 2.502.84a7.849 7.849 0 013.758-4.933z" fill="#AAA211"/><path d="M30.81 39.366a.32.32 0 00.34-.003 5.07 5.07 0 002.33-4.314 5.07 5.07 0 00-2.408-4.27.32.32 0 00-.34.003 5.07 5.07 0 00-2.328 4.314 5.07 5.07 0 002.406 4.27z" fill="#CABD2A"/><path d="M30.942 35.096a5.05 5.05 0 011.248-3.376 5.1 5.1 0 00-1.118-.941.32.32 0 00-.34.003 5.07 5.07 0 00-2.329 4.314 5.07 5.07 0 002.407 4.27.32.32 0 00.34-.003c.404-.26.766-.578 1.08-.938a5.05 5.05 0 01-1.288-3.33z" fill="#AAA211"/><path d="M44.812 51.02c-.183 0-.37-.04-.546-.124l-.834-.398a1.269 1.269 0 111.094-2.29l.834.398a1.269 1.269 0 01-.548 2.414zM41.465 67a1.34 1.34 0 01-.262-2.65 1.34 1.34 0 011.6 1.313A1.34 1.34 0 0141.465 67zm4.379-11.355a1.27 1.27 0 111.269-1.269c0 .688-.559 1.27-1.269 1.27zm-6.738 1.867a1.27 1.27 0 01-.937-2.124l.623-.682a1.269 1.269 0 111.875 1.71l-.623.683c-.25.274-.593.413-.938.413z" fill="#FAC149"/><path d="M58.068 74.641a1.338 1.338 0 01-1.337-1.338V69.68a1.338 1.338 0 112.675 0v3.624c0 .74-.599 1.338-1.338 1.338z" fill="#AAA211"/><path d="M55.548 57.827a.397.397 0 00-.214-.364 6.289 6.289 0 00-6.077.174 6.288 6.288 0 00-3.094 5.233.397.397 0 00.215.364 6.288 6.288 0 006.077-.174 6.288 6.288 0 003.093-5.233z" fill="#CABD2A"/><path d="M50.925 59.703a6.265 6.265 0 014.483-.736c.08-.374.128-.756.14-1.14a.397.397 0 00-.214-.364 6.289 6.289 0 00-6.077.174 6.288 6.288 0 00-3.094 5.233.397.397 0 00.215.364 6.287 6.287 0 001.594.561 6.274 6.274 0 012.953-4.092z" fill="#AAA211"/><path d="M32.088 65.086a.229.229 0 01.124-.21 3.634 3.634 0 015.3 3.125.229.229 0 01-.125.21 3.634 3.634 0 01-5.299-3.125z" fill="#CABD2A"/><path d="M35.029 66.627a3.622 3.622 0 01-1.644-2.118 3.654 3.654 0 00-1.173.368.23.23 0 00-.124.21 3.634 3.634 0 005.3 3.124.23.23 0 00.123-.21 3.657 3.657 0 00-.144-.906 3.618 3.618 0 01-2.338-.468z" fill="#AAA211"/><path d="M42.72 83.64a41.086 41.086 0 0023.307-7.208 11.036 11.036 0 00-4.285-.41.606.606 0 01-.606-.345 6.512 6.512 0 00-7.886-3.37.604.604 0 01-.616-.146 8.98 8.98 0 00-6.327-2.648 8.98 8.98 0 00-6.357 2.575.604.604 0 01-.617.14 6.511 6.511 0 00-7.925 3.28.606.606 0 01-.61.336 11.017 11.017 0 00-8.317 2.5A41.089 41.089 0 0042.72 83.64z" fill="#BA6831"/><path d="M39.034 82.464a.604.604 0 00.339-.535 8.981 8.981 0 012.674-6.316 8.98 8.98 0 016.347-2.6c.227 0 .435-.13.538-.333a6.495 6.495 0 011.651-2.06 8.962 8.962 0 00-4.275-1.106 8.98 8.98 0 00-6.357 2.575.605.605 0 01-.618.14 6.511 6.511 0 00-7.924 3.28.606.606 0 01-.61.335 11.017 11.017 0 00-8.317 2.5 41.02 41.02 0 0015.23 4.994 6.46 6.46 0 011.322-.874z" fill="#A85822"/><path d="M75.767 17.62H62.713a2.186 2.186 0 000 4.37h7.433a2.186 2.186 0 010 4.372h-2.379a2.186 2.186 0 000 4.373h14.57a41.143 41.143 0 00-6.57-13.116zm-2.422 17.486h3.257a2.186 2.186 0 010 4.372h-3.257a2.186 2.186 0 010-4.372z" fill="#B8EBFF"/></g><defs><clipPath id="clip0_918_4344"><path fill="#fff" d="M0 0h84v84H0z"/></clipPath></defs></svg>