<svg width="84" height="84" viewBox="0 0 84 84" fill="none" xmlns="http://www.w3.org/2000/svg"><g clip-path="url(#clip0_918_4459)"><path d="M75.15 66.537a40.006 40.006 0 007.045-22.733C82.195 21.605 64.199 3.61 42 3.61c-22.2 0-40.195 17.996-40.195 40.195a40.007 40.007 0 007.05 22.742l66.296-.009z" fill="#1EA4E9"/><path d="M41.783 3.041c-9.329 0-16.919 7.59-16.919 16.919.022.325-.06.5.103.618a.834.834 0 01.347.674v.96c0 .87 1.03 1.307 1.166.882.346-1.074 1.302-1.164 1.703-1.158h.036c.33.002.65.101.924.287.134.092.324.03.375-.13a3.8 3.8 0 00.169-1.416c-.175-2.38-.046-6.562 2.786-7.836 2.527-1.138 5.072-.35 6.744-.029.946.275 2.502.937 4.686.211 2.053-.683 5.008-1.269 7.424-.182 2.826 1.272 2.96 5.443 2.787 7.817-.031.438.013.878.133 1.309a.248.248 0 00.351.154c.875-.45 2.142-.1 2.488.973a.248.248 0 00.279.168 1.07 1.07 0 00.887-1.051v-.959c0-.266.13-.518.347-.674.163-.118.081-.297.103-.618 0-9.33-7.59-16.919-16.919-16.919z" fill="#41416B"/><path d="M41.313 3.596a.456.456 0 00.156-.551c-9.184.168-16.605 7.69-16.605 16.915.022.324-.06.5.103.618a.834.834 0 01.347.674v.959c0 .87 1.03 1.308 1.166.883.346-1.074 1.302-1.165 1.703-1.158h.036c.33.002.65.1.924.287.134.092.324.03.375-.13a3.8 3.8 0 00.169-1.416c-.175-2.38-.046-6.562 2.786-7.836 2.5-1.127 5.018-.366 6.691-.04l.111-.23s-3.199-5.333 2.038-8.975z" fill="#35355E"/><path d="M8.741 66.381C15.974 77.015 28.171 84 42 84c13.833 0 26.033-6.989 33.265-17.627-.99-3.162-2.818-6.256-6.143-7.968v-.002c-.223-.107-.522-.264-1.04-.467-10.669-4.743-11.898-4.53-12.98-4.891a.423.423 0 01.084.11c-.038.32.167.268-.585 2.2-1.557 3.864-4.39 7.258-7.67 9.854a.969.969 0 01-1.143.044c-.566-.378-1.562 3.192-1.508 4.205.02.608.005-.115.01 8.145 0 .325-.27.59-.601.59H40.32a.596.596 0 01-.6-.59c.005-8.26-.01-7.538.01-8.145l-.001-.021c-.139-1.786-.997-4.525-1.508-4.184a.969.969 0 01-1.142-.044c-3.282-2.596-6.114-5.99-7.671-9.854-.752-1.932-.546-1.88-.585-2.2a.426.426 0 01.084-.11c-1.082.36-2.31.148-12.98 4.89-.518.204-.817.36-1.04.468v.002c-3.328 1.713-5.155 4.812-6.146 7.976z" fill="#FFDD40"/><path d="M28.823 53.156a.422.422 0 01.084-.111c-1.082.36-2.311.148-12.98 4.89-.518.204-.817.36-1.04.468v.002c-3.328 1.713-5.155 4.812-6.145 7.976a40.417 40.417 0 009.923 10.154l1.296-4.276a6.778 6.778 0 013.57-4.153l9.585-4.567V61.39c-1.543-1.823-2.829-3.855-3.708-6.036-.752-1.932-.547-1.88-.585-2.2z" fill="#FFC839"/><path d="M32.13 50.322l.18.985.005.023c.052.227.11.455.175.678l.01.033c.021.075.044.15.068.225l.014.045c.024.078.05.156.078.24l.009.026c.59 1.73 1.876 4.253 4.66 6.44a17.35 17.35 0 002.343 1.55c.375.207.648.522.79.91a.22.22 0 00.041.071c.428.481.836 1.01 1.214 1.572.082.12.282.12.363 0 .376-.56.786-1.09 1.217-1.574a.213.213 0 00.041-.07c.143-.388.415-.702.788-.909 5.986-3.31 7.274-8.191 7.547-10.28-.732-1.678-.966-3.752-1.02-5.344a18.708 18.708 0 01-2.7 2.58 9.871 9.871 0 01-6.053 2.07 9.873 9.873 0 01-6.055-2.07 18.714 18.714 0 01-2.698-2.58c-.055 1.592-.29 3.666-1.022 5.344l.005.035z" fill="#FCA870"/><path d="M35.846 47.523a18.714 18.714 0 01-2.699-2.58c-.055 1.592-.289 3.666-1.022 5.344l.005.035.179.985.005.023c.052.227.111.455.175.678l.01.034.068.224.014.045.078.24.01.026c.589 1.73 1.876 4.253 4.66 6.44.226.18.462.351.702.52 2.44-4.11 3.224-7.928 3.475-9.952a9.869 9.869 0 01-5.66-2.062z" fill="#F9955F"/><path d="M55.507 24.064a6.868 6.868 0 00-.612-1.233 3.555 3.555 0 01-.534-2.156c.177-2.438.03-6.727-2.932-8.06-2.489-1.12-5.51-.524-7.605.173a6.134 6.134 0 01-3.849 0c-2.096-.697-5.116-1.293-7.604-.173-1.275.573-3.35 2.386-2.932 8.08a3.52 3.52 0 01-.534 2.137 6.845 6.845 0 00-.598 1.193 8.236 8.236 0 00-.465 4.098l.695 5.054c0 8.37 5.064 13.206 7.241 14.897a10.025 10.025 0 006.122 2.093c2.209 0 4.383-.744 6.12-2.093 2.178-1.691 7.242-6.527 7.241-14.882l.696-5.068a8.238 8.238 0 00-.45-4.06z" fill="#F9BD91"/><path d="M41.625 48.074c-1.549-1.69-5.151-6.527-5.151-14.897l-.494-5.054c-.137-1.404-.023-2.821.33-4.098.121-.436.264-.837.426-1.193.284-.628.42-1.387.38-2.137-.297-5.694 1.179-7.507 2.085-8.08l.074-.044c-2.034-.588-4.681-.957-6.904.044-1.275.573-3.35 2.386-2.931 8.08a3.521 3.521 0 01-.535 2.137 6.832 6.832 0 00-.598 1.193 8.234 8.234 0 00-.465 4.098l.695 5.054c0 8.37 5.064 13.206 7.242 14.897a10.025 10.025 0 006.12 2.093c.807 0 1.608-.1 2.385-.291-.963-.333-1.873-.945-2.659-1.802z" fill="#FCA870"/><path d="M42.053 63.23c-1.193-1.844-2.369-2.812-2.369-2.812l-3.04 4.881c2.19 1.41 2.581 4.852 2.651 5.962a15.332 15.332 0 012.758-8.03z" fill="#FF9100"/><path d="M44.49 78.372v-6.76s.037-4.622 2.665-6.313l-3.04-4.881s-4.842 3.98-4.842 11.195v6.759h5.216z" fill="#FFB332"/><path d="M39.779 60.376c-6.061-3.352-7.23-8.343-7.454-10.255a.445.445 0 00-.706-.304l-4.103 3.008a.67.67 0 00-.258.7c1.633 6.498 6.88 11.242 9.193 13.071.59.466 1.448.33 1.867-.292l2.123-3.154c.645-.96.35-2.214-.662-2.774z" fill="#FFC839"/><path d="M37.464 58.846c-4.06-3.191-4.948-7.088-5.14-8.725a.445.445 0 00-.706-.304l-4.103 3.008a.67.67 0 00-.258.7c1.045 4.159 3.57 7.597 5.858 10.014 1.818-5.966 3.845-5.042 4.349-4.694z" fill="#FFB332"/><path d="M56.284 52.825l-4.103-3.008a.445.445 0 00-.706.304c-.225 1.911-1.393 6.902-7.454 10.255-1.013.56-1.308 1.814-.662 2.774l2.123 3.154a1.287 1.287 0 001.866.292c2.314-1.829 7.561-6.573 9.194-13.07a.67.67 0 00-.258-.701zM43.153 69.642a1.025 1.025 0 11-2.05 0 1.025 1.025 0 012.05 0zm-.228 5.083a1.025 1.025 0 11-2.05 0 1.025 1.025 0 012.05 0z" fill="#FFC839"/><path d="M39.272 78.144v1.914c0 .48.393.868.879.868h3.458c.486 0 .88-.388.88-.868v-1.914h-5.217z" fill="#FF9100"/><path d="M41.783 0c-10.83 0-19.61 8.78-19.61 19.61v2.331h2.939V19.96c0-9.207 7.464-16.671 16.67-16.671 9.208 0 16.672 7.464 16.672 16.671v1.982h2.939V19.61C61.393 8.78 52.613 0 41.783 0z" fill="#E3E7FC"/><path d="M22.173 19.61v2.331h2.939V19.96c0-9.112 7.311-16.516 16.388-16.667a.47.47 0 00-.104-.373c-.443-.528-.947-1.585.387-2.919-10.83 0-19.61 8.78-19.61 19.61zm38.452.563h-1.542c-.596 0-1.079.483-1.079 1.079v.959a.826.826 0 01-.908.817h-.009c.06.18.093.373.093.572v12.855c0 .199-.032.39-.093.572a7.654 7.654 0 002.909-.858 3.22 3.22 0 001.708-2.847v-12.07a1.08 1.08 0 00-1.079-1.08z" fill="#C8CEFC"/><path d="M59.996 28.172a7.65 7.65 0 01-2.815.846v7.437c0 .199-.033.39-.093.572a7.652 7.652 0 002.909-.857 3.22 3.22 0 001.708-2.848v-7.998a3.22 3.22 0 01-1.709 2.848z" fill="#B8C0F4"/><path d="M55.502 38.365h-.149c-1.05 0-1.91-.86-1.91-1.91V23.598c0-1.05.86-1.91 1.91-1.91h.15c1.05 0 1.91.86 1.91 1.91v12.855c0 1.051-.86 1.91-1.91 1.91z" fill="#E3E7FC"/><path d="M22.94 20.173h1.541c.596 0 1.08.483 1.08 1.079v.959c0 .488.421.861.907.817h.01a1.81 1.81 0 00-.093.572v12.855c0 .199.032.39.093.572a7.654 7.654 0 01-2.909-.858 3.22 3.22 0 01-1.709-2.847v-12.07c0-.596.483-1.08 1.08-1.08z" fill="#B8C0F4"/><path d="M26.384 28.854a7.649 7.649 0 01-2.815-.846 3.22 3.22 0 01-1.709-2.848v8.162c0 1.192.656 2.29 1.71 2.848.875.463 1.86.763 2.908.857a1.808 1.808 0 01-.093-.572v-7.601z" fill="#A4B0EA"/><path d="M28.063 38.365h.15c1.05 0 1.91-.86 1.91-1.91V23.598c0-1.05-.86-1.91-1.91-1.91h-.15c-1.05 0-1.91.86-1.91 1.91v12.855c0 1.051.86 1.91 1.91 1.91z" fill="#E3E7FC"/><path d="M55.502 30.251h-.149c-1.05 0-1.91-.86-1.91-1.91v8.114c0 1.05.86 1.91 1.91 1.91h.15c1.05 0 1.91-.86 1.91-1.91V28.34c0 1.05-.86 1.91-1.91 1.91zm-27.29 0h-.149c-1.05 0-1.91-.86-1.91-1.91v8.114c0 1.05.86 1.91 1.91 1.91h.15c1.05 0 1.91-.86 1.91-1.91V28.34c0 1.05-.86 1.91-1.91 1.91z" fill="#C8CEFC"/><path d="M48.936 50.53a1.236 1.236 0 01.819-1.545c2.47-.76 4.686-1.709 6.11-2.372a2.106 2.106 0 001.111-1.259l1.95-6.037c.382-1.18-.32-1.979-.466-2.392a1.238 1.238 0 012.22-1.094c.112.352 1.339 1.964.601 4.247l-1.95 6.037a4.589 4.589 0 01-2.422 2.741c-1.495.696-3.823 1.694-6.427 2.494a1.237 1.237 0 01-1.546-.82z" fill="#E3E7FC"/><path d="M43.14 53.629a2.227 2.227 0 110-4.454c1.407 0 3.078-.252 4.968-.75a2.226 2.226 0 111.133 4.308c-2.26.594-4.312.896-6.1.896z" fill="#FF4155"/><path d="M45.387 50.69c0-.722.306-1.371.793-1.83-1.114.208-2.133.314-3.04.314a2.227 2.227 0 100 4.455c1.294 0 2.729-.16 4.278-.473a2.514 2.514 0 01-2.03-2.466z" fill="#E80054"/><path d="M69.327 3.04H58.018c-6.027 0-10.958 4.93-10.958 10.957 0 6.028 4.931 10.959 10.958 10.959h7.707c.366 0 .662.297.662.663v3.843c0 .434.472.706.847.487 2.116-1.233 3.164-2.95 3.682-4.395.161-.45.53-.795.994-.909 4.792-1.169 8.376-5.51 8.376-10.648 0-6.027-4.932-10.958-10.959-10.958z" fill="#ACD728"/><path d="M47.06 13.998c0 6.027 4.931 10.958 10.958 10.958h3.506c-4.39-4.304-.313-9.6-.313-9.6l-.816-2.7c-4.192-4.92 0-9.612 0-9.612l-.008-.005h-2.369c-6.027 0-10.958 4.931-10.958 10.958z" fill="#ACD728"/><path d="M55.975 14.13a1.474 1.474 0 11-2.947 0 1.474 1.474 0 012.947 0zm5.895 0a1.474 1.474 0 11-2.948 0 1.474 1.474 0 012.947 0zm5.894 0a1.474 1.474 0 11-2.947 0 1.474 1.474 0 012.947 0zm5.894 0a1.474 1.474 0 11-2.947 0 1.474 1.474 0 012.947 0z" fill="#fff"/></g><defs><clipPath id="clip0_918_4459"><path fill="#fff" d="M0 0h84v84H0z"/></clipPath></defs></svg>