<svg width="32" height="36" viewBox="0 0 32 36" fill="none" xmlns="http://www.w3.org/2000/svg"><path d="M19.52.4h-7.04C5.687.4.16 5.927.16 12.72V18c0 4.774 2.75 9.1 7.04 11.137v5.883c0 .51.638.774.999.413l5.113-5.108h6.208c6.794 0 12.32-5.527 12.32-12.325v-5.28C31.84 5.927 26.314.4 19.52.4zm4.611 23.092l-1.782 1.742c-1.874 1.835-6.767-.26-11.079-4.664-4.312-4.408-6.204-9.345-4.422-11.18L8.63 7.648c.656-.643 1.769-.63 2.504.026l2.57 2.627c.915.937.527 2.508-.683 2.869-.836.268-1.403 1.188-1.135 2.024.445 1.953 2.922 4.395 4.77 4.88.831.193 1.764-.26 2.055-1.092.382-1.201 1.962-1.558 2.882-.616l2.565 2.622c.642.656.633 1.77-.027 2.504zM17.601 8.76c-.175 0-.351.01-.523.031a.587.587 0 01-.127-1.166 5.872 5.872 0 016.481 6.481.593.593 0 01-.647.52.593.593 0 01-.52-.647c.018-.172.032-.348.032-.524a4.702 4.702 0 00-4.695-4.695zm3.52 4.695a.592.592 0 01-.589.585.59.59 0 01-.585-.585 2.347 2.347 0 00-2.345-2.345.59.59 0 01-.59-.59.59.59 0 01.59-.585c1.94 0 3.52 1.58 3.52 3.52zm4.476 1.897a.598.598 0 01-.726.43.596.596 0 01-.418-.703 6.948 6.948 0 00.189-1.624c0-3.88-3.16-7.04-7.04-7.04-.18 0-.365.005-.546.022a.587.587 0 01-.088-1.17c.211-.018.423-.027.634-.027 4.527 0 8.215 3.688 8.215 8.215 0 .638-.075 1.276-.22 1.897z" fill="#665CAC"/></svg>