<svg width="27" height="27" viewBox="0 0 27 27" fill="none" xmlns="http://www.w3.org/2000/svg">
<path d="M25.8525 5.84467C25.1201 4.5773 24.3253 4.34418 22.707 4.25553C21.0904 4.14882 17.0252 4.10449 13.5034 4.10449C9.97481 4.10449 5.90794 4.14882 4.293 4.25389C2.67806 4.34418 1.88156 4.57565 1.14244 5.84467C0.388125 7.11041 0 9.29056 0 13.1288C0 13.1321 0 13.1337 0 13.1337C0 13.137 0 13.1387 0 13.1387V13.1419C0 16.9638 0.388125 19.1603 1.14244 20.4129C1.88156 21.6803 2.67637 21.9101 4.29131 22.0169C5.90794 22.1088 9.97481 22.163 13.5034 22.163C17.0252 22.163 21.0904 22.1088 22.7087 22.0185C24.327 21.9118 25.1218 21.682 25.8542 20.4146C26.6152 19.162 27 16.9654 27 13.1436C27 13.1436 27 13.1387 27 13.1354C27 13.1354 27 13.1321 27 13.1304C27 9.29056 26.6152 7.11041 25.8525 5.84467ZM10.125 18.0588V8.20869L18.5625 13.1337L10.125 18.0588Z" fill="#FDFDFD"/>
</svg>
