<?xml version="1.0" encoding="UTF-8"?>
<svg xmlns="http://www.w3.org/2000/svg" width="84" height="84" viewBox="0 0 84 84" fill="none">
  <g clip-path="url(#clip0_2192_17135)">
    <path d="M83.6762 42.3244C83.6762 59.1728 73.6804 73.6841 59.2937 80.2529C54.0265 82.6587 48.1699 83.9999 42.0007 83.9999C33.4038 83.9999 25.4161 81.397 18.7806 76.9359C7.64765 69.4561 0.323242 56.7452 0.323242 42.3244C0.323242 19.3068 18.9829 0.648926 42.0005 0.648926C65.0165 0.648762 83.6762 19.3066 83.6762 42.3244Z" fill="#ACD728"></path>
    <mask id="mask0_2192_17135" style="mask-type:alpha" maskUnits="userSpaceOnUse" x="0" y="0" width="84" height="84">
      <path d="M83.6762 42.3244C83.6762 59.1728 73.6804 73.6841 59.2937 80.2529C54.0265 82.6587 48.1699 83.9999 42.0007 83.9999C33.4038 83.9999 25.4161 81.397 18.7806 76.9359C7.64765 69.4561 0.323242 56.7452 0.323242 42.3244C0.323242 19.3068 18.9829 0.648926 42.0005 0.648926C65.0165 0.648762 83.6762 19.3066 83.6762 42.3244Z" fill="#55C6A1"></path>
    </mask>
    <g mask="url(#mask0_2192_17135)">
      <path d="M69.6904 13.5945L64.2537 8.15778L61.5354 10.8761L66.9721 16.3128L69.6904 13.5945Z" fill="#463C4B"></path>
      <path d="M54.734 31.2657L46.5778 23.1095L59.2103 10.477C59.7411 9.94615 60.6019 9.94615 61.1328 10.477L67.3665 16.7107C67.8974 17.2416 67.8974 18.1024 67.3665 18.6332L54.734 31.2657Z" fill="#555A6E"></path>
      <path d="M54.734 31.2656L50.6559 27.1875L64.2496 13.5938L67.3665 16.7106C67.8974 17.2415 67.8974 18.1023 67.3665 18.6331L54.734 31.2656Z" fill="#463C4B"></path>
      <path d="M39.7812 62.5312H20.75V76.125H39.7812V62.5312Z" fill="#555A6E"></path>
      <path d="M39.7812 62.5312H20.75V67.9688H39.7812V62.5312Z" fill="#463C4B"></path>
      <path d="M53.375 38.0625H47.9375V48.9375H53.375V38.0625Z" fill="#23AAE6"></path>
      <path d="M47.9375 46.2188H53.375C56.378 46.2188 58.8125 43.7843 58.8125 40.7812V24.4688C58.8125 21.4657 56.378 19.0312 53.375 19.0312H47.9375C44.9345 19.0312 42.5 21.4657 42.5 24.4688V40.7812C42.5 43.7843 44.9345 46.2188 47.9375 46.2188Z" fill="#D7E6F0"></path>
      <path d="M47.9375 24.4688V27.1875H42.5V24.4688C42.5 21.4657 44.9345 19.0312 47.9375 19.0312H53.375C50.372 19.0312 47.9375 21.4657 47.9375 24.4688Z" fill="#A5C3DC"></path>
      <path d="M20.75 57.0938H31.625V48.9375C31.625 42.941 36.5035 38.0625 42.5 38.0625H58.8125V27.1875H42.5C30.5069 27.1875 20.75 36.9444 20.75 48.9375V57.0938Z" fill="#555A6E"></path>
      <path d="M68.3281 84.2812H11.2344C10.4837 84.2812 9.875 83.6726 9.875 82.9219V81.5625C9.875 78.5595 12.3095 76.125 15.3125 76.125H64.25C67.253 76.125 69.6875 78.5595 69.6875 81.5625V82.9219C69.6875 83.6726 69.0788 84.2812 68.3281 84.2812Z" fill="#463C4B"></path>
      <path d="M61.5312 57.0938H31.625V62.5312H61.5312C63.0328 62.5312 64.25 61.3141 64.25 59.8125C64.25 58.3109 63.0328 57.0938 61.5312 57.0938Z" fill="#555A6E"></path>
      <path d="M45.2188 67.9688H56.0938C57.5953 67.9688 58.8125 69.1859 58.8125 70.6875V76.125H42.5V70.6875C42.5 69.1859 43.7172 67.9688 45.2188 67.9688Z" fill="#D7E6F0"></path>
      <path d="M18.0312 59.8125C18.0312 58.6547 18.6362 57.6402 19.5453 57.0613C19.3118 56.009 19.6013 54.8639 20.4202 54.0452C21.2389 53.2265 22.3838 52.937 23.4363 53.1703C24.0152 52.2612 25.0297 51.6562 26.1875 51.6562C27.3453 51.6562 28.3598 52.2612 28.9387 53.1703C29.991 52.9368 31.136 53.2263 31.9548 54.045C32.7735 54.8637 33.0632 56.0088 32.8297 57.0611C33.7388 57.6402 34.3438 58.6547 34.3438 59.8125C34.3438 60.9703 33.7388 61.9848 32.8297 62.5637C33.0632 63.616 32.7737 64.7611 31.9548 65.5798C31.1361 66.3985 29.9912 66.6882 28.9387 66.4546C28.3596 67.3638 27.3452 67.9686 26.1875 67.9686C25.0298 67.9686 24.0152 67.3637 23.4363 66.4546C22.384 66.688 21.239 66.3985 20.4202 65.5796C19.6015 64.761 19.3118 63.616 19.5453 62.5635C18.6362 61.9848 18.0312 60.9703 18.0312 59.8125Z" fill="#23AAE6"></path>
      <path d="M26.1873 64.7064C23.4846 64.7064 21.2936 62.5154 21.2936 59.8127C21.2936 57.1099 23.4846 54.9189 26.1873 54.9189C28.8901 54.9189 31.0811 57.1099 31.0811 59.8127C31.0811 62.5154 28.8901 64.7064 26.1873 64.7064Z" fill="#5AD7FF"></path>
      <path d="M27.5469 59.8125C26.7961 59.8125 26.1875 59.2039 26.1875 58.4531C26.1875 57.7024 26.7961 57.0938 27.5469 57.0938C28.2976 57.0938 28.9062 57.7024 28.9062 58.4531C28.9062 59.2039 28.2976 59.8125 27.5469 59.8125Z" fill="#AFFAFF"></path>
      <path d="M50.6562 76.125H42.5V70.6875H47.9375C49.4391 70.6875 50.6562 71.9047 50.6562 73.4062V76.125Z" fill="#A5C3DC"></path>
      <path d="M37.0625 76.125H64.25C67.253 76.125 69.6875 78.5595 69.6875 81.5625V82.9219C69.6875 83.6726 69.0788 84.2812 68.3281 84.2812H32.9844C32.2337 84.2812 31.625 83.6726 31.625 82.9219V81.5625C31.625 78.5595 34.0595 76.125 37.0625 76.125Z" fill="#555A6E"></path>
      <path d="M58.8125 38.0625V27.1875C60.3141 27.1875 61.5312 28.4047 61.5312 29.9062V35.3438C61.5312 36.8453 60.3141 38.0625 58.8125 38.0625Z" fill="#555A6E"></path>
      <path d="M47.9375 51.6562H53.375C54.1257 51.6562 54.7344 51.0476 54.7344 50.2969C54.7344 49.5462 54.1257 48.9375 53.375 48.9375H47.9375C47.1868 48.9375 46.5781 49.5462 46.5781 50.2969C46.5781 51.0476 47.1868 51.6562 47.9375 51.6562Z" fill="#5AD7FF"></path>
      <path d="M58.8125 38.0625H42.5V40.7812H58.8125V38.0625Z" fill="#A5C3DC"></path>
      <path d="M63.8515 7.75823L70.0853 13.992C70.6161 14.5228 71.4769 14.5228 72.0078 13.992L72.804 13.1957C73.3349 12.6649 73.3349 11.8041 72.804 11.2732L66.5703 5.03948C66.0394 4.50865 65.1786 4.50865 64.6478 5.03948L63.8515 5.83574C63.3207 6.36657 63.3207 7.2274 63.8515 7.75823Z" fill="#D7E6F0"></path>
      <path d="M66.9684 10.875L70.0853 13.9919C70.6161 14.5227 71.4769 14.5227 72.0078 13.9919L72.804 13.1956C73.3349 12.6648 73.3349 11.804 72.804 11.2731L69.6871 8.15625L66.9684 10.875Z" fill="#A5C3DC"></path>
      <path d="M55.1875 25.375C55.9382 25.375 56.5469 24.7663 56.5469 24.0156V22.6562C56.5469 21.9055 55.9382 21.2969 55.1875 21.2969C54.4368 21.2969 53.8281 21.9055 53.8281 22.6562V24.0156C53.8281 24.7665 54.4366 25.375 55.1875 25.375Z" fill="white"></path>
      <path d="M55.1875 74.3125C55.9382 74.3125 56.5469 73.7038 56.5469 72.9531V71.5938C56.5469 70.843 55.9382 70.2344 55.1875 70.2344C54.4368 70.2344 53.8281 70.843 53.8281 71.5938V72.9531C53.8281 73.704 54.4366 74.3125 55.1875 74.3125Z" fill="white"></path>
      <path d="M24.8281 43.5C13.5667 43.5 4.4375 34.3708 4.4375 23.1094C4.4375 11.8479 13.5667 2.71875 24.8281 2.71875C36.0896 2.71875 45.2188 11.8479 45.2188 23.1094C45.2188 34.3708 36.0896 43.5 24.8281 43.5Z" fill="#FFD205"></path>
      <path d="M18.0312 31.2656C15.779 31.2656 13.9531 29.4398 13.9531 27.1875C13.9531 24.9352 15.779 23.1094 18.0312 23.1094C20.2835 23.1094 22.1094 24.9352 22.1094 27.1875C22.1094 29.4398 20.2835 31.2656 18.0312 31.2656Z" fill="#FAA019"></path>
      <path d="M8.51562 25.8281H12.7659C12.8945 25.3299 13.0932 24.8599 13.3491 24.4276L10.3416 21.4202C9.8106 20.8893 9.8106 20.0287 10.3416 19.4979C10.8724 18.967 11.7331 18.967 12.2639 19.4979L15.2714 22.5053C15.7038 22.2496 16.1738 22.0509 16.6719 21.9221V17.6719C16.6719 16.9212 17.2805 16.3125 18.0312 16.3125C18.782 16.3125 19.3906 16.9212 19.3906 17.6719V21.9221C19.8887 22.0508 20.3588 22.2494 20.7911 22.5053L23.7986 19.4979C24.3294 18.967 25.1901 18.967 25.7209 19.4979C26.2519 20.0287 26.2519 20.8893 25.7209 21.4202L22.7134 24.4276C22.9693 24.8599 23.168 25.3301 23.2966 25.8281H27.5469C28.2976 25.8281 28.9062 26.4368 28.9062 27.1875C28.9062 27.9382 28.2976 28.5469 27.5469 28.5469H23.2966C23.168 29.0451 22.9693 29.5151 22.7134 29.9474L25.7209 32.9548C26.2519 33.4857 26.2519 34.3463 25.7209 34.8771C25.4555 35.1426 25.1076 35.2753 24.7596 35.2753C24.4116 35.2753 24.0638 35.1426 23.7984 34.8771L20.791 31.8697C20.3585 32.1254 19.8885 32.3241 19.3905 32.4529V36.7031C19.3905 37.4538 18.7818 38.0625 18.0311 38.0625C17.2804 38.0625 16.6717 37.4538 16.6717 36.7031V32.4529C16.1737 32.3242 15.7035 32.1256 15.2712 31.8697L12.2638 34.8771C11.9983 35.1426 11.6505 35.2753 11.3025 35.2753C10.9545 35.2753 10.6067 35.1426 10.3413 34.8771C9.81026 34.3463 9.81026 33.4857 10.3413 32.9548L13.3487 29.9474C13.0928 29.5151 12.8942 29.0449 12.7655 28.5469H8.51562C7.76491 28.5469 7.15625 27.9382 7.15625 27.1875C7.15625 26.4368 7.76491 25.8281 8.51562 25.8281ZM18.0312 29.9062C19.5303 29.9062 20.75 28.6866 20.75 27.1875C20.75 25.6884 19.5303 24.4688 18.0312 24.4688C16.5322 24.4688 15.3125 25.6884 15.3125 27.1875C15.3125 28.6866 16.5322 29.9062 18.0312 29.9062Z" fill="#98B82D"></path>
      <path d="M32.9844 31.2656C32.9844 32.0163 33.593 32.625 34.3438 32.625H37.0625C37.8132 32.625 38.4219 32.0163 38.4219 31.2656C38.4219 30.5149 37.8132 29.9062 37.0625 29.9062H34.3438C33.593 29.9062 32.9844 30.5149 32.9844 31.2656Z" fill="#98B82D"></path>
      <path d="M15.3125 12.2344C15.3125 12.9851 15.9212 13.5938 16.6719 13.5938H19.3906C20.1413 13.5938 20.75 12.9851 20.75 12.2344C20.75 11.4837 20.1413 10.875 19.3906 10.875H16.6719C15.9212 10.875 15.3125 11.4837 15.3125 12.2344Z" fill="#98B82D"></path>
      <path d="M32.6406 19.3746C33.2018 18.8133 33.2018 17.9034 32.6406 17.3421L30.5949 15.2964C30.0336 14.7352 29.1237 14.7352 28.5625 15.2964C28.0012 15.8577 28.0012 16.7676 28.5625 17.3289L30.6083 19.3746C31.1696 19.9356 32.0793 19.9356 32.6406 19.3746Z" fill="#98B82D"></path>
      <path d="M32.9844 10.875C32.2336 10.875 31.625 10.2664 31.625 9.51562C31.625 8.76486 32.2336 8.15625 32.9844 8.15625C33.7351 8.15625 34.3438 8.76486 34.3438 9.51562C34.3438 10.2664 33.7351 10.875 32.9844 10.875Z" fill="#FAA019"></path>
      <path d="M27.5469 40.7812C26.7961 40.7812 26.1875 40.1726 26.1875 39.4219C26.1875 38.6711 26.7961 38.0625 27.5469 38.0625C28.2976 38.0625 28.9062 38.6711 28.9062 39.4219C28.9062 40.1726 28.2976 40.7812 27.5469 40.7812Z" fill="#FAA019"></path>
      <path d="M38.4219 24.4688C37.6711 24.4688 37.0625 23.8601 37.0625 23.1094C37.0625 22.3586 37.6711 21.75 38.4219 21.75C39.1726 21.75 39.7812 22.3586 39.7812 23.1094C39.7812 23.8601 39.1726 24.4688 38.4219 24.4688Z" fill="#FAA019"></path>
    </g>
    <g clip-path="url(#clip1_2192_17135)">
      <path d="M69.6904 13.5945L64.2537 8.15778L61.5354 10.8761L66.9721 16.3128L69.6904 13.5945Z" fill="#463C4B"></path>
      <path d="M54.734 31.2657L46.5778 23.1095L59.2103 10.477C59.7411 9.94615 60.6019 9.94615 61.1328 10.477L67.3665 16.7107C67.8974 17.2416 67.8974 18.1024 67.3665 18.6332L54.734 31.2657Z" fill="#555A6E"></path>
      <path d="M54.734 31.2656L50.6559 27.1875L64.2496 13.5938L67.3665 16.7106C67.8974 17.2415 67.8974 18.1023 67.3665 18.6331L54.734 31.2656Z" fill="#463C4B"></path>
      <path d="M39.7812 62.5312H20.75V76.125H39.7812V62.5312Z" fill="#555A6E"></path>
      <path d="M39.7812 62.5312H20.75V67.9688H39.7812V62.5312Z" fill="#463C4B"></path>
      <path d="M53.375 38.0625H47.9375V48.9375H53.375V38.0625Z" fill="#23AAE6"></path>
      <path d="M47.9375 46.2188H53.375C56.378 46.2188 58.8125 43.7843 58.8125 40.7812V24.4688C58.8125 21.4657 56.378 19.0312 53.375 19.0312H47.9375C44.9345 19.0312 42.5 21.4657 42.5 24.4688V40.7812C42.5 43.7843 44.9345 46.2188 47.9375 46.2188Z" fill="#D7E6F0"></path>
      <path d="M47.9375 24.4688V27.1875H42.5V24.4688C42.5 21.4657 44.9345 19.0312 47.9375 19.0312H53.375C50.372 19.0312 47.9375 21.4657 47.9375 24.4688Z" fill="#A5C3DC"></path>
      <path d="M20.75 57.0938H31.625V48.9375C31.625 42.941 36.5035 38.0625 42.5 38.0625H58.8125V27.1875H42.5C30.5069 27.1875 20.75 36.9444 20.75 48.9375V57.0938Z" fill="#555A6E"></path>
      <path d="M61.5312 57.0938H31.625V62.5312H61.5312C63.0328 62.5312 64.25 61.3141 64.25 59.8125C64.25 58.3109 63.0328 57.0938 61.5312 57.0938Z" fill="#555A6E"></path>
      <path d="M18.0312 59.8125C18.0312 58.6547 18.6362 57.6402 19.5453 57.0613C19.3118 56.009 19.6013 54.8639 20.4202 54.0452C21.2389 53.2265 22.3838 52.937 23.4363 53.1703C24.0152 52.2612 25.0297 51.6562 26.1875 51.6562C27.3453 51.6562 28.3598 52.2612 28.9387 53.1703C29.991 52.9368 31.136 53.2263 31.9548 54.045C32.7735 54.8637 33.0632 56.0088 32.8297 57.0611C33.7388 57.6402 34.3438 58.6547 34.3438 59.8125C34.3438 60.9703 33.7388 61.9848 32.8297 62.5637C33.0632 63.616 32.7737 64.7611 31.9548 65.5798C31.1361 66.3985 29.9912 66.6882 28.9387 66.4546C28.3596 67.3638 27.3452 67.9686 26.1875 67.9686C25.0298 67.9686 24.0152 67.3637 23.4363 66.4546C22.384 66.688 21.239 66.3985 20.4202 65.5796C19.6015 64.761 19.3118 63.616 19.5453 62.5635C18.6362 61.9848 18.0312 60.9703 18.0312 59.8125Z" fill="#23AAE6"></path>
      <path d="M26.1873 64.7064C23.4846 64.7064 21.2936 62.5154 21.2936 59.8127C21.2936 57.1099 23.4846 54.9189 26.1873 54.9189C28.8901 54.9189 31.0811 57.1099 31.0811 59.8127C31.0811 62.5154 28.8901 64.7064 26.1873 64.7064Z" fill="#5AD7FF"></path>
      <path d="M27.5469 59.8125C26.7961 59.8125 26.1875 59.2039 26.1875 58.4531C26.1875 57.7024 26.7961 57.0938 27.5469 57.0938C28.2976 57.0938 28.9062 57.7024 28.9062 58.4531C28.9062 59.2039 28.2976 59.8125 27.5469 59.8125Z" fill="#AFFAFF"></path>
      <path d="M58.8125 38.0625V27.1875C60.3141 27.1875 61.5312 28.4047 61.5312 29.9062V35.3438C61.5312 36.8453 60.3141 38.0625 58.8125 38.0625Z" fill="#555A6E"></path>
      <path d="M47.9375 51.6562H53.375C54.1257 51.6562 54.7344 51.0476 54.7344 50.2969C54.7344 49.5462 54.1257 48.9375 53.375 48.9375H47.9375C47.1868 48.9375 46.5781 49.5462 46.5781 50.2969C46.5781 51.0476 47.1868 51.6562 47.9375 51.6562Z" fill="#5AD7FF"></path>
      <path d="M58.8125 38.0625H42.5V40.7812H58.8125V38.0625Z" fill="#A5C3DC"></path>
      <path d="M63.8515 7.75823L70.0853 13.992C70.6161 14.5228 71.4769 14.5228 72.0078 13.992L72.804 13.1957C73.3349 12.6649 73.3349 11.8041 72.804 11.2732L66.5703 5.03948C66.0394 4.50865 65.1786 4.50865 64.6478 5.03948L63.8515 5.83574C63.3207 6.36657 63.3207 7.2274 63.8515 7.75823Z" fill="#D7E6F0"></path>
      <path d="M66.9684 10.875L70.0853 13.9919C70.6161 14.5227 71.4769 14.5227 72.0078 13.9919L72.804 13.1956C73.3349 12.6648 73.3349 11.804 72.804 11.2731L69.6871 8.15625L66.9684 10.875Z" fill="#A5C3DC"></path>
      <path d="M55.1875 25.375C55.9382 25.375 56.5469 24.7663 56.5469 24.0156V22.6562C56.5469 21.9055 55.9382 21.2969 55.1875 21.2969C54.4368 21.2969 53.8281 21.9055 53.8281 22.6562V24.0156C53.8281 24.7665 54.4366 25.375 55.1875 25.375Z" fill="white"></path>
      <path d="M24.8281 43.5C13.5667 43.5 4.4375 34.3708 4.4375 23.1094C4.4375 11.8479 13.5667 2.71875 24.8281 2.71875C36.0896 2.71875 45.2188 11.8479 45.2188 23.1094C45.2188 34.3708 36.0896 43.5 24.8281 43.5Z" fill="#FFD205"></path>
      <path d="M18.0312 31.2656C15.779 31.2656 13.9531 29.4398 13.9531 27.1875C13.9531 24.9352 15.779 23.1094 18.0312 23.1094C20.2835 23.1094 22.1094 24.9352 22.1094 27.1875C22.1094 29.4398 20.2835 31.2656 18.0312 31.2656Z" fill="#FAA019"></path>
      <path d="M8.51562 25.8281H12.7659C12.8945 25.3299 13.0932 24.8599 13.3491 24.4276L10.3416 21.4202C9.8106 20.8893 9.8106 20.0287 10.3416 19.4979C10.8724 18.967 11.7331 18.967 12.2639 19.4979L15.2714 22.5053C15.7038 22.2496 16.1738 22.0509 16.6719 21.9221V17.6719C16.6719 16.9212 17.2805 16.3125 18.0312 16.3125C18.782 16.3125 19.3906 16.9212 19.3906 17.6719V21.9221C19.8887 22.0508 20.3588 22.2494 20.7911 22.5053L23.7986 19.4979C24.3294 18.967 25.1901 18.967 25.7209 19.4979C26.2519 20.0287 26.2519 20.8893 25.7209 21.4202L22.7134 24.4276C22.9693 24.8599 23.168 25.3301 23.2966 25.8281H27.5469C28.2976 25.8281 28.9062 26.4368 28.9062 27.1875C28.9062 27.9382 28.2976 28.5469 27.5469 28.5469H23.2966C23.168 29.0451 22.9693 29.5151 22.7134 29.9474L25.7209 32.9548C26.2519 33.4857 26.2519 34.3463 25.7209 34.8771C25.4555 35.1426 25.1076 35.2753 24.7596 35.2753C24.4116 35.2753 24.0638 35.1426 23.7984 34.8771L20.791 31.8697C20.3585 32.1254 19.8885 32.3241 19.3905 32.4529V36.7031C19.3905 37.4538 18.7818 38.0625 18.0311 38.0625C17.2804 38.0625 16.6717 37.4538 16.6717 36.7031V32.4529C16.1737 32.3242 15.7035 32.1256 15.2712 31.8697L12.2638 34.8771C11.9983 35.1426 11.6505 35.2753 11.3025 35.2753C10.9545 35.2753 10.6067 35.1426 10.3413 34.8771C9.81026 34.3463 9.81026 33.4857 10.3413 32.9548L13.3487 29.9474C13.0928 29.5151 12.8942 29.0449 12.7655 28.5469H8.51562C7.76491 28.5469 7.15625 27.9382 7.15625 27.1875C7.15625 26.4368 7.76491 25.8281 8.51562 25.8281ZM18.0312 29.9062C19.5303 29.9062 20.75 28.6866 20.75 27.1875C20.75 25.6884 19.5303 24.4688 18.0312 24.4688C16.5322 24.4688 15.3125 25.6884 15.3125 27.1875C15.3125 28.6866 16.5322 29.9062 18.0312 29.9062Z" fill="#5FAA46"></path>
      <path d="M32.9844 31.2656C32.9844 32.0163 33.593 32.625 34.3438 32.625H37.0625C37.8132 32.625 38.4219 32.0163 38.4219 31.2656C38.4219 30.5149 37.8132 29.9062 37.0625 29.9062H34.3438C33.593 29.9062 32.9844 30.5149 32.9844 31.2656Z" fill="#5FAA46"></path>
      <path d="M15.3125 12.2344C15.3125 12.9851 15.9212 13.5938 16.6719 13.5938H19.3906C20.1413 13.5938 20.75 12.9851 20.75 12.2344C20.75 11.4837 20.1413 10.875 19.3906 10.875H16.6719C15.9212 10.875 15.3125 11.4837 15.3125 12.2344Z" fill="#5FAA46"></path>
      <path d="M32.6406 19.3746C33.2018 18.8133 33.2018 17.9034 32.6406 17.3421L30.5949 15.2964C30.0336 14.7352 29.1237 14.7352 28.5625 15.2964C28.0012 15.8577 28.0012 16.7676 28.5625 17.3289L30.6083 19.3746C31.1696 19.9356 32.0793 19.9356 32.6406 19.3746Z" fill="#5FAA46"></path>
      <path d="M32.9844 10.875C32.2336 10.875 31.625 10.2664 31.625 9.51562C31.625 8.76486 32.2336 8.15625 32.9844 8.15625C33.7351 8.15625 34.3438 8.76486 34.3438 9.51562C34.3438 10.2664 33.7351 10.875 32.9844 10.875Z" fill="#FAA019"></path>
      <path d="M27.5469 40.7812C26.7961 40.7812 26.1875 40.1726 26.1875 39.4219C26.1875 38.6711 26.7961 38.0625 27.5469 38.0625C28.2976 38.0625 28.9062 38.6711 28.9062 39.4219C28.9062 40.1726 28.2976 40.7812 27.5469 40.7812Z" fill="#FAA019"></path>
      <path d="M38.4219 24.4688C37.6711 24.4688 37.0625 23.8601 37.0625 23.1094C37.0625 22.3586 37.6711 21.75 38.4219 21.75C39.1726 21.75 39.7812 22.3586 39.7812 23.1094C39.7812 23.8601 39.1726 24.4688 38.4219 24.4688Z" fill="#FAA019"></path>
    </g>
  </g>
  <defs>
    <clipPath id="clip0_2192_17135">
      <rect width="84" height="84" fill="white"></rect>
    </clipPath>
    <clipPath id="clip1_2192_17135">
      <rect width="69" height="63" fill="white" transform="matrix(-1 0 0 1 73 2)"></rect>
    </clipPath>
  </defs>
</svg>
