<?xml version="1.0" encoding="UTF-8"?>
<svg xmlns="http://www.w3.org/2000/svg" width="84" height="84" viewBox="0 0 84 84" fill="none">
  <g clip-path="url(#clip0_2192_16660)">
    <path d="M41.9996 84.0001C64.6446 84.0001 83.0021 65.6427 83.0021 42.9976C83.0021 20.3526 64.6446 1.99512 41.9996 1.99512C19.3545 1.99512 0.99707 20.3526 0.99707 42.9976C0.99707 65.6427 19.3545 84.0001 41.9996 84.0001Z" fill="#319DF5"></path>
    <path d="M9.13086 67.512C16.6072 77.5204 28.547 84.0001 42.0005 84.0001C55.4539 84.0001 67.3937 77.5204 74.87 67.512H9.13086Z" fill="#3A82BC"></path>
    <path d="M40.3464 67.512H9.13086C16.197 76.9713 27.2507 83.2772 39.8007 83.9409C29.2284 83.3433 29.7237 67.512 40.3464 67.512Z" fill="#3A82BC"></path>
    <path d="M61.4496 15.0323V9.00024H21.3301V15.0325C21.3301 24.5184 27.9147 32.4654 36.7626 34.5545C38.0686 34.8627 39.0004 36.0136 39.0004 37.3555C39.0004 38.6796 38.0812 39.8171 36.792 40.1195C27.9293 42.1978 21.3301 50.1519 21.3301 59.6483V65.6806H61.4496V59.6483C61.4496 50.1388 54.8321 42.176 45.9513 40.1109C44.6829 39.8159 43.7794 38.6952 43.7794 37.3931C43.7794 36.0292 44.727 34.8616 46.0536 34.5458C54.883 32.4433 61.4496 24.5053 61.4496 15.0323Z" fill="#B1E4F9"></path>
    <path d="M38.148 40.1193C38.6454 39.8169 39.0001 38.6795 39.0001 37.3553C39.0001 36.0135 38.6405 34.8626 38.1367 34.5543C34.7227 32.4653 32.1819 24.5183 32.1819 15.0323V9.00024H21.3298C21.336 15.3957 21.3178 14.9081 21.3432 15.7419C21.6622 24.9125 28.1361 32.5176 36.7623 34.5545C38.0683 34.8627 39.0001 36.0136 39.0001 37.3555C39.0001 38.6796 38.0809 39.8171 36.7917 40.1195C28.1512 42.1458 21.663 49.7573 21.3432 58.9378C21.3177 59.7759 21.3359 59.3943 21.3298 65.6804H32.1819V59.6481C32.1819 50.1517 34.7283 42.1978 38.148 40.1193Z" fill="#9DC6FB"></path>
    <path d="M61.4496 65.1224V62.0375L52.1123 58.4342C45.212 55.7713 37.5677 55.7713 30.6674 58.4342L21.3301 62.0375V65.1224H61.4496Z" fill="#F4DD45"></path>
    <path d="M32.2115 57.8884C30.7835 58.3511 30.8185 58.3924 21.3301 62.0376V65.1224H32.1822C32.19 59.8544 32.1631 59.3317 32.2115 57.8884Z" fill="#FBB031"></path>
    <path d="M36.7632 34.5541C38.0643 34.8612 38.9933 36.0047 39.0004 37.34V56.5349C40.5918 56.4067 42.1909 56.4067 43.7823 56.535V37.34C43.8066 35.9992 44.7449 34.8573 46.0544 34.5454C53.4887 32.7753 59.3179 26.8674 60.9746 19.3901C48.2028 23.2428 34.5782 23.2428 21.8066 19.3901C23.4658 26.8799 29.3115 32.7947 36.7632 34.5541Z" fill="#F4DD45"></path>
    <path d="M36.7604 34.5534C36.7612 34.5536 36.7621 34.5539 36.7629 34.5541C38.0462 34.857 39.0007 35.9934 39.0007 37.3551C39.0007 36.0133 38.6411 34.8624 38.1372 34.5541C35.5659 32.9807 33.4905 28.0836 32.6223 21.7096C28.977 21.2344 25.3609 20.4623 21.8105 19.3916C23.501 27.0116 29.426 32.8209 36.7604 34.5534Z" fill="#FBB031"></path>
    <path d="M39.0007 37.3552C39.0007 37.3603 39 37.3654 39 37.3705V37.3948C39.0002 37.3815 39.0007 37.3685 39.0007 37.3552Z" fill="#FBB031"></path>
    <path d="M58.315 0H24.4645C22.7335 0 21.3301 1.40339 21.3301 3.13441V5.33663H61.4496V3.13441C61.4496 1.40339 60.0462 0 58.315 0Z" fill="#A87B69"></path>
    <path d="M58.315 74.6804H24.4645C22.7335 74.6804 21.3301 73.277 21.3301 71.546V69.3438H61.4496V71.546C61.4496 73.277 60.0462 74.6804 58.315 74.6804Z" fill="#A87B69"></path>
    <path d="M33.3664 71.546V69.3438H21.3301V71.546C21.3301 73.2771 22.7335 74.6804 24.4645 74.6804H36.5008C34.7698 74.6804 33.3664 73.2771 33.3664 71.546Z" fill="#8D6451"></path>
    <path d="M36.2358 0H24.4655C22.7344 0 21.3311 1.40339 21.3311 3.13441V5.33663H33.1014V3.13441C33.1014 1.40339 34.5048 0 36.2358 0Z" fill="#8D6451"></path>
    <path d="M63.1601 65.1226H19.6209C18.3011 65.1226 17.2314 66.1922 17.2314 67.512C17.2314 68.8317 18.3011 69.9014 19.6209 69.9014H63.1601C64.4798 69.9014 65.5495 68.8317 65.5495 67.512C65.5495 66.1922 64.4798 65.1226 63.1601 65.1226Z" fill="#8D6451"></path>
    <path d="M29.2667 67.512C29.2667 66.1922 30.3364 65.1226 31.6562 65.1226H19.6199C18.3002 65.1226 17.2305 66.1922 17.2305 67.512C17.2305 68.8317 18.3003 69.9015 19.6199 69.9015H31.6562C30.3364 69.9015 29.2667 68.8317 29.2667 67.512Z" fill="#825A4A"></path>
    <path d="M63.1601 9.55787H19.6209C18.3011 9.55787 17.2314 8.48818 17.2314 7.16846C17.2314 5.84874 18.3011 4.77905 19.6209 4.77905H63.1601C64.4798 4.77905 65.5495 5.84874 65.5495 7.16846C65.5495 8.48818 64.4798 9.55787 63.1601 9.55787Z" fill="#8D6451"></path>
    <path d="M29.0008 7.16846C29.0008 5.84874 30.0707 4.77905 31.3902 4.77905H19.6199C18.3002 4.77905 17.2305 5.84874 17.2305 7.16846C17.2305 8.48818 18.3003 9.55787 19.6199 9.55787H31.3902C30.0707 9.55787 29.0008 8.48818 29.0008 7.16846Z" fill="#825A4A"></path>
    <path d="M65.4554 40.7012C55.9401 40.7012 48.2266 48.4147 48.2266 57.93C48.2266 67.4453 55.9401 75.1589 65.4554 75.1589C66.1807 75.1589 66.8956 75.1134 67.5974 75.0265C74.5789 69.4393 79.6931 61.6182 81.8572 52.6452C79.6262 45.7156 73.1268 40.7012 65.4554 40.7012Z" fill="#5C515E"></path>
    <path d="M58.836 52.6727C58.836 48.0725 60.639 43.8937 63.5767 40.8037C54.9454 41.7399 48.2266 49.05 48.2266 57.9302C48.2266 67.4455 55.9401 75.1591 65.4554 75.1591C66.1807 75.1591 66.8956 75.1136 67.5974 75.0267C69.6128 73.4139 71.4714 71.6138 73.1495 69.6548C65.0228 68.2694 58.836 61.1941 58.836 52.6727Z" fill="#4A404E"></path>
    <path d="M65.4558 46.0076C58.8711 46.0076 53.5332 51.3455 53.5332 57.9302C53.5332 64.5148 58.8711 69.8527 65.4558 69.8527C72.0404 69.8527 77.3784 64.5148 77.3784 57.9302H65.4558V46.0076Z" fill="#E8E6E9"></path>
    <path d="M70.1913 68.8728C63.5683 66.4712 58.8362 60.125 58.8362 52.6726C58.8362 50.8837 59.11 49.1589 59.6161 47.5366C55.9863 49.5805 53.5332 53.4676 53.5332 57.9301C53.5332 64.5148 58.8711 69.8527 65.4558 69.8527C67.1387 69.8526 68.7395 69.502 70.1913 68.8728Z" fill="#D3D0D4"></path>
    <path d="M65.4561 46.0076V57.9302H77.3786C77.3786 51.3455 72.0407 46.0076 65.4561 46.0076Z" fill="#FD6874"></path>
    <path d="M65.4554 60.8548C64.6274 60.8548 63.9561 60.1834 63.9561 59.3554V48.8356C63.9561 48.0075 64.6274 47.3362 65.4554 47.3362C66.2834 47.3362 66.9548 48.0075 66.9548 48.8356V59.3554C66.9548 60.1834 66.2836 60.8548 65.4554 60.8548Z" fill="#5C515E"></path>
    <path d="M71.1701 59.4296H63.973C63.145 59.4296 62.4736 58.7583 62.4736 57.9303C62.4736 57.1022 63.145 56.4309 63.973 56.4309H71.1701C71.9981 56.4309 72.6695 57.1022 72.6695 57.9303C72.6696 58.7583 71.9983 59.4296 71.1701 59.4296Z" fill="#5C515E"></path>
  </g>
  <defs>
    <clipPath id="clip0_2192_16660">
      <rect width="84" height="84" fill="white"></rect>
    </clipPath>
  </defs>
</svg>
