<?xml version="1.0" encoding="UTF-8"?>
<svg xmlns="http://www.w3.org/2000/svg" width="84" height="84" viewBox="0 0 84 84" fill="none">
  <g clip-path="url(#clip0_2192_16770)">
    <path d="M9.62177 66.7528C9.03328 67.1394 8.2425 67.0037 7.83251 66.4313C2.9021 59.5483 0 51.1139 0 42.0017C0 18.8065 18.804 0.00333789 41.9998 0.00317383C65.1778 0.00317383 84.0538 18.9243 83.9998 42.1013C83.9674 56.0474 77.1373 68.3966 66.6473 76.0114C66.3264 76.2443 65.8778 76.19 65.6321 75.8788C57.9405 66.1366 46.0248 59.8837 32.6484 59.8837C24.1462 59.8837 16.2341 62.4101 9.62177 66.7528Z" fill="#FFB52D"></path>
    <path d="M66.8033 10.6944L66.7732 42.8372V75.9196C64.9528 77.2515 63.021 78.4403 60.9945 79.4694C59.986 79.9816 58.87 80.2469 57.739 80.2458L32.4656 80.2221C25.5105 80.2156 18.7669 77.6762 13.6385 72.9785C11.4331 70.9587 9.44438 68.7064 7.71073 66.2606V58.4853C7.70121 58.3967 7.69629 58.3068 7.69629 58.2156L7.71073 42.8069V38.5563C7.71073 38.5086 7.7122 38.461 7.71483 38.4139L7.74075 10.6391C7.74206 9.28005 8.84489 8.17935 10.204 8.18067L64.3446 8.2312C65.7037 8.23251 66.8046 9.33534 66.8033 10.6944Z" fill="#2B4D66"></path>
    <path d="M18.0473 72.9556C17.197 72.517 16.366 72.043 15.5566 71.5351L6.78281 26.4711C6.71309 26.1132 6.94671 25.7667 7.30453 25.6972L18.0473 23.6057V72.9556Z" fill="#94D1FE"></path>
    <path d="M61.2203 15.6109L61.1608 78.7283C55.4158 81.6787 48.9022 83.3437 41.9996 83.3437C30.8822 83.3437 20.7737 79.0243 13.2607 71.9724L13.3141 15.5661C13.3144 15.1131 13.6821 14.7461 14.1352 14.7466L60.4008 14.7899C60.8538 14.7902 61.2208 15.1579 61.2203 15.6109Z" fill="#E9F3FE"></path>
    <path d="M61.1629 77.1676L61.1608 79.3846C55.4158 82.3349 48.9022 84 41.9996 84C30.8822 84 20.7737 79.6805 13.2607 72.6287L13.3141 15.5661C13.3144 15.1131 13.6821 14.7461 14.1352 14.7466L17.3306 14.7495L17.2965 51.2313C17.2819 66.8346 29.7238 79.7224 45.3256 79.975C45.5563 79.9788 45.7874 79.9806 46.0191 79.9806C51.3584 79.9806 56.4648 78.9843 61.1629 77.1676Z" fill="#C8E2FD"></path>
    <path d="M51.5977 42.6578H22.8867C22.2072 42.6578 21.6562 42.1069 21.6562 41.4273C21.6562 40.7478 22.2072 40.1969 22.8867 40.1969H51.5977C52.2772 40.1969 52.8281 40.7478 52.8281 41.4273C52.8281 42.107 52.2772 42.6578 51.5977 42.6578ZM22.8867 37.7361H51.5977C52.2772 37.7361 52.8281 37.1852 52.8281 36.5056C52.8281 35.8261 52.2772 35.2751 51.5977 35.2751H22.8867C22.2072 35.2751 21.6562 35.8261 21.6562 36.5056C21.6562 37.1852 22.2072 37.7361 22.8867 37.7361ZM43.5586 45.1187H30.9258C30.2462 45.1187 29.6953 45.6697 29.6953 46.3492C29.6953 47.0287 30.2462 47.5797 30.9258 47.5797H43.5586C44.2381 47.5797 44.7891 47.0287 44.7891 46.3492C44.7891 45.6697 44.2381 45.1187 43.5586 45.1187ZM56.2383 68.9068H51.1055C50.4259 68.9068 49.875 69.4577 49.875 70.1373C49.875 70.8168 50.4259 71.3677 51.1055 71.3677H56.2383C56.9179 71.3677 57.4688 70.8168 57.4688 70.1373C57.4688 69.4577 56.9179 68.9068 56.2383 68.9068Z" fill="#A7D0FC"></path>
    <path d="M47.0314 31.1738H27.4531C26.547 31.1738 25.8125 30.4393 25.8125 29.5332C25.8125 28.6271 26.547 27.8926 27.4531 27.8926H47.0312C47.9373 27.8926 48.6718 28.6271 48.6718 29.5332C48.672 30.4393 47.9373 31.1738 47.0314 31.1738ZM56.1915 73.8284H45.5274C44.8479 73.8284 44.2969 74.3794 44.2969 75.0589C44.2969 75.7385 44.8479 76.2894 45.5274 76.2894H56.1915C56.871 76.2894 57.4219 75.7385 57.4219 75.0589C57.4219 74.3794 56.8712 73.8284 56.1915 73.8284Z" fill="#76B6FA"></path>
    <path d="M52.0177 12.6691C51.1399 11.9367 50.0825 11.4156 48.9334 11.1366C48.9799 10.8547 49.0043 10.5656 49.0045 10.2708L49.0091 5.34909C49.0119 2.40909 46.6221 0.0150938 43.682 0.0123047L30.557 0H30.5521C27.6143 0 25.2228 2.38875 25.22 5.32695L25.2154 10.2487C25.2151 10.5453 25.2392 10.8363 25.2858 11.1198C22.2272 11.8627 19.9777 14.2859 19.9746 17.1544C19.9726 18.8713 20.759 20.4742 22.1886 21.6672C23.5533 22.806 25.3526 23.434 27.2549 23.4355L46.9383 23.4508H46.9452C50.9598 23.4506 54.2279 20.6397 54.2317 17.1819C54.2335 15.4647 53.4473 13.862 52.0177 12.6691ZM27.6811 5.32908C27.6818 4.56389 27.9817 3.84382 28.5254 3.3011C29.0684 2.75904 29.788 2.46077 30.5522 2.46077H30.555L43.68 2.47308C45.263 2.47455 46.5498 3.76376 46.5483 5.3468L46.5437 10.2685C46.5435 10.4856 46.5191 10.697 46.473 10.9003L27.7464 10.8857C27.7002 10.6796 27.6764 10.4669 27.6765 10.2508L27.6811 5.32908ZM46.9453 20.9898H46.9403L27.2569 20.9746C25.9289 20.9736 24.6891 20.5485 23.7656 19.7777C22.9069 19.0611 22.4346 18.1304 22.4357 17.1568C22.4377 15.3244 24.0826 13.7911 26.2661 13.4279C27.2377 14.7348 28.7926 15.5838 30.5427 15.5853L43.6677 15.5976H43.6726C45.422 15.5976 46.9777 14.7505 47.9506 13.4448C48.8929 13.6034 49.7544 13.9852 50.441 14.5583C51.2996 15.2747 51.7719 16.2054 51.7707 17.179C51.7684 19.2811 49.6043 20.99 46.9453 20.9898Z" fill="#4A82AE"></path>
    <path d="M37.9304 9.02687L37.9258 13.9486C37.9245 15.3077 36.8216 16.4084 35.4625 16.4071L25.6188 16.3979C24.2597 16.3967 23.1588 15.2939 23.1602 13.9348L23.1648 9.01308C23.1661 7.65399 24.2689 6.5533 25.628 6.55444L35.4717 6.56363C36.8308 6.56494 37.9315 7.66777 37.9304 9.02687Z" fill="#3493F8"></path>
    <path d="M51.2191 9.03934L51.2145 13.961C51.2132 15.3201 50.1104 16.4208 48.7513 16.4195L36.2825 16.4079C33.5643 16.4053 31.3628 14.1998 31.3652 11.4816C31.3679 8.76339 33.5734 6.56199 36.2917 6.56446L48.7605 6.5761C50.1197 6.57742 51.2204 7.68024 51.2191 9.03934Z" fill="#55A4F9"></path>
    <path d="M47.9062 11.4854C47.9054 12.3915 47.17 13.1252 46.2641 13.1244C45.358 13.1236 44.6241 12.3884 44.6249 11.4823C44.6258 10.5762 45.3611 9.84232 46.267 9.84331C47.1731 9.84413 47.907 10.5793 47.9062 11.4854ZM28.0855 9.83789C27.1793 9.83707 26.4442 10.5709 26.4434 11.4769C26.4425 12.3828 27.1764 13.1182 28.0825 13.119C28.9886 13.1198 29.7238 12.3859 29.7246 11.48C29.7254 10.574 28.9916 9.83871 28.0855 9.83789Z" fill="#2B4D66"></path>
    <path d="M36.4219 67.7585C36.4219 74.6446 30.8395 80.2268 23.9531 80.2268C17.0668 80.2268 11.4844 74.6446 11.4844 67.7585C11.4844 60.8725 17.0668 55.2903 23.9531 55.2903C30.8395 55.2903 36.4219 60.8725 36.4219 67.7585Z" fill="#5CA33B"></path>
    <path d="M36.4219 67.7585C36.4219 70.2572 35.6869 72.5841 34.4213 74.535C32.4703 75.8006 30.1434 76.5356 27.6445 76.5356C20.7582 76.5356 15.1758 70.9533 15.1758 64.0673C15.1758 61.5686 15.9108 59.2417 17.1764 57.2909C19.1274 56.0253 21.4543 55.2903 23.9531 55.2903C30.8395 55.2903 36.4219 60.8725 36.4219 67.7585Z" fill="#6DC54A"></path>
    <path d="M34.6699 59.9147L24.5942 71.6472C24.1569 72.1448 23.5061 72.2532 23.0354 72.2583C23.0246 72.2585 23.0133 72.2586 23.0019 72.2586C22.601 72.2586 21.8965 72.1794 21.4391 71.6815L17.1311 66.8807C16.6772 66.3749 16.7193 65.5969 17.2251 65.1433C17.7308 64.6891 18.5088 64.7313 18.9627 65.2373L22.9955 69.7316L32.803 58.3114C33.2453 57.796 34.0223 57.7367 34.5382 58.1796C35.0536 58.6224 35.1129 59.3993 34.6699 59.9147Z" fill="#2B4D66"></path>
    <path d="M41.2271 67.0368L35.4266 72.837C34.786 73.4777 33.7471 73.4777 33.1065 72.837C32.4658 72.1964 32.4658 71.1577 33.1065 70.5168L38.9069 64.7166C39.5476 64.0759 40.5864 64.0759 41.2271 64.7166C41.8677 65.3572 41.8677 66.3961 41.2271 67.0368Z" fill="#4A82AE"></path>
    <path d="M81.2129 30.0353C76.5498 37.4138 70.727 44.73 63.8487 51.608C56.9704 58.4862 47.4576 48.9737 54.3359 42.0957C61.2142 35.2177 68.5307 29.3951 75.9094 24.7321C77.4152 23.7806 79.3881 23.9942 80.6482 25.2532C80.6554 25.2604 80.6628 25.2676 80.67 25.2748C80.6773 25.2821 80.6846 25.2894 80.6919 25.2967C81.9509 26.5568 82.1647 28.5295 81.2129 30.0353Z" fill="#3493F8"></path>
    <path d="M81.7775 27.5319C80.9255 27.4292 80.0394 27.6117 79.2739 28.0955C71.8951 32.7585 64.5785 38.5811 57.7004 45.459C57.5233 45.6361 54.8024 41.6323 55.0357 41.4024C61.7097 34.8258 68.7811 29.2379 75.9106 24.7324C77.4164 23.7808 79.3893 23.9944 80.6494 25.2534C80.6566 25.2607 80.664 25.2679 80.6712 25.2751C80.6785 25.2823 80.6858 25.2897 80.6931 25.2969C81.3117 25.9162 81.6781 26.708 81.7775 27.5319Z" fill="#1380E2"></path>
    <path d="M82.9912 32.4671L70.2301 45.2277C68.8846 46.5732 66.7032 46.5732 65.3577 45.2277C64.0123 43.8822 64.0123 41.7009 65.3577 40.3555L78.1189 27.5949C79.4643 26.2496 81.6457 26.2496 82.9912 27.5949C84.3367 28.9404 84.3367 31.1218 82.9912 32.4671Z" fill="#86BEFB"></path>
    <path d="M58.5323 44.8994C58.5323 44.8994 40.6057 69.6417 39.7457 69.5319C38.9313 69.4281 38.1497 69.063 37.5368 68.4506L37.4931 68.4069C36.2343 67.1468 36.0205 65.1741 36.9721 63.6683C41.6351 56.2898 47.458 48.9736 54.3363 42.0956C54.5686 41.8633 54.8016 41.6321 55.0349 41.4021L58.5323 44.8994Z" fill="#D63030"></path>
    <path d="M64.5425 50.9094C64.3125 51.1429 64.0813 51.3757 63.849 51.608C56.9707 58.486 49.6541 64.3088 42.2754 68.9716C41.502 69.4603 40.6054 69.6416 39.7456 69.5318C39.7252 68.7817 39.9213 68.0223 40.3439 67.3534C45.0743 59.8682 50.9814 52.4462 57.9591 45.4686C58.1498 45.278 58.3407 45.0882 58.5322 44.8992L64.5425 50.9094Z" fill="#FB5858"></path>
  </g>
  <defs>
    <clipPath id="clip0_2192_16770">
      <rect width="84" height="84" fill="white"></rect>
    </clipPath>
  </defs>
</svg>
