<?xml version="1.0" encoding="UTF-8"?>
<svg xmlns="http://www.w3.org/2000/svg" width="84" height="84" viewBox="0 0 84 84" fill="none">
  <g clip-path="url(#clip0_2192_16974)">
    <path d="M10.5791 69.8701C17.1608 62.4553 21.1579 52.6944 21.1579 42C21.1579 31.3056 17.7139 21.8559 11.1322 14.4409C11.3333 14.2142 11.5369 13.9898 11.7428 13.7676C11.8458 13.6566 11.3963 13.2349 11.5005 13.125C19.1555 5.04197 29.9892 0 42.0003 0C65.1963 0 84.0004 18.804 84.0004 42C84.0004 55.2397 77.8743 67.0486 68.3019 74.7467H15.6988C13.8585 73.2669 12.1456 71.6349 10.5791 69.8701Z" fill="#55A4F9"></path>
    <path d="M77.615 37.6488C77.615 56.1603 62.6086 71.1668 44.0971 71.1668C25.5856 71.1668 10.5791 56.1603 10.5791 37.6488C10.5791 19.1373 25.5856 4.13086 44.0971 4.13086C62.6086 4.13086 77.615 19.1375 77.615 37.6488Z" fill="#76B6FA"></path>
    <path d="M42 83.9999C31.6565 83.9999 22.1862 80.2608 14.8672 74.0605H69.1327C61.8137 80.2608 52.3435 83.9999 42 83.9999Z" fill="#1380E2"></path>
    <path d="M51.4912 63.2897V26.25H65.5796C74.6404 26.25 81.9858 33.5954 81.9858 42.6562V63.0139C81.9858 64.373 80.884 65.4749 79.5249 65.4749H53.6764C52.4695 65.4749 51.4912 64.4966 51.4912 63.2897Z" fill="#FFB52D"></path>
    <path d="M64.2812 63.2897V26.25H67.5938C76.6547 26.25 84.0001 33.5954 84.0001 42.6562V49.7185L83.1588 50.5747V55.3081L84.0001 56.4864V63.0138C84.0001 64.3729 82.8982 65.4747 81.5392 65.4747H66.4664C65.2596 65.4749 64.2812 64.4966 64.2812 63.2897Z" fill="#FFC14F"></path>
    <path d="M61.4883 47.5246V32.4832C61.4883 31.577 62.2228 30.8425 63.1289 30.8425H66.5473C73.7395 30.8425 79.5701 36.673 79.5701 43.8653V47.2489C79.5701 48.608 78.4683 49.7099 77.1092 49.7099H63.6734C62.4666 49.7097 61.4883 48.7314 61.4883 47.5246Z" fill="#274C91"></path>
    <path d="M65.1432 49.7097H60.7135C59.5066 49.7097 58.5283 48.7314 58.5283 47.5246V32.4832C58.5283 31.577 59.2628 30.8425 60.1689 30.8425H64.5986C63.6925 30.8425 62.958 31.577 62.958 32.4832V47.5246C62.958 48.7312 63.9363 49.7097 65.1432 49.7097Z" fill="#203E76"></path>
    <path d="M54.1406 14.7656V65.4749H7.16773C2.64223 58.7731 0 50.6951 0 42C0 30.8154 4.37194 20.6517 11.5001 13.125H52.5C53.4061 13.125 54.1406 13.8595 54.1406 14.7656Z" fill="#E9F3FE"></path>
    <path d="M54.1402 14.7656V65.4749H14.2712C9.74591 58.7731 7.10352 50.6951 7.10352 42C7.10352 30.8154 11.4755 20.6517 18.6036 13.125H52.4996C53.4057 13.125 54.1402 13.8595 54.1402 14.7656Z" fill="#FFF5F5"></path>
    <path d="M79.5674 66.2687C79.6053 67.7062 79.3044 69.0697 78.7391 70.2851C78.4469 70.9131 77.9414 71.4186 77.3132 71.711C76.0978 72.2765 74.7343 72.5774 73.2969 72.5395C68.5705 72.415 64.7088 68.5531 64.5842 63.8266C64.5463 62.3893 64.8472 61.0259 65.4126 59.8105C65.7048 59.1825 66.2103 58.677 66.8383 58.3847C68.0537 57.8191 69.4169 57.5184 70.8541 57.5561C75.5807 57.6805 79.4427 61.5422 79.5674 66.2687Z" fill="#203E76"></path>
    <path d="M22.8375 66.511C22.8375 71.4583 18.827 75.4688 13.8797 75.4688C8.93238 75.4688 4.92188 71.4583 4.92188 66.511C4.92188 61.5637 8.93238 57.5532 13.8797 57.5532C18.827 57.5532 22.8375 61.5637 22.8375 66.511ZM74.8345 71.2469C69.8872 71.2469 65.8767 67.2364 65.8767 62.2891C65.8767 60.9058 66.1902 59.596 66.75 58.4265C63.7363 59.869 61.6547 62.9469 61.6547 66.511C61.6547 71.4583 65.6652 75.4688 70.6125 75.4688C74.1766 75.4688 77.2546 73.3872 78.697 70.3736C77.5276 70.9333 76.2175 71.2469 74.8345 71.2469Z" fill="#19305C"></path>
    <path d="M74.5935 66.5108C74.5935 68.7096 72.8109 70.4921 70.6122 70.4921C68.4134 70.4921 66.6309 68.7096 66.6309 66.5108C66.6309 64.3121 68.4134 62.5295 70.6122 62.5295C72.8109 62.5295 74.5935 64.3121 74.5935 66.5108Z" fill="#6990D7"></path>
    <path d="M37.9888 63.1524L25.8739 78.3117C25.2351 79.1112 24.0192 79.1112 23.3804 78.3117L10.4096 62.0814C3.09616 52.93 4.53302 39.5927 13.6278 32.209C14.426 31.561 15.2594 30.9791 16.1206 30.4631C18.7658 28.8786 21.8999 28.2966 24.9389 28.8174C28.4528 29.4193 31.8473 30.9069 34.7702 33.28C43.8654 40.6637 45.3022 54.001 37.9888 63.1524Z" fill="#FB5858"></path>
    <path d="M26.0072 78.1448L21.3281 83.9999L4.66738 63.1521C-2.64603 54.0007 -1.20917 40.6634 7.88563 33.2798C13.0931 29.0521 19.7967 27.6349 26.0072 29.0284C22.8757 29.731 19.8697 31.1481 17.2439 33.2798C8.14912 40.6634 6.71209 54.0007 14.0257 63.1521L26.0072 78.1448Z" fill="#F44545"></path>
    <path d="M23.0221 36.9166C23.583 36.9914 23.3506 37.9624 23.8869 38.1081C28.397 39.3329 32.0498 42.721 33.1443 47.2816C33.2722 47.8146 34.046 47.7533 34.1044 48.3091C34.1455 48.7009 34.1688 49.0978 34.1734 49.4987C34.2025 52.0076 33.5121 54.353 32.2961 56.3421C32.0864 56.6852 31.7976 56.9739 31.4546 57.1836C29.4655 58.3998 27.1197 59.0902 24.6109 59.0611C17.6722 58.9807 11.9979 53.3061 11.9179 46.3676C11.8883 43.8055 12.6091 41.4133 13.874 39.3974C14.0354 39.14 14.2525 38.9231 14.5097 38.7617C16.5256 37.4968 18.9178 36.776 21.4801 36.8056C22.0018 36.8115 22.5165 36.8492 23.0221 36.9166Z" fill="#274C91"></path>
    <path d="M32.4076 56.1567C30.1749 59.9506 26.0491 62.4968 21.3285 62.4968C19.85 62.4968 18.4298 62.2471 17.1078 61.7874C16.8627 61.7023 16.6831 60.6177 16.445 60.5183C11.8052 58.5812 9.10059 55.0811 9.10059 49.739C9.10059 47.1865 9.96733 45.1759 11.2508 43.1765C11.3863 42.9654 10.7873 42.3024 10.9346 42.1001C11.9723 40.6741 13.2965 39.4697 14.8224 38.5718C13.6996 40.4798 13.0553 42.7037 13.0553 45.0778C13.0553 52.1726 18.8067 57.9239 25.9014 57.9239C28.2757 57.9236 30.4994 57.2795 32.4076 56.1567Z" fill="#203E76"></path>
    <path d="M34.1017 48.2882C33.6113 48.7822 33.0868 49.3119 32.5257 49.881C27.5812 54.8958 25.9499 55.6915 24.4832 55.3264C22.503 54.8336 20.818 52.2245 21.2159 50.2997C21.6628 48.1377 24.5209 47.8877 24.7345 45.8597C24.907 44.2232 23.1185 43.7 22.4726 41.8384C21.9953 40.4629 22.2559 38.6854 23.0219 36.9165C28.8446 37.6933 33.4751 42.4211 34.1017 48.2882Z" fill="#82CD64"></path>
    <path d="M17.1078 61.7872C12.0864 60.0412 8.48242 55.2668 8.48242 49.6506C8.48242 46.8288 9.39231 44.2195 10.9348 42.1C12.9702 41.8052 15.6844 43.3874 16.2178 45.2733C16.7897 47.2953 14.596 48.7539 15.3801 50.8585C15.9159 52.297 17.127 52.1153 18.3401 53.8186C19.5059 55.4555 20.038 57.9402 19.3455 59.5712C18.9608 60.4774 18.1524 61.2269 17.1078 61.7872Z" fill="#6DC54A"></path>
    <path d="M80.8545 53.1025C80.8545 51.3119 82.2415 49.8455 83.9996 49.7185V56.4864C82.2415 56.3596 80.8545 54.893 80.8545 53.1025Z" fill="#F44545"></path>
    <path d="M60.163 23.3061C60.6437 23.7867 61.4227 23.7867 61.9032 23.3061C63.6897 21.5195 66.5964 21.5195 68.3829 23.3061C68.8636 23.7867 69.6426 23.7867 70.1231 23.3061C70.3633 23.0658 70.4834 22.7508 70.4834 22.4359C70.4834 22.1211 70.3633 21.8061 70.1231 21.5658C67.377 18.8198 62.9089 18.8198 60.1629 21.5658C59.6827 22.0465 59.6827 22.8254 60.163 23.3061ZM60.163 15.9778C59.6827 16.4585 59.6827 17.2375 60.163 17.718C60.6437 18.1985 61.4227 18.1985 61.9032 17.718C63.6897 15.9314 66.5964 15.9314 68.3829 17.718C68.8636 18.1985 69.6426 18.1985 70.1231 17.718C70.3633 17.4777 70.4834 17.1627 70.4834 16.8478C70.4834 16.533 70.3633 16.218 70.1231 15.9776C67.377 13.2317 62.9091 13.2317 60.163 15.9778Z" fill="#C8E2FD"></path>
  </g>
  <defs>
    <clipPath id="clip0_2192_16974">
      <rect width="84" height="84" fill="white"></rect>
    </clipPath>
  </defs>
</svg>
