<?xml version="1.0" encoding="UTF-8"?>
<svg xmlns="http://www.w3.org/2000/svg" width="84" height="93" viewBox="0 0 84 93" fill="none">
  <path d="M42 93C65.196 93 84 74.196 84 51C84 27.804 65.196 9 42 9C18.804 9 0 27.804 0 51C0 74.196 18.804 93 42 93Z" fill="#A3D4FF"></path>
  <path d="M83.9999 51.1298L43.5039 47.9562L26.5795 43.6089L0.00683594 51.7557V51.7566C0.41043 74.6034 19.057 92.9999 42.0001 92.9999C65.1528 92.9999 83.9299 74.2661 83.9999 51.1298Z" fill="#65B1FC"></path>
  <path d="M63.4354 57.2272L60.9568 53.0034L36.0928 66.4309L42.0893 76.6489L61.3167 65.3652C64.1491 63.7029 65.0977 60.0594 63.4354 57.2272Z" fill="#D47F6C"></path>
  <path d="M74.2002 52.6601L63.9473 35.1892L53.5977 41.263C50.9317 38.8821 46.933 38.3735 43.6846 40.2799L26.6221 50.2931L36.0926 66.4308L52.0048 57.8375L55.4306 63.6751L74.2002 52.6601Z" fill="#E09380"></path>
  <path d="M50.0605 54.5244L55.4308 63.6753L74.2004 52.6601L69.2137 44.1628L50.0605 54.5244Z" fill="#D47F6C"></path>
  <path d="M83.9997 50.9999C83.9997 40.9601 80.4769 31.7432 74.6002 24.5176L54.5107 36.3073L61.5528 48.3068L77.3225 44.4622L83.9995 51.1298C83.9997 51.0865 83.9997 51.0432 83.9997 50.9999Z" fill="#FF9500"></path>
  <path d="M61.5527 48.3069L68.5354 60.2052L83.9994 51.1299C83.9996 51.0866 83.9996 51.0433 83.9996 51C83.9996 46.2343 83.2046 41.6547 81.7421 37.3848L61.5527 48.3069Z" fill="#FE6A16"></path>
  <path d="M48.706 74.1476C50.33 75.1285 50.8514 77.2403 49.8703 78.8644C48.8894 80.4884 46.7776 81.0097 45.1535 80.0287L39.6289 76.6917L43.1814 70.8105L48.706 74.1476Z" fill="#FAA68E"></path>
  <path d="M48.7064 74.1476C50.3304 75.1285 50.8518 77.2403 49.8707 78.8644C49.6679 79.2 49.4167 79.4886 49.1316 79.7265C49.4305 78.3331 48.8363 76.8433 47.5481 76.0651L42.0234 72.7281L43.1817 70.8105L48.7064 74.1476Z" fill="#F49782"></path>
  <path d="M54.7167 69.7511C56.3408 70.732 56.862 72.8438 55.8811 74.4679C54.9001 76.0919 52.7883 76.6133 51.1643 75.6322L43.1816 70.8106L46.7339 64.9294L54.7167 69.7511Z" fill="#FAA68E"></path>
  <path d="M54.7172 69.7512C56.3413 70.7322 56.8625 72.844 55.8816 74.468C55.6788 74.8037 55.4276 75.0923 55.1425 75.3302C55.4414 73.9368 54.8472 72.4471 53.5588 71.6688L45.5762 66.847L46.7345 64.9294L54.7172 69.7512Z" fill="#F49782"></path>
  <path d="M60.2594 65.0721C61.8834 66.053 62.4046 68.1648 61.4237 69.7889C60.4428 71.4129 58.331 71.9341 56.7069 70.9532L46.7344 64.9295L50.2867 59.0483L60.2594 65.0721Z" fill="#FFBEAA"></path>
  <path d="M52.03 42.9637L37.5756 37.3872C35.3594 36.806 33.0252 37.7533 31.8406 39.7143L31.7161 39.9205L25.3651 35.9888L18.1035 48.0108L47.7951 65.9244L51.5043 59.7836L61.2813 65.689C62.8863 66.6584 64.9678 66.1607 65.9632 64.5811C66.99 62.9518 66.416 60.7637 64.7673 59.7678L51.7757 52.0267C51.2231 51.7109 48.7798 49.1769 49.3927 49.3485L52.03 42.9637Z" fill="#FFBEAA"></path>
  <path d="M40.8469 77.4269L47.9516 65.6646L18.2614 47.752L14.7129 58.4713L21.2377 62.4332C21.0447 64.4771 22.0307 66.5455 23.9355 67.6344L40.8469 77.4269Z" fill="#FAA68E"></path>
  <path d="M59.1009 66.9896C60.3893 67.7678 60.9835 69.2576 60.6846 70.651C60.9697 70.4131 61.2209 70.1246 61.4237 69.7889C62.4046 68.1648 61.8832 66.053 60.2592 65.0721L51.504 59.7837L50.3457 61.7013L59.1009 66.9896Z" fill="#FAA68E"></path>
  <path d="M28.476 71.2049L23.1534 68.0772C22.881 67.9172 22.79 67.5668 22.9501 67.2945C23.891 65.6934 25.9506 65.056 27.5686 65.9674C29.2171 66.8959 29.7769 68.9914 28.8225 70.6154L28.476 71.2049Z" fill="#E09380"></path>
  <path d="M28.4763 71.2049L26.5801 70.0906L26.9264 69.5011C27.675 68.2272 27.4919 66.6631 26.5825 65.5999C26.94 65.672 27.2916 65.8038 27.6237 65.9989C29.2297 66.9425 29.7665 69.0096 28.8228 70.6154L28.4763 71.2049Z" fill="#D47F6C"></path>
  <path d="M34.2914 74.6222L28.4756 71.2048L30.2503 68.1846C31.1939 66.5786 33.261 66.0418 34.8668 66.9854C36.4728 67.9291 37.0096 69.996 36.0659 71.602L34.2914 74.6222Z" fill="#E09380"></path>
  <path d="M34.2919 74.6222L32.3955 73.5079L34.1702 70.4877C34.9188 69.2137 34.7357 67.6497 33.8263 66.5864C34.1836 66.6586 34.5354 66.7904 34.8674 66.9854C36.4734 67.9291 37.0103 69.996 36.0666 71.602L34.2919 74.6222Z" fill="#D47F6C"></path>
  <path d="M40.1078 78.0397L34.292 74.6223L37.223 69.6343C38.1667 68.0283 40.2337 67.4915 41.8395 68.4352C43.4455 69.3788 43.9823 71.4459 43.0387 73.0517L40.1078 78.0397Z" fill="#E09380"></path>
  <path d="M50.1128 74.3273L47.966 77.935C46.8143 79.8706 44.3153 80.5125 42.3735 79.3712L40.1074 78.0397L44.3356 70.8443C45.2683 69.2571 47.2981 68.7141 48.8958 69.6126C50.5438 70.5396 51.0707 72.697 50.1128 74.3273Z" fill="#E09380"></path>
  <path d="M40.1072 78.0397L38.2109 76.9254L41.1419 71.9374C41.8905 70.6634 41.7074 69.0994 40.798 68.0361C41.1554 68.1083 41.5071 68.2401 41.839 68.4351C43.445 69.3788 43.9818 71.4458 43.0381 73.0519L40.1072 78.0397Z" fill="#D47F6C"></path>
  <path d="M54.9409 44.7112L47.2523 39.145L37.4111 40.2196C36.1534 40.3543 34.9797 40.9159 34.0857 41.8109L28.5513 47.3508C27.0799 48.9026 27.0986 51.3401 28.5936 52.8693C30.049 54.358 32.4061 54.4731 33.9994 53.1332L38.6073 49.2908L52.6438 50.5849L54.9409 44.7112Z" fill="#E09380"></path>
  <path d="M0 51C0 51.2524 0.00229687 51.5043 0.00672656 51.7558L15.013 60.0902L28.4668 35.8663L8.97914 25.043C3.35508 32.1876 0 41.202 0 51H0Z" fill="#7583F1"></path>
  <path d="M0 51.0001C0 51.2526 0.00229687 51.5044 0.00672656 51.7559L15.013 60.0903L20.961 49.3809L1.85062 38.634C0.647883 42.5436 0 46.6961 0 51.0001H0Z" fill="#606AE9"></path>
  <path d="M53.4033 16.2127C51.6447 15.7164 50.5542 14.632 50.5426 14.6204L47.3881 11.4663C45.703 9.78116 44.9026 7.97152 45.0093 6.08794C45.117 4.18444 46.1379 2.54598 47.0374 1.45408C45.9179 1.18659 44.75 1.04419 43.5484 1.04419C38.6723 1.04419 34.3413 3.37626 31.6082 6.98533C31.4918 7.88954 31.3558 10.2302 32.7207 11.9022C33.6652 13.0595 35.1372 13.6527 37.0962 13.666L45.325 19.7054C45.2287 20.3279 44.9463 22.9916 46.7147 25.1499C47.9785 26.692 49.9878 27.5995 52.6964 27.862C56.2371 25.1242 58.5177 20.8355 58.5177 16.0135C58.5177 15.8756 58.5156 15.7383 58.5119 15.6013C56.8138 16.4836 55.1028 16.6921 53.4033 16.2127Z" fill="#D1F26C"></path>
  <path d="M58.5149 15.8288C58.4294 8.76417 53.4505 2.87786 46.8101 1.40186C45.115 3.49358 43.0904 7.45812 47.2433 11.611L50.3976 14.7652C50.3976 14.7652 53.7959 18.2032 58.5149 15.8288Z" fill="#D1F26C"></path>
  <path d="M45.5478 19.6154L37.1632 13.4616C30.4754 13.4616 31.8675 6.65283 31.8675 6.65283C29.8104 9.21638 28.5791 12.4709 28.5791 16.0134C28.5791 24.2806 35.281 30.9826 43.5483 30.9826H43.5482C47.0995 30.9826 50.3615 29.7451 52.928 27.6787C44.0804 26.9413 45.5478 19.6154 45.5478 19.6154Z" fill="#D1F26C"></path>
  <path d="M41.2789 20.7308L37.1639 16.6158C36.293 15.7449 36.293 14.3327 37.1639 13.4616C38.0351 12.5907 39.4472 12.5904 40.3184 13.4616L44.4334 17.5764C45.3043 18.4473 45.3043 19.8596 44.4334 20.7308C43.5618 21.6019 42.1501 21.6015 41.2789 20.7308Z" fill="white"></path>
  <path d="M41.2782 20.7305C40.4073 19.8596 40.4073 18.4473 41.2782 17.5761L47.2435 11.6108C48.1147 10.7399 49.5267 10.7396 50.3979 11.6108C51.2688 12.4817 51.2688 13.8941 50.3979 14.765L44.4326 20.7305C43.561 21.6016 42.1494 21.6012 41.2782 20.7305Z" fill="white"></path>
</svg>
