<svg width="84" height="84" viewBox="0 0 84 84" fill="none" xmlns="http://www.w3.org/2000/svg">
<path d="M42 83C65.196 83 84 64.6437 84 42C84 19.3563 65.196 1 42 1C18.804 1 0 19.3563 0 42C0 64.6437 18.804 83 42 83Z" fill="#85D6FF"/>
<path d="M8.53992 24.3866C8.53968 24.3864 8.53956 24.3863 8.5392 24.3859C8.52189 22.3807 10.1422 20.7496 12.1435 20.7496C12.6165 20.7496 13.0677 20.8417 13.4815 21.0073C14.2807 19.5753 15.8102 18.6064 17.5665 18.6064C19.8473 18.6064 21.7457 20.2399 22.1584 22.4005C22.2813 22.3828 22.4069 22.3733 22.5348 22.3733C23.775 22.3733 24.814 23.2317 25.0917 24.3866H8.53992Z" fill="white"/>
<path d="M12.0561 24.3862C12.056 24.3861 12.0559 24.386 12.0557 24.3859C12.0458 23.2328 12.9775 22.2949 14.1283 22.2949C14.4003 22.2949 14.6598 22.3478 14.8977 22.4431C15.3574 21.6197 16.2368 21.0625 17.2467 21.0625C18.5583 21.0625 19.6499 22.0018 19.8872 23.2442C19.9579 23.2341 20.0301 23.2286 20.1036 23.2286C20.8167 23.2286 21.4141 23.7222 21.5739 24.3864H12.0561V24.3862Z" fill="#DFEBFF"/>
<path d="M58.6524 31.6865C58.5865 31.4381 58.3753 31.2456 58.1154 31.1966C54.5325 30.5225 50.6822 31.5842 47.9941 34.3459C45.306 37.1076 44.4398 40.8915 45.3476 44.3135C45.4135 44.5619 45.6247 44.7544 45.8846 44.8034C49.4675 45.4775 53.3178 44.4158 56.0059 41.6541C58.694 38.8924 59.5602 35.1087 58.6524 31.6865Z" fill="#D6C843"/>
<path d="M51.904 36.0839C53.845 34.107 56.3866 33.0017 59 32.7801C58.9434 32.4126 58.8678 32.0474 58.7712 31.6865C58.7047 31.4381 58.4917 31.2456 58.2295 31.1966C54.6155 30.5225 50.7316 31.5842 48.0202 34.3459C45.3087 37.1075 44.4349 40.8916 45.3506 44.3138C45.4171 44.5622 45.6301 44.7549 45.8923 44.8037C46.9195 44.9953 47.9682 45.0463 49.0059 44.9582C48.5249 41.8426 49.4785 38.5543 51.904 36.0839Z" fill="#CABD2A"/>
<path d="M38.9712 41.4777C39.3438 41.3788 39.6325 41.062 39.7058 40.6719C40.7157 35.2969 39.1222 29.5211 34.9795 25.4893C30.8368 21.4576 25.1613 20.1594 20.0288 21.5223C19.6562 21.6212 19.3675 21.9381 19.2942 22.3283C18.2843 27.7033 19.8778 33.4791 24.0205 37.5109C28.1632 41.5424 33.8387 42.8406 38.9712 41.4777Z" fill="#D6C843"/>
<path d="M52.782 61.4347C51.9429 61.4347 51.2627 60.7545 51.2627 59.9154V53.3806C51.2627 52.5414 51.9429 51.8613 52.782 51.8613C53.6211 51.8613 54.3013 52.5415 54.3013 53.3806V59.9154C54.3015 60.7546 53.6213 61.4347 52.782 61.4347Z" fill="#AAA211"/>
<path d="M20.9861 66.6107C20.147 66.6107 19.4668 65.9305 19.4668 65.0914V61.8103C19.4668 60.971 20.147 60.291 20.9861 60.291C21.8252 60.291 22.5054 60.9712 22.5054 61.8103V65.0914C22.5056 65.9307 21.8254 66.6107 20.9861 66.6107Z" fill="#AAA211"/>
<path d="M43.3542 57.9646C42.5151 57.9646 41.8349 57.2844 41.8349 56.4453C41.8349 49.4683 39.6381 43.022 35.3053 37.2858C32.0416 32.9648 28.7227 30.6915 28.6895 30.6689C27.9955 30.1988 27.8126 29.2548 28.2817 28.5602C28.7509 27.8655 29.6931 27.6815 30.3883 28.1495C30.5378 28.2502 34.0916 30.6689 37.6564 35.3571C40.9489 39.687 44.8735 46.8603 44.8735 56.4453C44.8735 57.2846 44.1933 57.9646 43.3542 57.9646Z" fill="#AAA211"/>
<path d="M43.4432 57.9649C42.6042 57.9649 41.924 57.2847 41.924 56.4456C41.924 41.4742 51.1707 35.6478 51.5644 35.407C52.2806 34.9691 53.2155 35.1948 53.6532 35.9104C54.0899 36.6249 53.8664 37.5574 53.1544 37.9964C53.1078 38.0257 51.0621 39.3304 49.0499 42.2213C46.3378 46.1183 44.9627 50.9039 44.9627 56.4454C44.9625 57.2848 44.2823 57.9649 43.4432 57.9649Z" fill="#AAA211"/>
<path d="M36.1693 61.7823C35.3302 61.7823 34.65 61.1021 34.65 60.263C34.65 56.2365 32.9129 54.5101 32.8954 54.4939C32.2807 53.9228 32.2452 52.9615 32.8163 52.3467C33.3874 51.732 34.3487 51.6963 34.9636 52.2676C36.2458 53.4599 37.6888 56.3357 37.6888 60.263C37.6888 61.1023 37.0086 61.7823 36.1693 61.7823Z" fill="#AAA211"/>
<path d="M59.9999 48.889C60.0034 48.7621 59.9405 48.6427 59.8399 48.5847C58.4552 47.7868 56.7478 47.7775 55.3077 48.7304C53.8676 49.6833 53.0484 51.3647 53.0001 53.111C52.9966 53.2379 53.0595 53.3573 53.1601 53.4153C54.5448 54.2132 56.2522 54.2225 57.6923 53.2696C59.1324 52.3167 59.9516 50.6351 59.9999 48.889Z" fill="#CABD2A"/>
<path d="M15.0001 57.7408C14.9971 57.6351 15.051 57.5355 15.1371 57.4873C16.324 56.8223 17.7876 56.8146 19.0219 57.6087C20.2562 58.4029 20.9584 59.8039 20.9999 61.2592C21.0029 61.3649 20.949 61.4645 20.8629 61.5127C19.676 62.1777 18.2124 62.1854 16.9781 61.3913C15.7438 60.5971 15.0414 59.1959 15.0001 57.7408Z" fill="#CABD2A"/>
<path d="M18.1054 59.6C17.1834 58.9988 16.5587 58.0542 16.2841 57C15.8857 57.0776 15.4985 57.2202 15.1371 57.4254C15.0509 57.4744 14.9971 57.5754 15.0001 57.6824C15.0416 59.1574 15.7437 60.5779 16.9781 61.383C18.2126 62.1881 19.676 62.18 20.8629 61.5061C20.9491 61.4572 21.0029 61.3561 20.9999 61.2491C20.9894 60.8757 20.9363 60.5057 20.8431 60.1484C19.933 60.3258 18.9639 60.16 18.1054 59.6Z" fill="#AAA211"/>
<path d="M61.5653 62.9963C61.3165 63.0098 61.07 63.0314 60.8258 63.0598C60.5385 63.0934 60.2643 62.9328 60.136 62.6643C58.8691 60.0144 56.1708 58.2578 53.1397 58.4224C52.4484 58.46 51.7852 58.5963 51.1603 58.8158C50.9157 58.9017 50.6453 58.84 50.4609 58.6526C48.606 56.7694 46.0626 55.6135 43.2606 55.6301C40.4587 55.6468 37.9282 56.8331 36.0946 58.7384C35.9123 58.9278 35.6424 58.9927 35.397 58.9097C34.7698 58.6977 34.105 58.5694 33.4133 58.5401C30.3807 58.4116 27.7021 60.2003 26.4648 62.8651C26.3394 63.1352 26.0672 63.299 25.7795 63.2689C25.5348 63.2434 25.2881 63.2249 25.0391 63.2143C19.5235 62.9808 14.6969 66.4798 12.8274 71.5421C12.8269 71.5436 12.8267 71.545 12.8262 71.5465C20.8245 79.055 31.4359 83.6299 43.0789 83.6299C54.9642 83.6299 65.7729 78.8609 73.8262 71.0719C71.8728 66.0906 67.0391 62.6989 61.5653 62.9963Z" fill="#BA6831"/>
<path d="M32.7285 73.269C32.9563 73.1507 33.1014 72.9129 33.101 72.6516C33.0937 66.9868 37.5478 62.3732 43.1003 62.3153C43.3558 62.3126 43.587 62.1617 43.7001 61.9275C43.9893 61.3292 44.3615 60.7604 44.8199 60.2401C45.9598 58.9464 47.4421 58.1567 49 57.8826C47.3405 56.6872 45.3158 55.9873 43.1308 56.0002C40.3567 56.0166 37.8517 57.1747 36.0363 59.0349C35.8559 59.2198 35.5887 59.2832 35.3457 59.2022C34.7248 58.9952 34.0666 58.87 33.3819 58.8413C30.3794 58.7159 27.7276 60.4622 26.5027 63.0639C26.3785 63.3276 26.1091 63.4875 25.8242 63.4581C25.5821 63.4332 25.3377 63.4152 25.0912 63.4049C19.6306 63.1769 14.8523 66.593 13.0014 71.5354C13.0009 71.5369 13.0007 71.5383 13 71.5397C17.5251 75.7289 22.8959 78.9804 28.8183 81C28.3595 77.7818 29.9688 74.702 32.7285 73.269Z" fill="#A85822"/>
<path d="M68.6298 30.2266C68.6642 30.3918 68.683 30.5602 68.683 30.7295L63.3135 63.7977H78.133L74.4435 58.3458L71.9135 54.6071V30.2266H68.6298Z" fill="white"/>
<path d="M55.5663 64.2624L64.0239 62.7479L68.6541 55.9057C69.2269 55.0593 69.5329 54.0609 69.5329 53.0389V30.2266H62.1001V54.6071L59.5701 58.3458L55.5663 64.2624Z" fill="#E8D6FF"/>
<path d="M60.2148 28.5293H67.8345V33.7418H60.2148V28.5293Z" fill="#E8D6FF"/>
<path d="M68.5953 57.5832C69.7579 57.5832 70.7004 56.6407 70.7004 55.4781C70.7004 54.3155 69.7579 53.373 68.5953 53.373C67.4327 53.373 66.4902 54.3155 66.4902 55.4781C66.4902 56.6407 67.4327 57.5832 68.5953 57.5832Z" fill="#F5415F"/>
<path d="M69.5013 53.5802C69.2266 53.4488 68.9201 53.373 68.5953 53.373C67.4327 53.373 66.4902 54.3155 66.4902 55.4781C66.4902 56.3071 66.9707 57.0222 67.6673 57.3654L68.6546 55.9064C69.1256 55.2102 69.4129 54.4106 69.5013 53.5802Z" fill="#CD2846"/>
<path d="M65.8781 45.0364C66.6947 45.0364 67.3567 44.3744 67.3567 43.5578C67.3567 42.7411 66.6947 42.0791 65.8781 42.0791C65.0614 42.0791 64.3994 42.7411 64.3994 43.5578C64.3994 44.3744 65.0614 45.0364 65.8781 45.0364Z" fill="#CD2846"/>
<path d="M67.5371 37.96C68.6175 37.96 69.4932 37.0843 69.4932 36.0039C69.4932 34.9236 68.6175 34.0479 67.5371 34.0479C66.4568 34.0479 65.5811 34.9236 65.5811 36.0039C65.5811 37.0843 66.4568 37.96 67.5371 37.96Z" fill="#CD2846"/>
<path d="M64.9578 26.4668C66.1068 26.4668 67.0383 25.5353 67.0383 24.3862C67.0383 23.2372 66.1068 22.3057 64.9578 22.3057C63.8087 22.3057 62.8772 23.2372 62.8772 24.3862C62.8772 25.5353 63.8087 26.4668 64.9578 26.4668Z" fill="#F5415F"/>
<path d="M74.7359 58.7767C74.7359 60.0939 73.5205 63.5466 70.6509 63.5466C67.7813 63.5466 63.9463 63.4178 63.9463 62.1006C63.9463 60.7835 67.8287 59.2955 70.6509 58.7769C72.7478 58.3913 74.7359 58.7767 74.7359 58.7767Z" fill="#CD2846"/>
<path d="M73.7932 33.7419H67.5633C66.1239 33.7419 64.957 32.575 64.957 31.1356C64.957 29.6962 66.1239 28.5293 67.5633 28.5293H73.7932V33.7419Z" fill="white"/>
<path d="M82.0735 69.6211L74.7354 58.7773C72.7139 60.0249 70.2508 60.5867 67.9002 60.5125C67.0222 60.4848 66.1819 60.3184 65.3459 60.1314L58.2908 67.7293C57.5522 68.5249 57.2059 69.6079 57.3461 70.6844C57.6639 73.1228 59.7412 74.9472 62.2004 74.9472H79.2468C81.9836 74.9472 83.6075 71.8877 82.0735 69.6211Z" fill="#F5415F"/>
<path d="M59.3736 69.6211L65.7378 60.2166C64.7503 60.0073 63.7761 59.744 62.761 59.6184C61.2315 59.4292 59.6832 59.5811 58.2881 60.2415L51.9409 69.6209C50.407 71.8875 52.0308 74.947 54.7677 74.947H62.2006C59.4635 74.9472 57.8398 71.8877 59.3736 69.6211Z" fill="#CD2846"/>
<path d="M67.5579 65.4151C68.3211 65.4151 68.9398 64.7965 68.9398 64.0333C68.9398 63.2701 68.3211 62.6514 67.5579 62.6514C66.7947 62.6514 66.176 63.2701 66.176 64.0333C66.176 64.7965 66.7947 65.4151 67.5579 65.4151Z" fill="#CD2846"/>
<path d="M73.3194 70.9702C74.3481 70.9702 75.182 70.1363 75.182 69.1076C75.182 68.079 74.3481 67.2451 73.3194 67.2451C72.2908 67.2451 71.4569 68.079 71.4569 69.1076C71.4569 70.1363 72.2908 70.9702 73.3194 70.9702Z" fill="#CD2846"/>
<path d="M42.6125 19.1936C42.6122 19.1932 42.612 19.1931 42.6115 19.1926C42.5877 16.4372 44.8142 14.1959 47.5642 14.1959C48.2141 14.1959 48.8341 14.3224 49.4027 14.5499C50.501 12.5823 52.6026 11.251 55.016 11.251C58.15 11.251 60.7586 13.4955 61.3256 16.4644C61.4946 16.4401 61.6672 16.427 61.8429 16.427C63.547 16.427 64.9747 17.6066 65.3563 19.1936H42.6125Z" fill="white"/>
<path d="M47.4452 19.1932C47.445 19.193 47.4449 19.1928 47.4447 19.1927C47.4311 17.6081 48.7112 16.3194 50.2926 16.3194C50.6664 16.3194 51.0229 16.3921 51.3499 16.523C51.9815 15.3917 53.1898 14.626 54.5776 14.626C56.3799 14.626 57.8799 15.9167 58.2059 17.6239C58.303 17.6099 58.4023 17.6024 58.5033 17.6024C59.4831 17.6024 60.3041 18.2806 60.5236 19.1933H47.4452V19.1932Z" fill="#DFEBFF"/>
</svg>
