<svg width="85" height="84" viewBox="0 0 85 84" fill="none" xmlns="http://www.w3.org/2000/svg">
<g clip-path="url(#clip0_1145_3077)">
<mask id="mask0_1145_3077" style="mask-type:luminance" maskUnits="userSpaceOnUse" x="0" y="0" width="85" height="84">
<path d="M84.5 0H0.5V84H84.5V0Z" fill="white"/>
</mask>
<g mask="url(#mask0_1145_3077)">
<path d="M84.5003 41.9795C84.5003 65.1636 65.7056 83.9583 42.5208 83.9583C19.3368 83.9583 0.541992 65.1636 0.541992 41.9795C0.541992 18.7948 19.3368 0 42.5208 0C65.7056 0 84.5003 18.7948 84.5003 41.9795Z" fill="#75BDEF"/>
<path d="M35.3432 14.708H10.6076C7.327 18.5436 4.72571 22.9778 2.99023 27.8241H30.3515C31.5877 27.8241 32.5913 26.7916 32.5349 25.5362C32.4818 24.3583 31.4685 23.4508 30.2893 23.4508H27.9726C26.7107 23.4508 25.7167 22.3901 25.7904 21.134C25.859 19.9689 26.8677 19.0801 28.0354 19.0801H35.4054C36.6301 19.0801 37.6375 18.0617 37.5895 16.8075C37.544 15.6238 36.5276 14.708 35.3432 14.708Z" fill="#A0D5FF"/>
<path d="M37.0639 5.96484H40.3208C41.5282 5.96484 42.5068 6.94345 42.5068 8.1502C42.5068 9.3576 41.5282 10.3362 40.3208 10.3362H37.0639C35.8565 10.3362 34.8779 9.3576 34.8779 8.1502C34.8779 6.94345 35.8565 5.96484 37.0639 5.96484Z" fill="#A0D5FF"/>
<path d="M5.48047 61.748C12.5493 74.9653 26.4837 83.9586 42.5201 83.9586C58.5566 83.9586 72.491 74.9653 79.5605 61.748H5.48047Z" fill="#AFBC31"/>
<path d="M48.9096 61.748H5.48047C12.5493 74.9653 26.4837 83.9586 42.5201 83.9586C43.948 83.9586 45.3586 83.8856 46.7499 83.7465C33.9985 81.6502 35.0611 61.748 48.9096 61.748Z" fill="#9FA519"/>
<path d="M26.8773 80.9452C29.4722 78.7266 31.1545 75.4716 31.2782 71.8193H12.9961C16.9374 75.719 21.6465 78.8432 26.8773 80.9452Z" fill="#5D5D84"/>
<path d="M83.1633 69.4014C82.8896 69.5225 82.5846 69.5917 82.2571 69.5917H64.1577C63.347 70.3223 62.328 70.9081 61.0027 71.3061C60.9533 71.7335 60.9258 72.168 60.9258 72.6083C60.9258 78.8767 66.0079 83.9581 72.2762 83.9581C78.5446 83.9581 83.626 78.8767 83.626 72.6083C83.626 71.4938 83.4632 70.4185 83.1633 69.4014Z" fill="#5D5D84"/>
<path d="M78.9874 81.4946C77.1641 81.4946 75.6869 80.0168 75.6869 78.1942C75.6869 77.7558 75.7741 77.338 75.9298 76.9554L75.926 76.9528C75.926 76.9528 71.4764 75.2301 72.9716 69.7725C72.9889 69.7116 73.0036 69.652 73.0203 69.5918H64.1577C63.3476 70.3224 62.328 70.9075 61.0027 71.3061C60.9533 71.7336 60.9258 72.1674 60.9258 72.6084C60.9258 78.8767 66.0079 83.9581 72.2762 83.9581C74.9576 83.9581 77.4205 83.0263 79.3623 81.4716C79.2393 81.4857 79.1143 81.4946 78.9874 81.4946Z" fill="#494970"/>
<path d="M66.6016 72.6084C66.6016 75.7428 69.142 78.2832 72.2765 78.2832C75.4103 78.2832 77.9514 75.7428 77.9514 72.6084C77.9514 71.4996 77.6322 70.4659 77.0823 69.5918H67.4706C66.9207 70.4659 66.6016 71.4996 66.6016 72.6084Z" fill="#FAB941"/>
<path d="M72.6161 71.7944C72.6161 71.0126 72.7783 70.2692 73.0641 69.5918H67.4706C66.9207 70.4659 66.6016 71.4996 66.6016 72.6084C66.6016 75.7428 69.142 78.2832 72.2765 78.2832C73.6665 78.2832 74.9393 77.7827 75.9262 76.9528C73.9735 76.0556 72.6161 74.0843 72.6161 71.7944Z" fill="#F6A221"/>
<path d="M84.255 66.5469C82.0056 62.1775 77.0907 59.1885 71.8375 59.1885C71.1294 59.1885 70.4353 59.2455 69.7566 59.3506C68.4909 60.2991 67.5514 61.7083 67.0566 63.406C66.3196 65.9362 65.5474 68.1939 63.7959 69.7724H82.2568C83.9141 69.7724 85.0138 68.0196 84.255 66.5469Z" fill="#E2E9F2"/>
<path d="M70.6115 65.2088C70.6115 62.3729 72.7206 60.0318 75.4559 59.6653C74.2882 59.3551 73.0725 59.1885 71.8375 59.1885C71.1294 59.1885 70.4353 59.2455 69.7566 59.3506C68.4909 60.2991 67.5514 61.7083 67.0566 63.406C66.3196 65.9362 65.5474 68.1939 63.7959 69.7724H72.9712C71.544 68.7586 70.6115 67.0929 70.6115 65.2088Z" fill="#C7D6E5"/>
<path d="M3.86932 49.7197C2.82535 49.7197 1.93198 50.3849 1.58398 51.3109C2.25754 54.2788 3.24704 57.1262 4.51276 59.8185C4.79282 59.7409 5.05365 59.6153 5.28436 59.45C5.58301 58.9315 5.90985 58.4323 6.26233 57.9523C6.29437 57.7953 6.31168 57.6325 6.31168 57.4659V52.162C6.31168 50.8188 5.21259 49.7197 3.86932 49.7197Z" fill="#FAB941"/>
<path d="M3.86908 55.1855C3.37625 55.1855 2.91739 55.0362 2.53223 54.7831C3.08594 56.5134 3.7486 58.1944 4.51251 59.8184C4.79257 59.7408 5.05341 59.6152 5.28412 59.4499C5.58276 58.9321 5.90961 58.4322 6.26208 57.9528C6.29413 57.7952 6.31143 57.6324 6.31143 57.4658V52.7432C6.31143 54.0865 5.21234 55.1855 3.86908 55.1855Z" fill="#F6A221"/>
<path d="M6.31107 52.1616V58.0076C6.31107 58.1755 6.29376 58.3396 6.26108 58.4985C9.19305 54.5014 13.9227 51.001 19.2598 51.001H6.01562C6.2034 51.3471 6.31107 51.7425 6.31107 52.1616Z" fill="#494970"/>
<path d="M34.8047 47.7627H16.0022C15.0608 47.7627 14.2969 48.5266 14.2969 49.468V52.143C15.8606 51.6374 17.5281 51.3631 19.2598 51.3631C24.3098 51.3631 28.8158 53.6862 31.7702 57.3213C32.4546 53.4395 34.0683 50.744 35.4571 49.3988C36.0723 48.8028 35.6615 47.7627 34.8047 47.7627Z" fill="#E2E9F2"/>
<path d="M24.0105 50.3973C24.0105 49.0291 25.0859 47.9152 26.4375 47.8486V47.7627H16.0022C15.0608 47.7627 14.2969 48.526 14.2969 49.468V52.1424C15.8606 51.6367 17.5281 51.3625 19.2598 51.3625C21.2849 51.3625 23.2223 51.7374 25.0077 52.4193C24.4021 51.9521 24.0105 51.2208 24.0105 50.3973Z" fill="#C7D6E5"/>
<path d="M39.4093 45.5019C39.4093 44.1529 38.3159 43.0596 36.9669 43.0596H14.8076C13.4586 43.0596 12.3652 44.1529 12.3652 45.5019C12.3652 46.8503 13.4586 47.9436 14.8076 47.9436H36.9669C38.3159 47.9436 39.4093 46.8503 39.4093 45.5019Z" fill="#5D5D84"/>
<path d="M23.451 45.5019C23.451 44.1529 24.5443 43.0596 25.8927 43.0596H14.8076C13.4586 43.0596 12.3652 44.1529 12.3652 45.5019C12.3652 46.8503 13.4586 47.9436 14.8076 47.9436H25.8927C24.5443 47.9436 23.451 46.8503 23.451 45.5019Z" fill="#494970"/>
<path d="M29.8271 71.6387V74.563C29.8271 75.7569 30.8038 76.7343 31.9978 76.7343H43.636C44.8299 76.7343 45.8066 75.7576 45.8066 74.563V71.6387H29.8271Z" fill="#717196"/>
<path d="M37.8169 74.563V71.6387H29.8271V74.563C29.8271 75.7569 30.8038 76.7343 31.9978 76.7343H39.9875C38.7935 76.7343 37.8169 75.7576 37.8169 74.563Z" fill="#5D5D84"/>
<path d="M56.6552 69.9991C56.6552 69.1115 57.239 68.3219 58.0933 68.0803C58.556 67.9496 59.0854 67.7663 59.6122 67.5138C59.2289 67.2626 58.7707 67.1152 58.2772 67.1152H35.0137C36.3621 67.1152 37.456 68.2085 37.456 69.5575C37.456 70.9065 36.3627 71.9999 35.0137 71.9999H58.2772C58.3458 71.9999 58.4124 71.9947 58.4791 71.9896C57.4678 71.8992 56.6552 71.0539 56.6552 69.9991Z" fill="#5D5D84"/>
<path d="M56.6551 69.9991C56.6551 69.1115 57.2389 68.3219 58.0932 68.0803C58.5559 67.9496 59.0852 67.7663 59.612 67.5138C59.2281 67.2626 58.7706 67.1152 58.2771 67.1152H51.8018C52.7842 67.4926 53.4828 68.4424 53.4828 69.5575C53.4828 70.6726 52.7842 71.6224 51.8018 71.9999H58.2771C58.3457 71.9999 58.4123 71.9947 58.479 71.9896C57.4677 71.8992 56.6551 71.0539 56.6551 69.9991Z" fill="#494970"/>
<path d="M62.4442 63.5869C62.4442 60.3108 60.3691 47.5588 59.4873 42.2832L57.5679 46.0028C56.1887 48.6739 56.2079 51.852 57.6185 54.5065L62.4442 63.5869Z" fill="#C7D6E5"/>
<path d="M61.2413 53.3144C60.6248 49.1687 59.9154 44.8447 59.4873 42.2832L57.5679 46.0028C56.1887 48.6746 56.2079 51.852 57.6185 54.5065C58.6388 56.4265 61.5611 55.4646 61.2413 53.3144Z" fill="#E2E9F2"/>
<path d="M4.73145 60.2814C5.93756 62.7667 7.38207 65.1142 9.03424 67.2964H35.3746C35.3746 58.3966 28.1597 51.001 19.2599 51.001C12.8609 51.001 7.33273 54.8244 4.73145 60.2814Z" fill="#F5585C"/>
<path d="M24.5228 51.9008C22.8732 51.3189 21.1031 51.001 19.2599 51.001C12.8609 51.001 7.33273 54.8244 4.73145 60.2814C5.93756 62.7667 7.38207 65.1142 9.03424 67.2964H28.5167C19.3362 67.2964 17.7808 55.3064 24.5228 51.9008Z" fill="#D13044"/>
<path d="M65.6318 29.8789V41.0807C68.4433 41.0807 70.7434 38.9005 70.7434 36.2351V34.7246C70.7434 32.0592 68.4433 29.8789 65.6318 29.8789Z" fill="#82B4F2"/>
<path d="M67.6371 36.2351V34.7246C67.6371 33.3678 68.2338 32.1374 69.1906 31.2555C68.2684 30.4051 67.0123 29.8789 65.6318 29.8789V41.0807C67.0123 41.0807 68.2684 40.5545 69.1906 39.7041C68.2344 38.8223 67.6371 37.5918 67.6371 36.2351Z" fill="#6393E4"/>
<path d="M74.1162 53.2037C73.0318 50.7632 71.6623 49.2162 70.5696 48.2818C69.2142 47.1231 68.142 45.669 67.4832 44.0123C67.0391 42.8953 65.9592 42.1621 64.7576 42.1621H59.1109C59.1083 42.1653 59.1077 42.166 59.1051 42.1692C59.976 47.3718 62.0813 60.2878 62.0813 63.5877C62.0813 66.3953 59.4454 67.597 57.7311 68.0808C56.8762 68.3224 56.293 69.112 56.293 70.0002C56.293 71.1807 57.3107 72.1023 58.486 71.9914C64.9396 71.3794 66.3187 67.8014 67.5992 63.4063C68.2894 61.0377 69.8422 59.2253 71.9462 58.4511C74.0752 57.6673 75.0378 55.2775 74.1162 53.2037Z" fill="#FAB941"/>
<path d="M15.3055 58.9514H13.2893C12.5402 58.9514 11.9326 58.3438 11.9326 57.5947C11.9326 56.8449 12.5402 56.2373 13.2893 56.2373H15.3055C16.0553 56.2373 16.6629 56.8449 16.6629 57.5947C16.6629 58.3438 16.0553 58.9514 15.3055 58.9514Z" fill="#B7253D"/>
<path d="M15.3055 63.1047H13.2893C12.5402 63.1047 11.9326 62.4971 11.9326 61.7473C11.9326 60.9981 12.5402 60.3906 13.2893 60.3906H15.3055C16.0553 60.3906 16.6629 60.9981 16.6629 61.7473C16.6629 62.4971 16.0553 63.1047 15.3055 63.1047Z" fill="#B7253D"/>
<path d="M58.6128 42.1619H64.9395C65.5105 42.1619 65.9732 41.6992 65.9732 41.1282V29.8316C65.9732 29.2606 65.5105 28.7979 64.9395 28.7979H61.3506C59.2678 28.7979 57.5791 30.4866 57.5791 32.5694V41.1282C57.5791 41.6992 58.0418 42.1619 58.6128 42.1619Z" fill="#FAB941"/>
<path d="M63.8244 35.4808H59.7279C58.541 35.4808 57.5791 34.5183 57.5791 33.332V41.1288C57.5791 41.6998 58.0418 42.1625 58.6128 42.1625H64.9395C65.5105 42.1625 65.9726 41.6998 65.9726 41.1288V33.332C65.9732 34.5183 65.0113 35.4808 63.8244 35.4808Z" fill="#F6A221"/>
<path d="M62.0816 30.1547C61.3324 30.1547 60.7249 29.5472 60.7249 28.798V26.6556C60.7249 24.5554 59.0163 22.8462 56.9155 22.8462H55.6985C54.9493 22.8462 54.3418 22.2387 54.3418 21.4895C54.3418 20.7397 54.9493 20.1328 55.6985 20.1328H56.9155C60.5121 20.1328 63.4389 23.059 63.4389 26.6556V28.798C63.4389 29.5472 62.8314 30.1547 62.0816 30.1547Z" fill="#5D5D84"/>
<path d="M62.584 35.6612C62.584 34.3121 61.4906 33.2188 60.1416 33.2188H55.0166C53.6682 33.2188 52.5742 34.3121 52.5742 35.6612C52.5742 37.0102 53.6675 38.1035 55.0166 38.1035H60.1416C61.4906 38.1029 62.584 37.0102 62.584 35.6612Z" fill="#717196"/>
<path d="M57.9857 35.6612C57.9857 34.3121 56.8924 33.2188 55.5434 33.2188H55.0159C53.6675 33.2188 52.5742 34.3121 52.5742 35.6612C52.5742 37.0102 53.6675 38.1035 55.0159 38.1035H55.5434C56.8924 38.1029 57.9857 37.0102 57.9857 35.6612Z" fill="#5D5D84"/>
<path d="M54.4736 16.4854C53.1246 16.4854 52.0312 17.5787 52.0312 18.9271V24.0521C52.0312 25.4011 53.1246 26.4945 54.4736 26.4945C55.822 26.4945 56.9153 25.4011 56.9153 24.0521V18.9271C56.9153 17.5787 55.822 16.4854 54.4736 16.4854Z" fill="#E2E9F2"/>
<path d="M54.4736 22.0315C53.1246 22.0315 52.0312 20.9388 52.0312 19.5898V24.0515C52.0312 25.3999 53.1246 26.4939 54.4736 26.4939C55.822 26.4939 56.9153 25.4005 56.9153 24.0515V19.5898C56.9153 20.9388 55.822 22.0315 54.4736 22.0315Z" fill="#C7D6E5"/>
<path d="M75.2871 54.5141C75.2871 53.1869 74.2015 52.1006 72.8736 52.1006H69.8686C68.5407 52.1006 67.4551 53.1869 67.4551 54.5141C67.4551 55.842 68.5407 56.9276 69.8686 56.9276H72.8736C74.2015 56.9276 75.2871 55.842 75.2871 54.5141Z" fill="#FAD964"/>
<path d="M71.0093 54.5141C71.0093 53.2798 71.9495 52.255 73.1486 52.1173C73.0582 52.107 72.9666 52.1006 72.8736 52.1006H69.8686C68.5407 52.1006 67.4551 53.1869 67.4551 54.5141C67.4551 55.842 68.5414 56.9276 69.8686 56.9276H72.8736C72.9666 56.9276 73.0582 56.9212 73.1486 56.911C71.9489 56.7732 71.0093 55.7491 71.0093 54.5141Z" fill="#F6A221"/>
<path d="M20.1527 77.507C22.7963 76.8892 24.7977 74.6032 24.9868 71.8193H12.9961C15.1635 73.9636 17.5623 75.8728 20.1527 77.507Z" fill="#F5585C"/>
<path d="M18.1013 71.8193H12.9961C15.1629 73.9636 17.5623 75.8728 20.1527 77.507C20.6404 77.3923 21.1069 77.2224 21.544 77.002C19.6143 76.0279 18.2551 74.0892 18.1013 71.8193Z" fill="#D13044"/>
<path d="M35.3753 67.1152H8.89648C10.1975 68.8532 11.6324 70.4849 13.1826 71.9992H35.3753C36.7243 71.9992 37.8176 70.9059 37.8176 69.5575C37.8176 68.2085 36.7243 67.1152 35.3753 67.1152Z" fill="#E2E9F2"/>
<path d="M26.7094 67.1152H8.89648C10.1975 68.8532 11.6324 70.4849 13.1826 71.9992H26.7094C25.3604 71.9992 24.2671 70.9059 24.2671 69.5575C24.2671 68.2085 25.3604 67.1152 26.7094 67.1152Z" fill="#C7D6E5"/>
<path d="M67.6479 59.9388C64.8454 59.9388 62.4229 58.3181 61.2629 55.9629C61.7339 59.3172 62.0819 62.2459 62.0819 63.5866C62.0819 66.3949 59.4454 67.5959 57.7311 68.0804C56.8762 68.322 56.293 69.1116 56.293 69.9992C56.293 71.1797 57.3113 72.1019 58.486 71.9904C64.9396 71.379 66.3187 67.801 67.5992 63.4059C68.0677 61.7993 68.9328 60.4502 70.0973 59.5056C69.3334 59.7856 68.5086 59.9388 67.6479 59.9388Z" fill="#F6A221"/>
<path d="M28.5301 56.9945C27.5387 56.7715 26.5537 57.3944 26.3306 58.3858C26.107 59.3773 26.7299 60.3623 27.7213 60.5853C28.7134 60.809 29.6978 60.186 29.9214 59.1946C30.1445 58.2032 29.5215 57.2182 28.5301 56.9945Z" fill="#FC757E"/>
<path d="M24.991 59.2869C24.4001 59.1536 23.8131 59.5247 23.6804 60.1155C23.5471 60.7064 23.9182 61.2935 24.5091 61.4261C25.1 61.5594 25.6864 61.1884 25.8197 60.5975C25.9523 60.0066 25.5813 59.4202 24.991 59.2869Z" fill="#FC757E"/>
<path d="M1.29883 21.2659H5.63303V17.6738L1.29883 21.2659Z" fill="#D13044"/>
<path d="M23.0391 17.6738V21.2659H27.3124L23.0391 17.6738Z" fill="#F5585C"/>
<path d="M20.2161 16.4854H8.45483C6.27524 16.4854 4.50195 18.2587 4.50195 20.4383V21.2663H7.33652V20.2973C7.33652 19.657 7.85754 19.136 8.49841 19.136H20.1725C20.8134 19.136 21.3344 19.657 21.3344 20.2973V21.2663H24.1689V20.4383C24.1689 18.2587 22.3957 16.4854 20.2161 16.4854Z" fill="#FC757E"/>
<path d="M13.5504 17.8075C13.5504 17.2346 13.8721 16.7372 14.3451 16.4854H8.45483C6.27524 16.4854 4.50195 18.2587 4.50195 20.4383V21.2663H7.33652V20.2979C7.33652 19.657 7.85754 19.136 8.49841 19.136H14.356C13.8772 18.8854 13.5504 18.3856 13.5504 17.8075Z" fill="#F5585C"/>
<path d="M25.2856 20.2109H3.32495C1.77084 20.2109 0.5 21.4817 0.5 23.0358V40.2342C0.5 41.7877 1.77084 43.0592 3.32495 43.0592H25.2856C26.8397 43.0592 28.1106 41.7877 28.1106 40.2342V23.0358C28.1106 21.4817 26.8397 20.2109 25.2856 20.2109Z" fill="#E2E9F2"/>
<path d="M5.02646 40.2342V23.0358C5.02646 21.4824 6.29794 20.2109 7.85141 20.2109H3.32495C1.77084 20.2109 0.5 21.4817 0.5 23.0358V40.2342C0.5 41.7877 1.77084 43.0592 3.32495 43.0592H7.85141C6.29794 43.0592 5.02646 41.7877 5.02646 40.2342Z" fill="#C7D6E5"/>
<path d="M9.05083 51.6288L4.8134 43.5064C4.46669 42.8419 4.72432 42.0228 5.38826 41.6761C6.05284 41.3288 6.87251 41.5864 7.21922 42.251L11.4566 50.3733C11.8034 51.0379 11.5457 51.8576 10.8818 52.2043C10.2185 52.5497 9.39882 52.2947 9.05083 51.6288Z" fill="#717196"/>
<path d="M11.4567 50.3727L9.39819 46.4268C9.31424 47.6169 8.02417 48.2892 7.00391 47.7034L9.05148 51.6281C9.39819 52.2933 10.2179 52.5497 10.8818 52.2036C11.5457 51.8569 11.8034 51.0372 11.4567 50.3727Z" fill="#494970"/>
<path d="M20.2085 28.1847C18.3032 24.8842 14.0831 23.7537 10.7826 25.659C7.4821 27.5643 6.35097 31.7851 8.25691 35.0855C10.1622 38.3854 14.3823 39.5165 17.6828 37.6106C20.9833 35.7053 22.1144 31.4851 20.2085 28.1847Z" fill="#FAB941"/>
<path d="M12.4969 32.6373C11.0229 30.0835 11.3677 26.9797 13.1269 24.8232C12.3232 24.9533 11.5292 25.2276 10.7826 25.6589C7.4821 27.5642 6.35097 31.785 8.25691 35.0855C10.1622 38.3859 14.3823 39.5164 17.6835 37.6111C18.4301 37.1798 19.0645 36.6293 19.5792 35.9987C16.8317 36.4441 13.9715 35.1906 12.4969 32.6373Z" fill="#F6A221"/>
<path d="M17.0578 30.7872H11.6143C10.9349 30.7872 10.3838 30.2366 10.3838 29.5567C10.3838 28.8774 10.9349 28.3262 11.6143 28.3262H17.0578C17.7378 28.3262 18.2883 28.8774 18.2883 29.5567C18.2883 30.2366 17.7371 30.7872 17.0578 30.7872Z" fill="#FAD964"/>
<path d="M17.0578 34.9433H11.6143C10.9349 34.9433 10.3838 34.3928 10.3838 33.7128C10.3838 33.0335 10.9349 32.4824 11.6143 32.4824H17.0578C17.7378 32.4824 18.2883 33.0335 18.2883 33.7128C18.2883 34.3928 17.7371 34.9433 17.0578 34.9433Z" fill="#FAD964"/>
<path d="M61.7224 4.63965C61.3879 5.41895 60.6144 5.96497 59.7127 5.96497H50.9674C49.7709 5.96497 48.7812 6.93653 48.7812 8.15097C48.7812 9.35773 49.7606 10.3364 50.9674 10.3364H64.1609C65.367 10.3364 66.3462 11.315 66.3462 12.5224C66.3462 13.7291 65.3677 14.7077 64.1609 14.7077H59.5408C58.3443 14.7077 57.3549 15.6793 57.3549 16.8938C57.3549 18.1005 58.334 19.0798 59.5408 19.0798H77.707C73.7336 12.987 68.2221 7.98948 61.7224 4.63965Z" fill="#A0D5FF"/>
</g>
</g>
<defs>
<clipPath id="clip0_1145_3077">
<rect width="84" height="84" fill="white" transform="translate(0.5)"/>
</clipPath>
</defs>
</svg>
