<svg width="84" height="84" viewBox="0 0 84 84" fill="none" xmlns="http://www.w3.org/2000/svg">
<path d="M42 3.60938C19.8007 3.60938 1.80469 21.6054 1.80469 43.8047C1.80469 48.6055 2.64813 53.2088 4.19229 57.4765L4.39359 57.5497L10.0255 52.6153C11.3968 51.4216 13.1531 50.7641 14.9714 50.7641C16.7893 50.7641 18.5456 51.4215 19.917 52.6153L22.053 54.475V23.9891L21.9711 23.9416C20.8661 23.3015 20.1797 22.114 20.1797 20.8427C20.1797 18.8674 21.7867 17.2605 23.7618 17.2605H60.2382C62.2133 17.2605 63.8203 18.8675 63.8203 20.8427C63.8203 22.1141 63.1339 23.3015 62.0291 23.9416L61.9472 23.9891V53.5475L63.0177 52.6153C64.389 51.4216 66.1452 50.7641 67.9635 50.7641C69.7815 50.7641 71.5378 51.4215 72.9092 52.6153L79.3524 58.2251L79.5467 58.1769C81.2567 53.7139 82.1953 48.8693 82.1953 43.8047C82.1953 21.6054 64.1993 3.60938 42 3.60938Z" fill="#D8ECFE"/>
<path d="M62.5578 11.625L60.2035 9.27092L57.3296 12.1448C57.0957 12.3788 56.7846 12.5075 56.4537 12.5075C56.1229 12.5075 55.8119 12.3786 55.5779 12.1448C55.344 11.911 55.2152 11.5999 55.2152 11.269C55.2152 10.9381 55.344 10.6272 55.5779 10.3933L58.4518 7.51939L56.0978 5.16509C55.741 4.80825 55.1627 4.80825 54.8058 5.16509L49.1846 10.7864L57.1281 17.2606H58.2142L62.558 12.9169C62.9145 12.5604 62.9145 11.9819 62.5578 11.625Z" fill="#8D9CA8"/>
<path d="M61.8793 7.7043L60.0175 5.84252C59.9965 5.82152 59.9801 5.79756 59.9656 5.77246L55.4616 10.2768C54.9138 10.8246 54.9138 11.7127 55.4616 12.2603C56.0094 12.8081 56.8975 12.8081 57.4451 12.2603L61.9493 7.75614C61.9242 7.74187 61.9003 7.7253 61.8793 7.7043Z" fill="#7A8C98"/>
<path d="M67.1927 0.529737C67.899 1.23603 67.899 2.38118 67.1927 3.08747L62.4597 7.82051C62.2674 8.01279 61.9559 8.01279 61.7636 7.82051L59.902 5.95873C59.7097 5.76645 59.7097 5.45489 59.902 5.26261L64.635 0.529573C65.3413 -0.176552 66.4864 -0.176552 67.1927 0.529737Z" fill="#FD8087"/>
<path d="M57.3867 17.26L46.2744 8.20312C43.7854 6.17448 40.2134 6.17448 37.7246 8.20312L26.6123 17.26H57.3867Z" fill="#D88A55"/>
<path d="M43.8225 6.93325C41.7561 6.35641 39.4738 6.77887 37.7256 8.20391L26.6133 17.2608H30.2574L41.3697 8.20391C42.1101 7.60016 42.947 7.1777 43.8225 6.93325Z" fill="#C57A44"/>
<path d="M36.7167 13.5264C35.7674 13.5264 34.9683 14.1683 34.7296 15.042C34.6543 15.3171 34.8736 15.5862 35.1589 15.5862H38.2745C38.5598 15.5862 38.779 15.3171 38.7038 15.042C38.4651 14.1683 37.666 13.5264 36.7167 13.5264Z" fill="#F6A96C"/>
<path d="M49.0214 14.0186C48.0721 14.0186 47.273 14.6605 47.0342 15.5342C46.9591 15.8093 47.1783 16.0784 47.4636 16.0784H50.5791C50.8645 16.0784 51.0836 15.8093 51.0085 15.5342C50.7698 14.6605 49.9706 14.0186 49.0214 14.0186Z" fill="#F6A96C"/>
<path d="M73.0167 52.4912C70.1198 49.9691 65.8069 49.9691 62.9101 52.4912L61.9471 53.3296V64.622L61.9784 64.6402H75.7969L76.4771 64.4761C77.6751 62.4823 78.7041 60.3754 79.5467 58.1765L73.0167 52.4912Z" fill="#C57A44"/>
<path d="M18.0578 62.8449C19.2634 61.8623 20.6157 61.0873 22.0528 60.5349V54.257L20.0245 52.4912C17.1276 49.9691 12.8147 49.9691 9.91788 52.4912L4.19226 57.4762C5.07984 59.9291 6.19809 62.2716 7.52289 64.4763L8.24116 64.6404H15.8551L18.0578 62.8449Z" fill="#C57A44"/>
<path d="M41.9995 84C56.6387 84 69.4485 76.1731 76.4766 64.4766H7.52246C14.5506 76.1731 27.3604 84 41.9995 84Z" fill="#78A91F"/>
<path d="M62.1113 64.5281V24.0838C63.2299 23.4357 63.9844 22.2287 63.9844 20.8429C63.9844 18.7739 62.3072 17.0967 60.2382 17.0967H23.7618C21.6928 17.0967 20.0156 18.7739 20.0156 20.8429C20.0156 22.2287 20.7701 23.4359 21.8887 24.0838V60.5979C23.602 59.9157 25.441 59.5549 27.3036 59.5549C30.6625 59.5549 33.9458 60.7235 36.5494 62.8455L47.1867 71.5152H60.2382C62.3072 71.5152 63.9844 69.838 63.9844 67.769C63.9844 66.3832 63.2299 65.1762 62.1113 64.5281Z" fill="#FFBD86"/>
<path d="M27.1387 59.5588V24.5295C27.1387 24.2721 27.0227 24.0242 26.8144 23.873C25.8766 23.1926 25.2656 22.0901 25.2656 20.8429C25.2656 18.7739 26.9428 17.0967 29.0118 17.0967H23.8488C21.8083 17.0967 20.0766 18.6917 20.0171 20.7312C19.9752 22.1636 20.7399 23.4183 21.8885 24.0838V60.5979C23.5513 59.9359 25.3325 59.5795 27.1387 59.5588Z" fill="#F6A96C"/>
<path d="M41.9997 52.1854C48.1433 52.1854 53.1237 47.205 53.1237 41.0614C53.1237 34.9179 48.1433 29.9375 41.9997 29.9375C35.8561 29.9375 30.8758 34.9179 30.8758 41.0614C30.8758 47.205 35.8561 52.1854 41.9997 52.1854Z" fill="#FEE97D"/>
<path d="M42 49.2193C46.5053 49.2193 50.1575 45.5671 50.1575 41.0618C50.1575 36.5565 46.5053 32.9043 42 32.9043C37.4947 32.9043 33.8425 36.5565 33.8425 41.0618C33.8425 45.5671 37.4947 49.2193 42 49.2193Z" fill="#FED402"/>
<path d="M40.6098 48.0911C38.2026 46.6735 36.5862 44.057 36.5862 41.061C36.5862 40.4965 36.6456 39.9459 36.7547 39.4137C35.9303 39.0811 35.1361 38.6524 34.3886 38.127C34.0373 39.0377 33.8426 40.0265 33.8426 41.061C33.8426 45.0921 36.7672 48.4378 40.6097 49.0981V48.0911H40.6098Z" fill="#FAC600"/>
<path d="M40.7738 33.6812C40.2385 32.685 39.5543 31.7479 38.7133 30.9069C36.2867 28.4803 33.0707 27.3272 29.8918 27.4424C29.5964 27.4531 29.3601 27.6893 29.3495 27.9848C29.2343 31.1635 30.3873 34.3796 32.814 36.8061C35.0214 39.0136 37.8822 40.1635 40.7738 40.2672V33.6812Z" fill="#8BC727"/>
<path d="M40.6099 38.769C38.2456 38.3824 35.976 37.2816 34.1524 35.458C31.9312 33.2368 30.7804 30.3539 30.6894 27.4437C30.4236 27.4357 30.1578 27.4331 29.892 27.4427C29.5966 27.4534 29.3603 27.6897 29.3496 27.9851C29.2345 31.1638 30.3875 34.38 32.8141 36.8064C34.9798 38.9721 37.7744 40.1205 40.6099 40.2611V38.769Z" fill="#81B823"/>
<path d="M54.6507 27.9848C54.64 27.6893 54.4038 27.4531 54.1083 27.4424C50.9296 27.3272 47.7135 28.4803 45.2868 30.9069C44.4459 31.7479 43.7616 32.685 43.2264 33.6812V40.2673C46.118 40.1637 48.9787 39.0137 51.1862 36.8063C53.6128 34.3796 54.766 31.1635 54.6507 27.9848Z" fill="#8BC727"/>
<path d="M54.6507 27.9848C54.64 27.6893 54.4038 27.4531 54.1083 27.4424C50.9296 27.3272 47.7135 28.4803 45.2868 30.9069C44.5312 31.6626 43.8992 32.495 43.3904 33.3788V38.3266C43.8354 36.1187 44.9083 34.0126 46.6207 32.3003C48.8452 30.0758 51.733 28.9249 54.6476 28.8368C54.6576 28.5528 54.661 28.2686 54.6507 27.9848Z" fill="#81B823"/>
<path d="M42.0006 49.2185C42.4749 49.2185 42.9389 49.1757 43.391 49.0981V33.367C43.391 32.599 42.7686 31.9766 42.0006 31.9766C41.2326 31.9766 40.6102 32.5992 40.6102 33.367V49.0981C41.0623 49.1757 41.5263 49.2185 42.0006 49.2185Z" fill="#78A91F"/>
<path d="M48.3033 57.2168H35.6961C35.0164 57.2168 34.4656 56.6659 34.4656 55.9863C34.4656 55.3068 35.0164 54.7559 35.6961 54.7559H48.3033C48.983 54.7559 49.5338 55.3068 49.5338 55.9863C49.5338 56.6659 48.9829 57.2168 48.3033 57.2168Z" fill="#81B823"/>
<path d="M49.2927 65.9531C49.9723 65.9531 50.5232 65.4022 50.5232 64.7227C50.5232 64.0431 49.9723 63.4922 49.2927 63.4922C48.6132 63.4922 48.0623 64.0431 48.0623 64.7227C48.0623 65.4022 48.6132 65.9531 49.2927 65.9531Z" fill="#F6A96C"/>
<path d="M53.0662 65.9531C53.7457 65.9531 54.2966 65.4022 54.2966 64.7227C54.2966 64.0431 53.7457 63.4922 53.0662 63.4922C52.3866 63.4922 51.8357 64.0431 51.8357 64.7227C51.8357 65.4022 52.3866 65.9531 53.0662 65.9531Z" fill="#F6A96C"/>
<path d="M56.8396 65.9531C57.5192 65.9531 58.0701 65.4022 58.0701 64.7227C58.0701 64.0431 57.5192 63.4922 56.8396 63.4922C56.16 63.4922 55.6091 64.0431 55.6091 64.7227C55.6091 65.4022 56.16 65.9531 56.8396 65.9531Z" fill="#F6A96C"/>
<path d="M49.2188 8.20312C50.1248 8.20312 50.8594 7.46859 50.8594 6.5625C50.8594 5.65641 50.1248 4.92188 49.2188 4.92188C48.3127 4.92188 47.5781 5.65641 47.5781 6.5625C47.5781 7.46859 48.3127 8.20312 49.2188 8.20312Z" fill="#D88A55"/>
<path d="M34.2891 6.5625C35.1952 6.5625 35.9297 5.82797 35.9297 4.92188C35.9297 4.01578 35.1952 3.28125 34.2891 3.28125C33.383 3.28125 32.6484 4.01578 32.6484 4.92188C32.6484 5.82797 33.383 6.5625 34.2891 6.5625Z" fill="#D88A55"/>
<path d="M27.5625 13.6172C28.4686 13.6172 29.2031 12.8827 29.2031 11.9766C29.2031 11.0705 28.4686 10.3359 27.5625 10.3359C26.6564 10.3359 25.9219 11.0705 25.9219 11.9766C25.9219 12.8827 26.6564 13.6172 27.5625 13.6172Z" fill="#D88A55"/>
<path d="M42.5255 9.75293C41.5762 9.75293 40.7771 10.3949 40.5384 11.2685C40.4632 11.5437 40.6824 11.8127 40.9677 11.8127H44.0833C44.3686 11.8127 44.5878 11.5437 44.5126 11.2685C44.2739 10.3949 43.4748 9.75293 42.5255 9.75293Z" fill="#F6A96C"/>
<path d="M71.4005 55.1982C70.4512 55.1982 69.6521 55.8402 69.4134 56.7139C69.3382 56.9891 69.5574 57.258 69.8427 57.258H72.9583C73.2436 57.258 73.4628 56.989 73.3876 56.7139C73.1489 55.8402 72.3498 55.1982 71.4005 55.1982Z" fill="#D88A55"/>
<path d="M65.5917 59.1357C64.6424 59.1357 63.8433 59.7777 63.6046 60.6514C63.5294 60.9266 63.7486 61.1955 64.0339 61.1955H67.1495C67.4348 61.1955 67.654 60.9265 67.5788 60.6514C67.3401 59.7777 66.541 59.1357 65.5917 59.1357Z" fill="#D88A55"/>
<path d="M16.7677 53.8857C15.8184 53.8857 15.0192 54.5277 14.7805 55.4014C14.7054 55.6765 14.9246 55.9455 15.2099 55.9455H18.3254C18.6107 55.9455 18.8299 55.6765 18.7548 55.4014C18.5161 54.5277 17.7169 53.8857 16.7677 53.8857Z" fill="#D88A55"/>
<path d="M11.4511 58.7344C10.5018 58.7344 9.70265 59.3764 9.46394 60.25C9.3888 60.5253 9.60798 60.7942 9.89329 60.7942H13.0088C13.2941 60.7942 13.5133 60.5251 13.4382 60.25C13.1995 59.3764 12.4003 58.7344 11.4511 58.7344Z" fill="#D88A55"/>
<path d="M32.6484 77.1914C32.6484 76.5119 32.0975 75.9609 31.418 75.9609H28.957C28.2775 75.9609 27.7266 76.5119 27.7266 77.1914C27.7266 77.871 28.2775 78.4219 28.957 78.4219H31.418C32.0975 78.4219 32.6484 77.871 32.6484 77.1914Z" fill="#81B823"/>
<path d="M47.25 79.1602C47.25 78.4806 46.6991 77.9297 46.0195 77.9297H43.5586C42.879 77.9297 42.3281 78.4806 42.3281 79.1602C42.3281 79.8397 42.879 80.3906 43.5586 80.3906H46.0195C46.6991 80.3906 47.25 79.8397 47.25 79.1602Z" fill="#81B823"/>
<path d="M61.6875 74.7305C61.6875 74.0509 61.1366 73.5 60.457 73.5H57.9961C57.3165 73.5 56.7656 74.0509 56.7656 74.7305C56.7656 75.41 57.3165 75.9609 57.9961 75.9609H60.457C61.1366 75.9609 61.6875 75.41 61.6875 74.7305Z" fill="#81B823"/>
<path d="M48.5801 72.4396L36.6526 62.7181C31.2092 58.2815 23.3972 58.2815 17.9538 62.7181L10.5098 68.7853C11.9729 70.6272 13.5946 72.337 15.3537 73.8958H48.0619C48.8336 73.8958 49.1783 72.9272 48.5801 72.4396Z" fill="#D88A55"/>
<path d="M27.1036 63.1641C26.1543 63.1641 25.3552 63.806 25.1165 64.6797C25.0413 64.955 25.2605 65.2239 25.5458 65.2239H28.6614C28.9467 65.2239 29.1659 64.9548 29.0907 64.6797C28.852 63.806 28.0529 63.1641 27.1036 63.1641Z" fill="#F6A96C"/>
<path d="M21.6895 67.9219C20.7403 67.9219 19.9411 68.5639 19.7024 69.4375C19.6273 69.7128 19.8464 69.9817 20.1318 69.9817H23.2473C23.5326 69.9817 23.7518 69.7126 23.6767 69.4375C23.4379 68.5639 22.6388 67.9219 21.6895 67.9219Z" fill="#F6A96C"/>
<path d="M36.7167 69.0703C35.7674 69.0703 34.9683 69.7123 34.7296 70.5859C34.6544 70.8612 34.8736 71.1301 35.1589 71.1301H38.2745C38.5598 71.1301 38.779 70.8611 38.7038 70.5859C38.4651 69.7123 37.666 69.0703 36.7167 69.0703Z" fill="#F6A96C"/>
</svg>
