<svg width="130" height="130" viewBox="0 0 130 130" fill="none" xmlns="http://www.w3.org/2000/svg">
<path d="M89.4301 60.6396L88.3847 61.685H88.3857C87.859 62.2018 87.3641 62.7453 86.896 63.2134C84.8042 65.2695 82.887 66.8118 80.83 66.8018C80.83 66.8018 76.9282 66.783 76.8974 66.782V66.783C74.1808 66.7701 71.4513 67.749 71.4176 67.7609L51.2896 75.6479C46.4882 77.4193 47.9323 85.1525 54.0955 84.126L62.9832 82.9239L88.3222 111.464L100.458 99.2979C106.06 93.706 101.191 89.6603 105.695 85.1634C105.697 85.1604 109.222 81.6395 109.223 81.6395L109.826 81.0355C105.641 76.852 94.0282 65.2377 89.4301 60.6396Z" fill="#FFBEAB"/>
<path d="M54.0005 80.4733C75.8851 71.899 77.0177 71.0927 81.0455 71.1115V71.1105C81.0782 71.1115 85.1992 71.1314 85.1992 71.1314C87.3713 71.1423 89.3966 69.5137 91.6054 67.3426V67.3416C92.0993 66.8477 92.623 66.2744 93.1785 65.7279L93.8479 65.0575L89.4304 60.6399L88.385 61.6853H88.386C87.8593 62.202 87.3644 62.7455 86.8963 63.2137C84.8045 65.2697 82.8873 66.812 80.8303 66.8021C80.8303 66.8021 76.9284 66.7832 76.8977 66.7822V66.7832C74.1811 66.7703 71.4516 67.7493 71.4179 67.7612L51.2899 75.6481C47.4109 77.0783 47.6102 82.3975 51.0766 83.8495C51.3652 82.4094 52.3184 81.0942 54.0005 80.4733Z" fill="#F7AF9F"/>
<path d="M87.9711 114.102C89.685 112.386 89.6741 109.613 87.9572 107.899L63.126 82.9176C63.0496 82.8412 62.9425 82.8055 62.8354 82.8204L54.0796 84.082C47.9164 85.1085 46.6528 77.534 51.2896 75.9094L65.0402 70.2599L58.6628 67.7616C58.6291 67.7496 55.8996 66.7697 53.183 66.7836L53.182 66.7826C53.1523 66.7826 49.2494 66.8015 49.2494 66.8015C47.1924 66.8114 45.2752 65.2701 43.1835 63.2141H43.1844C42.7163 62.7459 42.2204 62.2024 41.6947 61.6857V61.6847L40.6097 60.5996C18.142 83.0663 33.5945 67.6148 20.2139 80.9954C21.1769 81.9585 24.3865 85.164 24.3865 85.164C28.8893 89.661 24.0205 93.7056 29.6223 99.2975L42.7391 112.395L42.7292 112.404L57.429 127.103C59.1448 128.82 61.9279 128.82 63.6447 127.104C65.3616 125.386 65.3616 122.603 63.6447 120.886L69.2227 126.464C70.9673 128.208 73.8754 128.262 75.5863 126.485C77.2446 124.763 77.2247 122.022 75.5267 120.324L77.797 122.594C79.5406 124.339 82.4497 124.393 84.1596 122.615C85.8189 120.892 85.798 118.152 84.1001 116.453L81.804 114.157L81.808 114.153C83.5288 115.819 86.2731 115.802 87.9711 114.102Z" fill="#FFCDBF"/>
<path d="M51.0297 113.628L51.0416 113.616L35.0713 97.6686C28.2506 90.8608 34.1777 85.9344 28.6949 80.4585C28.6919 80.4566 25.7165 77.4831 24.7207 76.4883C23.2458 77.9631 24.0403 77.1697 20.2148 80.9951C21.1779 81.9582 24.3864 85.1637 24.3864 85.1637C28.8893 89.6607 24.0215 93.7053 29.6233 99.2972L42.7391 112.394L42.7302 112.404L57.429 127.103C59.1458 128.82 61.9289 128.82 63.6447 127.104C63.7915 126.957 63.9214 126.8 64.0424 126.64L51.0297 113.628Z" fill="#FFBEAB"/>
<path d="M59.193 96.3099C58.1783 95.2814 56.522 95.2705 55.4935 96.2851C54.465 97.2997 54.4541 98.9561 55.4687 99.9846L76.0678 120.865L77.7976 122.595C79.5412 124.339 82.4492 124.392 84.1601 122.616C84.3257 122.443 84.4705 122.259 84.6034 122.067L59.193 96.3099Z" fill="#FFBEAB"/>
<path d="M65.9957 90.6712C64.9811 89.6427 63.3247 89.6318 62.2962 90.6464C61.2677 91.6611 61.2568 93.3174 62.2714 94.3459L81.8262 114.167C83.547 115.818 86.2785 115.797 87.9715 114.102C88.1669 113.906 88.3385 113.694 88.4892 113.473L65.9957 90.6712Z" fill="#FFBEAB"/>
<path d="M52.6107 102.19C51.598 101.161 49.9417 101.146 48.9112 102.16C47.8816 103.172 47.8678 104.829 48.8804 105.858L64.2903 121.531L69.2237 126.464C70.9673 128.208 73.8753 128.261 75.5862 126.485C75.7399 126.325 75.8748 126.154 75.9998 125.978L52.6107 102.19Z" fill="#FFBEAB"/>
<path d="M112.724 84.1957C113.363 84.8344 114.399 84.8344 115.037 84.1957L129.521 69.7121C130.16 69.0734 130.16 68.0379 129.521 67.3992C128.956 66.8339 102.97 40.8481 103.148 41.0267C102.51 40.3869 101.474 40.3869 100.835 41.0267L86.3519 55.5102C85.7121 56.149 85.7121 57.1844 86.3519 57.8232C87.2237 58.695 113.534 85.005 112.724 84.1957Z" fill="#54A0FF"/>
<path d="M89.7399 59.1869L104.512 44.4147C104.943 43.9843 105.55 43.8405 106.1 43.9783L103.148 41.0267C102.51 40.3879 101.474 40.3879 100.835 41.0267L86.3519 55.5102C85.7121 56.149 85.7121 57.1844 86.3519 57.8232L89.3035 60.7748C89.1647 60.2243 89.3095 59.6174 89.7399 59.1869Z" fill="#338DEF"/>
<path d="M17.2755 84.1957C16.6368 84.8344 15.6013 84.8344 14.9626 84.1957L0.47905 69.7121C-0.159683 69.0734 -0.159683 68.0379 0.47905 67.3992C1.04439 66.8339 27.0301 40.8481 26.8516 41.0267C27.4903 40.3869 28.5258 40.3869 29.1645 41.0267L43.6481 55.5102C44.2878 56.149 44.2878 57.1844 43.6481 57.8232C42.7763 58.695 16.4662 85.005 17.2755 84.1957Z" fill="#576574"/>
<path d="M19.5428 80.7879L3.88794 65.133C3.68164 64.9267 3.53882 64.6827 3.45551 64.4229L0.47905 67.3993C-0.159683 68.038 -0.159683 69.0735 0.47905 69.7122L14.9626 84.1958C15.6013 84.8345 16.6368 84.8345 17.2755 84.1958L20.252 81.2193C19.9931 81.136 19.7482 80.9932 19.5428 80.7879Z" fill="#3E4B5A"/>
<path d="M123.9 15.8266C124.694 15.0678 124.256 13.7457 123.158 13.59L114.677 12.383C114.24 12.3205 113.863 12.0527 113.669 11.6649L109.875 4.13796C109.384 3.163 107.966 3.163 107.475 4.13796L103.682 11.6649C103.487 12.0527 103.11 12.3205 102.674 12.383L94.1925 13.59C93.0945 13.7457 92.6562 15.0678 93.4506 15.8266L99.588 21.6863C99.9034 21.9868 100.047 22.4212 99.9728 22.8467L98.5238 31.1205C98.3363 32.1916 99.4839 33.0089 100.467 32.5031L108.052 28.5963C108.442 28.3959 108.908 28.3959 109.298 28.5963L116.883 32.5031C117.865 33.0089 119.013 32.1916 118.825 31.1205L117.376 22.8467C117.302 22.4212 117.447 21.9868 117.762 21.6863L123.9 15.8266Z" fill="#FECA57"/>
<path d="M109.234 21.3322C109.31 20.9067 109.165 20.4733 108.85 20.1717L102.713 14.3121C102.104 13.7309 102.221 12.8223 102.8 12.3572C102.759 12.3671 102.717 12.377 102.675 12.383L94.1935 13.59C93.0955 13.7457 92.6571 15.0678 93.4516 15.8266L99.588 21.6862C99.9034 21.9868 100.047 22.4212 99.9728 22.8467L98.5238 31.1205C98.3363 32.1916 99.4838 33.0089 100.467 32.5031L107.954 28.6469L109.234 21.3322Z" fill="#F4B537"/>
<path d="M103.455 12.0755L111.936 10.8685C112.359 10.808 112.724 10.5531 112.923 10.1861L109.876 4.13796C109.385 3.163 107.966 3.163 107.475 4.13796L103.682 11.6649C103.595 11.8385 103.47 11.9872 103.32 12.1043C103.364 12.0934 103.409 12.0824 103.455 12.0755Z" fill="#F4B537"/>
<path d="M36.5489 15.8263C37.3434 15.0676 36.905 13.7455 35.807 13.5898L27.326 12.3827C26.8906 12.3202 26.5137 12.0525 26.3183 11.6646L22.5256 4.13673C22.0346 3.16276 20.6153 3.16276 20.1244 4.13673L16.3316 11.6646C16.1372 12.0515 15.7603 12.3202 15.3239 12.3817L6.84288 13.5898C5.74493 13.7455 5.30655 15.0676 6.101 15.8263L12.2384 21.686C12.5538 21.9865 12.6976 22.421 12.6232 22.8464L11.1742 31.1202C10.9867 32.1914 12.1342 33.0086 13.1162 32.5028L20.7016 28.596C21.0924 28.3957 21.5575 28.3957 21.9483 28.596L29.5338 32.5028C30.5157 33.0086 31.6632 32.1914 31.4758 31.1202L30.0267 22.8464C29.9523 22.421 30.0961 21.9865 30.4115 21.686L36.5489 15.8263Z" fill="#FECA57"/>
<path d="M21.8848 21.3324C21.9592 20.9069 21.8144 20.4735 21.5 20.172L15.3626 14.3123C14.7546 13.7311 14.8707 12.8226 15.4509 12.3574C15.4092 12.3673 15.3666 12.3773 15.3239 12.3832L6.84288 13.5903C5.74493 13.746 5.30655 15.0681 6.101 15.8268L12.2384 21.6865C12.5538 21.987 12.6976 22.4214 12.6232 22.8469L11.1742 31.1207C10.9867 32.1919 12.1342 33.0091 13.1171 32.5033L20.6044 28.6471L21.8848 21.3324Z" fill="#F4B537"/>
<path d="M16.1046 12.0753L24.5857 10.8682C25.0082 10.8077 25.3732 10.5528 25.5735 10.1858L22.5257 4.13673C22.0347 3.16276 20.6154 3.16276 20.1245 4.13673L16.3317 11.6646C16.2445 11.8382 16.1195 11.986 15.9697 12.104C16.0144 12.0931 16.058 12.0822 16.1046 12.0753Z" fill="#F4B537"/>
<path d="M87.7309 20.3217C88.9171 19.189 88.2625 17.2153 86.623 16.9822L73.9605 15.1801C73.3098 15.0868 72.7465 14.6861 72.4559 14.1089L66.7926 2.8686C66.0596 1.41359 63.9411 1.41359 63.2081 2.8686L57.5448 14.1089C57.2542 14.6861 56.6909 15.0868 56.0402 15.1801L43.3777 16.9822C41.7382 17.2153 41.0836 19.189 42.2698 20.3217L51.4322 29.0705C51.9034 29.5198 52.1186 30.1685 52.0075 30.8032L49.8443 43.1574C49.5646 44.7562 51.2785 45.9761 52.7444 45.2213L64.07 39.3884C64.6522 39.0889 65.3485 39.0889 65.9307 39.3884L77.2563 45.2213C78.7222 45.9761 80.4361 44.7562 80.1564 43.1574L77.9932 30.8032C77.8821 30.1685 78.0974 29.5198 78.5685 29.0705L87.7309 20.3217Z" fill="#FECA57"/>
<path d="M64.5921 13.7814C65.2427 13.6881 65.8051 13.2884 66.0966 12.7102L68.9233 7.09946L66.7919 2.86934C66.059 1.41335 63.9404 1.41335 63.2075 2.86934L57.5442 14.1087C57.3815 14.432 57.1316 14.6968 56.8311 14.8862L64.5921 13.7814Z" fill="#F4B537"/>
<path d="M58.3968 41.7585L60.56 29.4044C60.6711 28.7696 60.4558 28.1219 59.9847 27.6716L50.8223 18.9228C49.8572 18.0014 50.1101 16.5246 51.1198 15.8799L43.3777 16.9818C41.7382 17.2149 41.0836 19.1886 42.2698 20.3213L51.4322 29.0701C51.9034 29.5194 52.1186 30.1681 52.0075 30.8028L49.8443 43.156C49.5646 44.7558 51.2785 45.9757 52.7444 45.2199L58.3799 42.3179C58.3591 42.1393 58.3631 41.9519 58.3968 41.7585Z" fill="#F4B537"/>
</svg>
