<svg width="130" height="130" viewBox="0 0 130 130" fill="none" xmlns="http://www.w3.org/2000/svg">
<g clip-path="url(#clip0_1717_5561)">
<path d="M129.97 120.78L119.757 64.511C119.655 63.9493 119.307 63.4629 118.807 63.1853L93.1014 48.8878C92.7678 48.702 92.3938 48.6281 92.0264 48.6565L96.7031 108.987L96.5464 109.057L127.311 122.858C127.561 122.97 127.827 123.026 128.092 123.026C128.511 123.026 128.927 122.888 129.268 122.621C129.826 122.185 130.096 121.476 129.97 120.78Z" fill="#44C868"/>
<path d="M65.0001 62.5562L38.7094 48.8628C38.3943 48.6985 38.0449 48.6315 37.7008 48.6546C37.792 48.649 37.8837 48.6495 37.9746 48.6566L33.2979 108.987L64.2189 122.859C64.4685 122.971 64.7348 123.026 65.0001 123.026V62.5562Z" fill="#44C868"/>
<path d="M37.9743 48.657C37.6069 48.6286 37.2329 48.7025 36.8992 48.8881L11.1929 63.1856C10.6938 63.4631 10.3454 63.9493 10.2436 64.5112L0.0306916 120.78C-0.0957539 121.476 0.174403 122.185 0.732236 122.621C1.07425 122.888 1.48939 123.026 1.90833 123.026C2.17316 123.026 2.43951 122.971 2.6896 122.859L33.2864 109.133L37.9743 48.657Z" fill="#4CE166"/>
<path d="M92.0256 48.6558C91.7727 48.6753 91.5226 48.7426 91.2908 48.8635L65 62.5566V123.027C65 123.027 65 123.027 65.0003 123.027C65.2656 123.027 65.5322 122.971 65.7815 122.859L96.7025 108.987L92.0256 48.6558Z" fill="#4CE166"/>
<path d="M7.14889 81.5629L5.07422 92.9935L35.7954 76.7674L36.5086 67.566L36.627 66.04L7.14889 81.5629Z" fill="#FFDB56"/>
<path d="M36.0715 73.1997L35.795 76.7676L5.07379 92.9938L0.0306916 120.78C-0.0957539 121.476 0.174403 122.185 0.732236 122.621C1.07425 122.888 1.48939 123.026 1.90833 123.026C2.17316 123.026 2.43951 122.971 2.6896 122.859L33.2864 109.132L36.0715 73.1997Z" fill="#A8EEFC"/>
<path d="M65.0077 70.0985L36.6265 66.0403L35.7949 76.7676L65 121.12V104.992L47.5726 77.5504L65.0077 79.6357V70.0985Z" fill="#FFBB24"/>
<path d="M116.783 62.0601L104.435 55.1917L92.7441 57.9232L92.8904 59.8112L93.4678 67.2593L116.783 62.0601Z" fill="#FFBB24"/>
<path d="M94.5047 80.6348L93.3976 66.3528L92.7443 57.9233L65.0078 70.0987V79.6359L83.1256 71.7572L94.5047 80.6348Z" fill="#FFDB56"/>
<path d="M129.969 120.78L127.404 106.646L93.4678 67.2593L94.5047 80.6346L129.308 122.585C129.837 122.147 130.093 121.458 129.969 120.78Z" fill="#FFBB24"/>
<path d="M65.1223 6.97363C50.4051 6.97363 38.4316 18.9372 38.4316 33.6425C38.4316 42.7389 42.7503 52.5052 51.2682 62.6696C57.5242 70.1352 63.6951 74.9368 63.9549 75.1377C64.2986 75.4035 64.7105 75.5363 65.1226 75.5363C65.5344 75.5363 65.9465 75.4035 66.2903 75.1377C66.5498 74.9368 72.721 70.1352 78.977 62.6696C87.4948 52.5052 91.8135 42.7392 91.8135 33.6425C91.813 18.9372 79.8395 6.97363 65.1223 6.97363ZM75.0069 33.6422C75.0069 39.0966 70.5813 43.5187 65.1223 43.5187C59.6633 43.5187 55.2377 39.0969 55.2377 33.6422C55.2377 28.1875 59.6633 23.7658 65.1223 23.7658C70.5813 23.7658 75.0069 28.1878 75.0069 33.6422Z" fill="#FF4A4A"/>
<path d="M65.1224 6.97363C63.956 6.97363 62.807 7.0493 61.6797 7.19504C74.777 8.88784 84.9279 20.1026 84.9279 33.6425C84.9279 42.7389 80.6092 52.5052 72.0914 62.6696C68.0682 67.4705 64.0832 71.1671 61.6799 73.2496C63.014 74.4054 63.8625 75.0661 63.9549 75.1377C64.2987 75.4035 64.7106 75.5363 65.1227 75.5363C65.5345 75.5363 65.9466 75.4035 66.2904 75.1377C66.5499 74.9368 72.7211 70.1352 78.9771 62.6696C87.4949 52.5052 91.8136 42.7392 91.8136 33.6425C91.8131 18.9372 79.8396 6.97363 65.1224 6.97363Z" fill="#E7343F"/>
<path d="M65.7815 122.859L77.2797 117.7L65 104.992V123.026C65 123.026 65 123.026 65.0003 123.026C65.2656 123.026 65.5319 122.971 65.7815 122.859Z" fill="#FFDB56"/>
<path d="M119.755 64.5108C119.653 63.9491 119.305 63.4627 118.806 63.1851L116.782 62.0596L93.4668 67.2588L127.403 106.645L119.755 64.5108Z" fill="#1EA4E9"/>
<path d="M64.9994 123.026C64.9997 123.026 64.9997 123.026 64.9994 123.026V121.12L35.7946 76.7673L33.2969 108.987L64.2179 122.859C64.4675 122.971 64.7338 123.026 64.9994 123.026Z" fill="#1EA4E9"/>
</g>
<defs>
<clipPath id="clip0_1717_5561">
<rect width="130" height="130" fill="white"/>
</clipPath>
</defs>
</svg>
