<svg width="26" height="25" viewBox="0 0 26 25" fill="none" xmlns="http://www.w3.org/2000/svg">
<path d="M12.5907 4.42915C13.7532 4.42915 14.722 3.52972 14.722 2.45041C14.722 1.3711 13.7532 0.47168 12.5907 0.47168C11.4282 0.47168 10.4595 1.19122 10.4595 2.45041C10.4595 3.52972 11.4282 4.42915 12.5907 4.42915ZM18.7907 20.4389C18.7907 20.259 16.8532 15.2222 16.8532 15.2222L13.947 12.3441V6.58777C13.947 5.32857 11.4282 4.42915 11.2345 4.78892C11.0407 4.78892 6.77822 7.48719 6.77822 7.48719L6.19697 11.8044V11.9843C6.19697 12.524 6.58447 12.8837 7.16572 12.8837C7.74698 12.8837 8.13448 12.524 8.13448 11.9843L8.52198 8.5665L10.6532 7.30731V12.3441L14.5282 15.9418L16.4657 20.9786C16.6595 21.3383 17.047 21.6981 17.4345 21.6981C18.0157 21.6981 18.597 21.1584 18.597 20.6188C18.7907 20.6188 18.7907 20.6188 18.7907 20.4389ZM5.80947 19.7194C5.61572 19.8992 5.61572 20.0791 5.61572 20.4389C5.61572 20.9786 6.19697 21.5182 6.77822 21.5182C7.16572 21.5182 7.55323 21.3383 7.74698 20.9786L11.2345 16.6613L12.2032 14.5027L10.4595 12.8837L9.10323 15.4021L5.80947 19.7194ZM14.5282 8.92627V11.2648C14.5282 11.2648 15.8845 12.1642 16.0782 12.524C16.272 12.7039 16.4657 12.7039 16.6595 12.7039C17.2407 12.7039 17.6282 12.3441 17.6282 11.8044C17.6282 11.4447 17.4345 11.2648 17.2407 11.0849L14.5282 8.92627Z" fill="#C1C1C1"/>
</svg>
