<svg width="84" height="84" viewBox="0 0 84 84" fill="none" xmlns="http://www.w3.org/2000/svg">
<g clip-path="url(#clip0_918_4344)">
<path d="M42.7189 83.6409C65.518 83.6409 84.0003 65.1586 84.0003 42.3595C84.0003 19.5604 65.518 1.07812 42.7189 1.07812C19.9198 1.07812 1.4375 19.5604 1.4375 42.3595C1.4375 65.1586 19.9198 83.6409 42.7189 83.6409Z" fill="#85D6FF"/>
<path d="M27.0764 56.8269H13.8828C12.6768 56.8269 11.6972 55.8487 11.6972 54.6411C11.6972 53.4342 12.676 52.4554 13.8828 52.4554H18.5028C19.6992 52.4554 20.6886 51.4839 20.6886 50.2696C20.6886 49.0628 19.7098 48.084 18.503 48.084H1.83588C2.9935 56.4264 6.64242 63.9713 12.0096 69.9427H21.8581C23.0613 69.9427 24.0439 68.9649 24.0439 67.7552C24.0439 66.5484 23.0651 65.5696 21.8582 65.5696H18.3309C17.1135 65.5696 16.1451 64.5816 16.1451 63.384C16.1451 62.1771 17.1239 61.1983 18.3307 61.1983H27.0762C28.2726 61.1983 29.262 60.2269 29.262 59.0125C29.262 57.8057 28.2832 56.8269 27.0764 56.8269Z" fill="#B8EBFF"/>
<path d="M46.1628 72.0757C45.4238 72.0757 44.8248 71.4767 44.8248 70.7377V63.3548C44.8248 63.0281 44.8248 62.0342 43.4687 61.3716C42.8047 61.0472 42.5296 60.2459 42.8541 59.5821C43.1786 58.9182 43.9796 58.6424 44.6435 58.9676C46.486 59.8679 47.5007 61.426 47.5007 63.3549V70.7379C47.5007 71.4768 46.9017 72.0757 46.1628 72.0757Z" fill="#AAA211"/>
<path d="M37.5108 74.5764C36.7718 74.5764 36.1729 73.9774 36.1729 73.2385V68.4161C36.1729 67.6771 36.7718 67.0781 37.5108 67.0781C38.2497 67.0781 38.8487 67.6771 38.8487 68.4161V73.2385C38.8487 73.9774 38.2497 74.5764 37.5108 74.5764Z" fill="#AAA211"/>
<path d="M35.4638 51.0296C35.4324 46.901 39.7942 44.1814 43.4749 45.9736C44.048 46.2526 44.5492 46.6141 44.9736 47.0354C45.0662 47.1271 45.2066 47.1435 45.3178 47.0757C46.3798 46.427 47.6383 46.1478 48.8823 46.2935C49.0727 46.3158 49.2576 46.2215 49.3536 46.0554L61.0605 25.7786C61.4135 25.167 61.204 24.3851 60.5924 24.032L19.8872 0.530882C19.2755 0.17782 18.4936 0.387328 18.1406 0.998953L0.171446 32.1221C-0.181616 32.7337 0.0278915 33.5156 0.639516 33.8687L32.7374 52.4004C32.8811 52.4834 33.0619 52.4734 33.1923 52.3707C33.7936 51.8974 34.4812 51.5569 35.2083 51.3633C35.3591 51.3233 35.4649 51.1857 35.4638 51.0296Z" fill="#F8A748"/>
<path d="M3.92913 27.2391C3.66598 27.0872 3.47288 26.8614 3.3582 26.6035L0.171446 32.1227C-0.181616 32.7344 0.0278915 33.5163 0.639516 33.8694L32.7374 52.401C32.8811 52.4841 33.0619 52.474 33.1923 52.3713C33.7936 51.898 34.4813 51.5578 35.2083 51.364C35.3591 51.3238 35.4649 51.1861 35.4638 51.0301C35.4511 49.3573 36.1992 47.7251 37.5472 46.6485L3.92913 27.2391Z" fill="#F28D2A"/>
<path d="M33.1919 52.3712C33.7932 51.8979 34.4809 51.5575 35.2079 51.3639C35.3587 51.3237 35.4645 51.1859 35.4633 51.03C35.4384 47.7215 38.2837 45.1538 41.5509 45.4417L55.5817 21.1396L24.8971 3.42383L5.64941 36.7618L32.7371 52.4009C32.8808 52.4839 33.0615 52.4739 33.1919 52.3712Z" fill="#FAC149"/>
<path d="M33.0104 52.4466C33.0753 52.4358 33.1383 52.4131 33.1919 52.3708C33.7932 51.8975 34.4809 51.5572 35.2079 51.3634C35.2899 51.3416 35.3579 51.2903 35.4033 51.2233C35.4414 51.1674 35.4638 51.1006 35.4633 51.0296C35.4502 49.2812 36.259 47.6756 37.5469 46.648L9.34279 30.3643L5.64941 36.7614L32.7371 52.4005C32.809 52.442 32.89 52.4602 32.9696 52.4553C32.9834 52.4545 32.9967 52.4489 33.0104 52.4466Z" fill="#F8A748"/>
<path d="M34.9827 32.8907C32.5499 32.8907 30.1474 32.2541 28.001 31.0148L20.9768 26.9593C20.2426 26.5354 19.991 25.5966 20.4149 24.8624C20.8387 24.1281 21.7776 23.8769 22.5118 24.3005L29.536 28.356C31.9283 29.7367 34.7287 30.159 37.4218 29.5446C38.2488 29.3566 39.0714 29.8734 39.2598 30.7C39.4483 31.5265 38.9312 32.3493 38.1048 32.5379C37.0707 32.7739 36.0236 32.8907 34.9827 32.8907Z" fill="#AAA211"/>
<path d="M36.5091 20.5919C36.6762 20.6817 36.7784 20.8623 36.769 21.0516C36.6404 23.6602 35.2199 26.1484 32.778 27.5286C30.3361 28.9089 27.4719 28.8424 25.1706 27.6072C25.0036 27.5175 24.9014 27.3368 24.9107 27.1475C25.0394 24.5389 26.4598 22.0508 28.9017 20.6705C31.3436 19.2902 34.208 19.3567 36.5091 20.5919Z" fill="#CABD2A"/>
<path d="M31.4311 23.5143C33.0434 22.6031 34.839 22.326 36.5359 22.5959C36.6632 22.0911 36.7431 21.5741 36.7689 21.0516C36.7783 20.8622 36.676 20.6814 36.509 20.5918C34.2077 19.3566 31.3435 19.2903 28.9016 20.6704C26.4597 22.0505 25.0394 24.5387 24.9106 27.1475C24.9013 27.3368 25.0035 27.5176 25.1705 27.6072C25.9524 28.0268 26.8 28.3079 27.6731 28.4468C28.1812 26.4312 29.4783 24.6181 31.4311 23.5143Z" fill="#AAA211"/>
<path d="M30.8104 39.3661C30.9143 39.4304 31.048 39.4292 31.1507 39.3629C32.5649 38.4508 33.4956 36.8566 33.4792 35.0493C33.4627 33.2419 32.5029 31.6651 31.0723 30.7789C30.9684 30.7146 30.8347 30.7157 30.732 30.782C29.3178 31.6942 28.3871 33.2884 28.4035 35.0957C28.42 36.903 29.3798 38.4798 30.8104 39.3661Z" fill="#CABD2A"/>
<path d="M30.9415 35.0957C30.9297 33.804 31.4035 32.6229 32.19 31.7201C31.8647 31.3557 31.4893 31.0373 31.0721 30.7789C30.9682 30.7146 30.8345 30.7157 30.7318 30.782C29.3176 31.6942 28.3869 33.2884 28.4033 35.0957C28.4199 36.903 29.3796 38.4798 30.8103 39.3661C30.9141 39.4304 31.0478 39.4292 31.1505 39.3629C31.5539 39.1026 31.9164 38.7853 32.2304 38.4248C31.4399 37.5394 30.9531 36.376 30.9415 35.0957Z" fill="#AAA211"/>
<path d="M44.8122 51.0205C44.6289 51.0205 44.4427 50.9805 44.2662 50.8963L43.4324 50.4981C42.7999 50.1961 42.5322 49.4386 42.8341 48.8062C43.1361 48.174 43.8936 47.9063 44.526 48.208L45.3598 48.6062C45.9923 48.9082 46.26 49.6657 45.9581 50.2981C45.7404 50.7541 45.2858 51.0205 44.8122 51.0205Z" fill="#FAC149"/>
<path d="M41.4649 67.0009C40.7289 67.0009 40.127 66.4022 40.127 65.6629C40.127 65.0331 40.5645 64.4825 41.2027 64.3501C42.0444 64.1847 42.8028 64.8341 42.8028 65.6629C42.8028 66.3776 42.2242 67.0009 41.4649 67.0009Z" fill="#FAC149"/>
<path d="M45.8443 55.6455C45.1558 55.6455 44.5753 55.0874 44.5753 54.3765C44.5753 53.5695 45.3207 52.9751 46.0913 53.1329C46.6563 53.2387 47.1132 53.7488 47.1132 54.3765C47.1134 55.0638 46.5541 55.6455 45.8443 55.6455Z" fill="#FAC149"/>
<path d="M39.1065 57.5124C38.801 57.5124 38.4948 57.4028 38.2515 57.1809C37.7338 56.7085 37.6972 55.9059 38.1695 55.3881L38.7923 54.7056C39.2646 54.188 40.0672 54.1511 40.585 54.6236C41.1028 55.0959 41.1394 55.8985 40.667 56.4163L40.0442 57.0988C39.7937 57.3731 39.4507 57.5124 39.1065 57.5124Z" fill="#FAC149"/>
<path d="M58.0684 74.6413C57.3295 74.6413 56.7305 74.0423 56.7305 73.3034V69.6788C56.7305 68.9398 57.3295 68.3408 58.0684 68.3408C58.8073 68.3408 59.4063 68.9398 59.4063 69.6788V73.3034C59.4063 74.0423 58.8073 74.6413 58.0684 74.6413Z" fill="#AAA211"/>
<path d="M55.5484 57.8267C55.5532 57.6753 55.4689 57.5324 55.3342 57.4632C53.4775 56.51 51.1881 56.4988 49.2573 57.6372C47.3264 58.7757 46.228 60.7843 46.1634 62.8703C46.1586 63.0218 46.243 63.1647 46.3777 63.2339C48.2344 64.1871 50.5237 64.1983 52.4545 63.0598C54.3852 61.9214 55.4838 59.9128 55.5484 57.8267Z" fill="#CABD2A"/>
<path d="M50.9252 59.7029C52.3314 58.8739 53.927 58.6572 55.4079 58.9673C55.4887 58.5931 55.5363 58.2113 55.5483 57.8267C55.553 57.6753 55.4687 57.5324 55.3339 57.4632C53.4772 56.51 51.1878 56.4988 49.257 57.6372C47.3261 58.7757 46.2277 60.7843 46.1631 62.8703C46.1583 63.0218 46.2427 63.1647 46.3775 63.2339C46.882 63.493 47.419 63.6797 47.9716 63.7955C48.3297 62.1391 49.3503 60.6314 50.9252 59.7029Z" fill="#AAA211"/>
<path d="M32.088 65.0863C32.0852 64.9989 32.1339 64.9162 32.2119 64.8763C33.2847 64.3255 34.6077 64.319 35.7233 64.9769C36.8389 65.6348 37.4737 66.7953 37.5111 68.0009C37.5139 68.0883 37.4652 68.171 37.3872 68.2109C36.3144 68.7616 34.9914 68.7682 33.8758 68.1103C32.7602 67.4524 32.1252 66.2917 32.088 65.0863Z" fill="#CABD2A"/>
<path d="M35.0288 66.627C34.1977 66.1369 33.6338 65.3677 33.3847 64.5088C32.9767 64.5649 32.5795 64.6879 32.2119 64.8768C32.1339 64.9168 32.0854 64.9993 32.088 65.0868C32.1254 66.2922 32.7602 67.4529 33.8758 68.1108C34.9914 68.7687 36.3144 68.7621 37.3872 68.2114C37.4651 68.1713 37.5137 68.0888 37.5111 68.0012C37.5016 67.6937 37.4527 67.3894 37.3674 67.0954C36.5848 67.203 35.7622 67.0593 35.0288 66.627Z" fill="#AAA211"/>
<path d="M42.7194 83.6396C51.3681 83.6396 59.3942 80.978 66.0271 76.4319C64.8805 76.0876 63.6585 75.9234 62.3951 75.9751C62.1752 75.9841 61.9574 75.9997 61.7415 76.0215C61.4875 76.0471 61.2471 75.9075 61.1364 75.6775C60.0439 73.407 57.6791 71.8829 55.0014 71.9923C54.3908 72.0173 53.8038 72.1267 53.2501 72.3073C53.0333 72.378 52.7951 72.3227 52.6342 72.1613C51.0152 70.5379 48.781 69.5271 46.3073 69.5128C43.8335 69.4986 41.5879 70.4836 39.9502 72.0883C39.7874 72.2478 39.5486 72.3004 39.3327 72.2273C38.7811 72.0402 38.1954 71.9241 37.5851 71.8921C34.9089 71.7518 32.5265 73.2486 31.4081 75.5065C31.2947 75.7354 31.0527 75.8722 30.7989 75.8435C30.5834 75.8192 30.3657 75.8009 30.1461 75.7894C27.2453 75.6373 24.548 76.6179 22.4816 78.3437C28.4619 81.7143 35.3653 83.6396 42.7194 83.6396Z" fill="#BA6831"/>
<path d="M39.0344 82.4643C39.2388 82.3634 39.3705 82.1573 39.3728 81.9294C39.3963 79.6368 40.2876 77.3524 42.047 75.6132C43.8064 73.874 46.1009 73.009 48.3936 73.0121C48.6215 73.0125 48.8291 72.883 48.9324 72.6799C49.1962 72.1606 49.534 71.6683 49.9481 71.2188C50.1484 71.0014 50.3617 70.8037 50.583 70.6199C49.3137 69.923 47.858 69.5227 46.3081 69.5138C43.8342 69.4996 41.5886 70.4846 39.951 72.0893C39.7882 72.2487 39.5494 72.3014 39.3334 72.2282C38.7819 72.0412 38.1962 71.925 37.5858 71.8931C34.9097 71.7528 32.5273 73.2495 31.4089 75.5075C31.2955 75.7364 31.0535 75.8732 30.7997 75.8445C30.5842 75.8202 30.3664 75.8018 30.1469 75.7904C27.2461 75.6383 24.5488 76.6189 22.4824 78.3447C27.0839 80.9382 32.2322 82.6746 37.7112 83.3382C38.1243 82.9873 38.5679 82.6944 39.0344 82.4643Z" fill="#A85822"/>
<path d="M75.7675 17.6191H62.713C61.5062 17.6191 60.5274 18.5979 60.5274 19.8048C60.5274 21.019 61.5169 21.9906 62.7132 21.9906H70.1462C71.3531 21.9906 72.3319 22.9694 72.3319 24.1762C72.3319 25.3739 71.3634 26.3619 70.1461 26.3619H67.7672C66.5603 26.3619 65.5815 27.3407 65.5815 28.5475C65.5815 29.7571 66.5641 30.735 67.7673 30.735H82.3379C80.9346 25.9448 78.6885 21.515 75.7675 17.6191Z" fill="#B8EBFF"/>
<path d="M73.3449 35.1064H76.6022C77.8094 35.1064 78.788 36.0851 78.788 37.2922C78.788 38.4994 77.8094 39.4781 76.6022 39.4781H73.3449C72.1378 39.4781 71.1591 38.4994 71.1591 37.2922C71.1591 36.0851 72.1378 35.1064 73.3449 35.1064Z" fill="#B8EBFF"/>
</g>
<defs>
<clipPath id="clip0_918_4344">
<rect width="84" height="84" fill="white"/>
</clipPath>
</defs>
</svg>
