<svg width="84" height="84" viewBox="0 0 84 84" fill="none" xmlns="http://www.w3.org/2000/svg">
<g clip-path="url(#clip0_918_4459)">
<path d="M75.1508 66.537C79.5931 60.0712 82.195 52.2423 82.195 43.8045C82.195 21.6054 64.199 3.60938 41.9998 3.60938C19.8007 3.60938 1.80486 21.6054 1.80486 43.8045C1.80486 52.2459 4.40902 60.078 8.85495 66.5456L75.1508 66.537Z" fill="#1EA4E9"/>
<path d="M41.7831 3.04102C32.454 3.04102 24.8643 10.6307 24.8643 19.9598C24.886 20.2846 24.8043 20.4604 24.9672 20.5778C25.1843 20.7342 25.3137 20.9863 25.3137 21.2523V22.2111C25.3137 23.0811 26.3435 23.5191 26.4803 23.094C26.826 22.0204 27.7823 21.9297 28.1833 21.9364C28.1951 21.9366 28.2068 21.9372 28.2191 21.9366C28.5492 21.9379 28.8684 22.037 29.1429 22.2234C29.2771 22.3152 29.4671 22.2534 29.518 22.0934C29.6687 21.615 29.7201 21.1307 29.6866 20.6771C29.5119 18.2974 29.6415 14.1152 32.4727 12.8411C34.9999 11.7027 37.5447 12.4917 39.2173 12.8121C40.1625 13.0872 41.7195 13.7492 43.9026 13.0231C45.9559 12.3401 48.9108 11.754 51.3271 12.841C54.1529 14.1128 54.2863 18.2842 54.1142 20.6579C54.0827 21.0956 54.1273 21.5361 54.2466 21.9669C54.2886 22.119 54.4604 22.1924 54.5984 22.121C55.473 21.671 56.74 22.0211 57.0859 23.0939C57.1238 23.2118 57.2426 23.2826 57.3645 23.2617C57.879 23.1707 58.2525 22.7288 58.2525 22.2109V21.2521C58.2525 20.9863 58.382 20.7342 58.599 20.5777C58.7624 20.4599 58.6804 20.2814 58.7019 19.9596C58.7019 10.6307 51.1122 3.04102 41.7831 3.04102Z" fill="#41416B"/>
<path d="M41.3132 3.59634C41.4949 3.47001 41.549 3.23884 41.4693 3.04492C32.2845 3.21292 24.8643 10.7355 24.8643 19.9596C24.886 20.2844 24.8043 20.4602 24.9672 20.5776C25.1843 20.734 25.3137 20.9861 25.3137 21.2521V22.2109C25.3137 23.0809 26.3435 23.5189 26.4803 23.0939C26.826 22.0202 27.7823 21.9295 28.1833 21.9362C28.1951 21.9364 28.2068 21.937 28.2191 21.9364C28.5492 21.9377 28.8684 22.0368 29.1429 22.2232C29.2771 22.3152 29.4671 22.2532 29.518 22.0932C29.6687 21.6148 29.7201 21.1305 29.6866 20.6769C29.5119 18.2972 29.6415 14.115 32.4727 12.8409C34.9735 11.7145 37.4909 12.4749 39.164 12.8014L39.2754 12.571C39.2756 12.571 36.0764 7.2377 41.3132 3.59634Z" fill="#35355E"/>
<path d="M8.74126 66.3814C15.9736 77.0148 28.1707 83.9996 42 83.9996C55.8331 83.9996 68.033 77.0112 75.2647 66.3729C74.2741 63.2111 72.4471 60.1168 69.1217 58.405L69.1227 58.4027C68.8987 58.2961 68.6003 58.1391 68.0817 57.9358C57.413 53.1932 56.1837 53.4059 55.1022 53.0449C55.1348 53.0771 55.1641 53.1127 55.1857 53.1557C55.1475 53.4756 55.3526 53.4231 54.6012 55.3548C53.0437 59.2194 50.2118 62.6134 46.9301 65.2085C46.5985 65.4704 46.1398 65.4877 45.7884 65.2531C45.2224 64.8751 44.2262 68.4453 44.2801 69.4584C44.2992 70.0662 44.2849 69.3431 44.2898 77.6028C44.2898 77.9283 44.0203 78.1931 43.6889 78.1931C43.6611 78.1931 40.2157 78.1931 40.3203 78.1931C39.9891 78.1931 39.7194 77.9283 39.7194 77.6028C39.7245 69.3432 39.71 70.0654 39.7291 69.4584C39.7295 69.4512 39.7292 69.4438 39.7287 69.4367C39.5901 67.6507 38.7324 64.9116 38.2208 65.2531C37.8694 65.4879 37.4107 65.4704 37.0791 65.2085C33.7974 62.6132 30.9655 59.2194 29.408 55.3548C28.6565 53.4231 28.8617 53.4756 28.8235 53.1557C28.8451 53.1127 28.8744 53.0771 28.9068 53.0449C27.8253 53.4059 26.5962 53.1932 15.9275 57.9358C15.4089 58.1391 15.1103 58.2959 14.8864 58.4027L14.8875 58.405C11.5589 60.1183 9.73154 63.2166 8.74126 66.3814Z" fill="#FFDD40"/>
<path d="M28.8233 53.1557C28.845 53.1127 28.874 53.0771 28.9067 53.0449C27.8252 53.4059 26.596 53.1932 15.9274 57.9358C15.4087 58.1391 15.1102 58.2959 14.8862 58.4027L14.8874 58.405C11.5592 60.1183 9.73186 63.2166 8.74158 66.3814C11.4233 70.3243 14.7874 73.7655 18.6649 76.5349L19.9607 72.2591C20.5137 70.4341 21.81 68.9265 23.5313 68.1062L33.1163 63.5385V61.3908C31.573 59.568 30.2872 57.5365 29.408 55.3546C28.6561 53.4231 28.8614 53.4756 28.8233 53.1557Z" fill="#FFC839"/>
<path d="M32.1303 50.3221L32.3091 51.307L32.3147 51.3303C32.3665 51.5567 32.4254 51.7846 32.4899 52.0077L32.4999 52.0415C32.5214 52.1158 32.5443 52.1915 32.5675 52.2656L32.5816 52.3108C32.6064 52.3885 32.632 52.4674 32.6597 52.5501L32.669 52.5772C33.2582 54.3076 34.5453 56.8295 37.3289 59.0176C38.0504 59.585 38.8389 60.1063 39.6725 60.5674C40.0469 60.7744 40.3198 61.0892 40.4615 61.4779C40.4709 61.5037 40.4851 61.5275 40.5033 61.5481C40.9307 62.0292 41.3391 62.5579 41.7171 63.1197C41.7986 63.2404 41.9989 63.2404 42.08 63.1197C42.4563 62.5597 42.8658 62.0301 43.2965 61.5458C43.3149 61.5253 43.329 61.5015 43.3383 61.4758C43.4808 61.0879 43.7531 60.7737 44.1262 60.5674C50.1123 57.2564 51.3996 52.376 51.6735 50.2865C50.9408 48.609 50.7069 46.5353 50.6521 44.9434C49.768 45.9732 48.8402 46.8343 47.9536 47.5229C46.2263 48.8643 44.0948 49.5927 41.8995 49.5927C39.7042 49.5927 37.5727 48.8641 35.8454 47.5229C34.9589 46.8343 34.0309 45.9732 33.1468 44.9434C33.092 46.5353 32.8579 48.6092 32.1252 50.2867L32.1303 50.3221Z" fill="#FCA870"/>
<path d="M35.8457 47.5229C34.9591 46.8343 34.0312 45.9732 33.147 44.9434C33.0922 46.5353 32.8581 48.6092 32.1254 50.2867L32.1298 50.3223L32.3087 51.3072L32.3142 51.3305C32.3661 51.5569 32.425 51.7848 32.4895 52.0079L32.4995 52.0417C32.521 52.116 32.5438 52.1916 32.5671 52.2658L32.5812 52.3109C32.606 52.3887 32.6315 52.4676 32.6593 52.5501L32.6686 52.5772C33.2578 54.3076 34.5448 56.8295 37.3285 59.0176C37.5554 59.1961 37.7911 59.3681 38.0307 59.5371C40.4716 55.4266 41.2548 51.6091 41.5062 49.5847C39.4508 49.503 37.4696 48.7839 35.8457 47.5229Z" fill="#F9955F"/>
<path d="M55.5071 24.0637C55.3342 23.6124 55.1281 23.1978 54.8945 22.8313C54.495 22.2047 54.3057 21.439 54.361 20.6752C54.5377 18.237 54.3915 13.9483 51.4285 12.6149C48.94 11.4955 45.9196 12.0909 43.8242 12.7879C42.5831 13.201 41.2161 13.2008 39.975 12.7879C37.8794 12.0909 34.8592 11.4949 32.3707 12.6149C31.0964 13.1883 29.0213 15.0006 29.4395 20.6947C29.4947 21.4448 29.3047 22.2037 28.9047 22.8316C28.6778 23.1875 28.4767 23.5891 28.307 24.0248C27.8101 25.3016 27.6493 26.7184 27.8419 28.1225L28.5369 33.1766C28.5369 41.5469 33.6012 46.3828 35.7784 48.0736C37.5162 49.4234 39.6902 50.1667 41.8996 50.1667C44.1089 50.1667 46.2829 49.4235 48.0206 48.0736C50.1979 46.3829 55.2622 41.5467 55.261 33.1917L55.957 28.1236C56.1479 26.7335 55.9924 25.3296 55.5071 24.0637Z" fill="#F9BD91"/>
<path d="M41.6253 48.0738C40.0764 46.3831 36.4739 41.547 36.4739 33.1767L35.9796 28.1226C35.8425 26.7186 35.9568 25.3017 36.3104 24.025C36.4311 23.5891 36.5742 23.1875 36.7356 22.8316C37.0203 22.2037 37.1553 21.4449 37.1161 20.6947C36.8186 15.0006 38.2947 13.1883 39.2011 12.6149C39.2256 12.5995 39.2504 12.5856 39.275 12.5706C37.2414 11.9835 34.5939 11.6142 32.3706 12.6149C31.0965 13.1883 29.0214 15.0006 29.4396 20.6947C29.4947 21.4448 29.3047 22.2037 28.9047 22.8316C28.6778 23.1875 28.4767 23.5891 28.3071 24.025C27.8101 25.3017 27.6493 26.7186 27.8419 28.1226L28.5369 33.1767C28.5369 41.547 33.6012 46.3829 35.7785 48.0738C37.5162 49.4235 39.6902 50.1669 41.8996 50.1669C42.7057 50.1669 43.5066 50.0668 44.2838 49.8757C43.3211 49.5428 42.4105 48.9312 41.6253 48.0738Z" fill="#FCA870"/>
<path d="M42.0533 63.2302C40.8603 61.3863 39.6841 60.418 39.6841 60.418L36.6448 65.2993C38.8343 66.7086 39.2254 70.1515 39.2951 71.2607C39.4767 67.6958 40.8268 64.9866 42.0533 63.2302Z" fill="#FF9100"/>
<path d="M44.4893 78.3718V71.6129C44.4893 71.6129 44.5274 66.9903 47.1548 65.2993L44.1156 60.418C44.1156 60.418 39.2726 64.3973 39.2726 71.6131V78.372H44.4893V78.3718Z" fill="#FFB332"/>
<path d="M39.779 60.3757C33.7177 57.0235 32.5494 52.0325 32.3253 50.121C32.2856 49.7824 31.8936 49.6151 31.6188 49.8167L27.5159 52.8248C27.2969 52.9854 27.1919 53.2625 27.258 53.5256C28.8905 60.0232 34.1382 64.7674 36.4514 66.5963C37.0403 67.0619 37.899 66.9269 38.318 66.3041C38.9106 65.4235 39.7488 64.1779 40.4406 63.1499C41.0864 62.1899 40.7914 60.9357 39.779 60.3757Z" fill="#FFC839"/>
<path d="M37.4637 58.8455C33.4042 55.6545 32.5163 51.7582 32.3243 50.1209C32.2846 49.7824 31.8926 49.6151 31.6178 49.8167L27.515 52.8248C27.2959 52.9854 27.1909 53.2625 27.2571 53.5258C28.3017 57.6838 30.8262 61.1219 33.1154 63.5392C34.9327 57.5732 36.9597 58.4972 37.4637 58.8455Z" fill="#FFB332"/>
<path d="M56.2838 52.8248L52.1809 49.8167C51.9061 49.6151 51.5142 49.7824 51.4745 50.121C51.2503 52.0325 50.0821 57.0235 44.0208 60.3757C43.0083 60.9357 42.7132 62.1899 43.3593 63.1499C44.051 64.1779 44.8891 65.4235 45.4819 66.3041C45.9009 66.9269 46.7598 67.0618 47.3484 66.5963C49.6617 64.7674 54.9094 60.0232 56.5417 53.5256C56.6078 53.2623 56.5028 52.9852 56.2838 52.8248Z" fill="#FFC839"/>
<path d="M43.1525 69.6421C43.1525 70.2081 42.6938 70.667 42.1276 70.667C41.5616 70.667 41.1027 70.2081 41.1027 69.6421C41.1027 69.0761 41.5616 68.6172 42.1276 68.6172C42.6938 68.6172 43.1525 69.0761 43.1525 69.6421Z" fill="#FFC839"/>
<path d="M42.925 74.7251C42.925 75.2911 42.4661 75.75 41.9001 75.75C41.334 75.75 40.8752 75.2911 40.8752 74.7251C40.8752 74.1591 41.334 73.7002 41.9001 73.7002C42.4661 73.7002 42.925 74.1591 42.925 74.7251Z" fill="#FFC839"/>
<path d="M39.2717 78.1436V80.0585C39.2717 80.5379 39.6654 80.9264 40.151 80.9264H43.6091C44.0948 80.9264 44.4885 80.5379 44.4885 80.0585V78.1436H39.2717Z" fill="#FF9100"/>
<path d="M41.7829 0C30.9527 0 22.1729 8.77964 22.1729 19.6099V21.9411H25.1116V19.9592C25.1116 10.752 32.5756 3.28798 41.7828 3.28798C50.9901 3.28798 58.4542 10.752 58.4542 19.9592V21.9411H61.3928V19.6099C61.3928 8.77964 52.6132 0 41.7829 0V0Z" fill="#E3E7FC"/>
<path d="M22.1729 19.6099V21.9411H25.1116V19.9592C25.1116 10.8465 32.4233 3.44252 41.5003 3.29159C41.5195 3.16345 41.4865 3.02712 41.3958 2.919C40.953 2.39088 40.4485 1.33432 41.7828 0C30.9525 0 22.1729 8.77964 22.1729 19.6099Z" fill="#C8CEFC"/>
<path d="M60.6254 20.1729H59.0834C58.4875 20.1729 58.0044 20.656 58.0044 21.2519V22.2107C58.0044 22.6988 57.5826 23.072 57.0964 23.0282L57.0871 23.0274C57.1473 23.2083 57.1803 23.4005 57.1803 23.5995V36.4546C57.1803 36.6536 57.1475 36.8457 57.0871 37.0267C58.1354 36.9335 59.1201 36.6332 59.9956 36.1694C61.0487 35.6116 61.7043 34.514 61.7043 33.3223V25.9572V25.129V21.2519C61.7045 20.6559 61.2213 20.1729 60.6254 20.1729Z" fill="#C8CEFC"/>
<path d="M59.9964 28.1715C59.147 28.6215 58.1943 28.9157 57.1811 29.0181V36.4547C57.1811 36.6537 57.1483 36.8458 57.0881 37.0268C58.1364 36.9336 59.1211 36.6335 59.9966 36.1696C61.0497 35.6118 61.7053 34.5142 61.7053 33.3223V25.9572V25.3242C61.7053 26.5161 61.0495 27.6137 59.9964 28.1715Z" fill="#B8C0F4"/>
<path d="M55.5025 38.3648H55.3534C54.3026 38.3648 53.4427 37.5051 53.4427 36.4543V23.5991C53.4427 22.5483 54.3026 21.6885 55.3534 21.6885H55.5025C56.5533 21.6885 57.4132 22.5483 57.4132 23.5991V36.4543C57.413 37.5051 56.5533 38.3648 55.5025 38.3648Z" fill="#E3E7FC"/>
<path d="M22.9394 20.1729H24.4814C25.0773 20.1729 25.5605 20.656 25.5605 21.2519V22.2107C25.5605 22.6988 25.9823 23.072 26.4684 23.0282L26.4777 23.0274C26.4175 23.2083 26.3847 23.4005 26.3847 23.5995V36.4546C26.3847 36.6536 26.4175 36.8457 26.4777 37.0267C25.4294 36.9335 24.4447 36.6332 23.5692 36.1694C22.5161 35.6116 21.8605 34.514 21.8605 33.3223V25.9572V25.129V21.2519C21.8605 20.6559 22.3435 20.1729 22.9394 20.1729Z" fill="#B8C0F4"/>
<path d="M26.3845 28.854C25.3713 28.7516 24.4184 28.4575 23.5692 28.0075C22.5161 27.4497 21.8605 26.3521 21.8605 25.1602V25.9572V33.3223C21.8605 34.514 22.5163 35.6116 23.5692 36.1696C24.4447 36.6334 25.4294 36.9334 26.4777 37.0268C26.4175 36.8458 26.3847 36.6539 26.3847 36.4547V28.854H26.3845Z" fill="#A4B0EA"/>
<path d="M28.0632 38.3648H28.2125C29.2633 38.3648 30.1232 37.5051 30.1232 36.4543V23.5991C30.1232 22.5483 29.2635 21.6885 28.2125 21.6885H28.0632C27.0124 21.6885 26.1527 22.5483 26.1527 23.5991V36.4543C26.1527 37.5051 27.0124 38.3648 28.0632 38.3648Z" fill="#E3E7FC"/>
<path d="M55.5025 30.2513H55.3532C54.3024 30.2513 53.4427 29.3915 53.4427 28.3408V36.4549C53.4427 37.5057 54.3024 38.3655 55.3532 38.3655H55.5025C56.5533 38.3655 57.413 37.5058 57.413 36.4549V28.3408C57.4132 29.3915 56.5533 30.2513 55.5025 30.2513Z" fill="#C8CEFC"/>
<path d="M28.2125 30.2513H28.0632C27.0124 30.2513 26.1527 29.3915 26.1527 28.3408V36.4549C26.1527 37.5057 27.0124 38.3655 28.0632 38.3655H28.2125C29.2633 38.3655 30.1232 37.5058 30.1232 36.4549V28.3408C30.123 29.3915 29.2633 30.2513 28.2125 30.2513Z" fill="#C8CEFC"/>
<path d="M48.9357 50.5309C48.7349 49.8777 49.1018 49.1855 49.7549 48.9847C52.2242 48.2259 54.4407 47.2762 55.8651 46.6129C56.3919 46.3678 56.797 45.9089 56.9763 45.354L58.9267 39.3173C59.3081 38.1371 58.6064 37.3384 58.4597 36.9255C58.1575 36.3129 58.4094 35.571 59.0221 35.2685C59.6351 34.9662 60.3766 35.2182 60.6792 35.8309C60.7921 36.1831 62.0189 37.7947 61.2814 40.0781L59.3311 46.1148C58.9409 47.3225 58.0581 48.3218 56.9095 48.8564C55.4144 49.5522 53.0857 50.5499 50.4819 51.35C49.8258 51.552 49.1356 51.1812 48.9357 50.5309Z" fill="#E3E7FC"/>
<path d="M43.1404 53.6289C41.9104 53.6289 40.9133 52.6319 40.9133 51.4018C40.9133 50.1718 41.9103 49.1746 43.1404 49.1746C44.5466 49.1746 46.218 48.9225 48.1082 48.4255C49.2985 48.1122 50.5157 48.8232 50.8285 50.0128C51.1414 51.2025 50.4308 52.4203 49.2412 52.7332C46.9813 53.3274 44.9287 53.6289 43.1404 53.6289Z" fill="#FF4155"/>
<path d="M45.3872 50.6895C45.3872 49.9678 45.6932 49.3187 46.1803 48.8604C45.0655 49.0681 44.047 49.1744 43.1404 49.1744C41.9104 49.1744 40.9133 50.1715 40.9133 51.4015C40.9133 52.6317 41.9103 53.6287 43.1404 53.6287C44.4345 53.6287 45.8689 53.4684 47.4182 53.156C46.2609 52.9306 45.3872 51.9126 45.3872 50.6895Z" fill="#E80054"/>
<path d="M69.3272 3.03906H58.0183C51.9913 3.03906 47.0599 7.97029 47.0599 13.9975C47.0599 20.0246 51.9911 24.9558 58.0183 24.9558H65.7246C66.0906 24.9558 66.3874 25.2526 66.3874 25.6187V29.4618C66.3874 29.8961 66.8589 30.1681 67.2341 29.9494C69.3502 28.7157 70.3979 26.9989 70.916 25.5545C71.0773 25.1048 71.4461 24.7585 71.9104 24.6453C76.7017 23.4763 80.2858 19.1354 80.2858 13.9973C80.2856 7.97045 75.3544 3.03906 69.3272 3.03906Z" fill="#ACD728"/>
<path d="M47.0597 13.9975C47.0597 20.0246 51.991 24.9558 58.018 24.9558H61.524C57.1332 20.6523 61.2108 15.3569 61.2108 15.3569L60.3954 12.6561C56.2033 7.73617 60.3954 3.04448 60.3954 3.04448L60.3874 3.03906H58.0181C51.991 3.03906 47.0597 7.97045 47.0597 13.9975Z" fill="#ACD728"/>
<path d="M55.9747 14.1299C55.9747 14.9438 55.315 15.6035 54.5011 15.6035C53.6872 15.6035 53.0273 14.9438 53.0273 14.1299C53.0273 13.3159 53.6872 12.6562 54.5011 12.6562C55.315 12.6562 55.9747 13.3159 55.9747 14.1299Z" fill="white"/>
<path d="M61.8691 14.1299C61.8691 14.9438 61.2094 15.6035 60.3955 15.6035C59.5816 15.6035 58.9219 14.9438 58.9219 14.1299C58.9219 13.3159 59.5816 12.6562 60.3955 12.6562C61.2094 12.6562 61.8691 13.3159 61.8691 14.1299Z" fill="white"/>
<path d="M67.7637 14.1299C67.7637 14.9438 67.104 15.6035 66.2901 15.6035C65.4762 15.6035 64.8165 14.9438 64.8165 14.1299C64.8165 13.3159 65.4762 12.6562 66.2901 12.6562C67.104 12.6562 67.7637 13.3159 67.7637 14.1299Z" fill="white"/>
<path d="M73.6583 14.1299C73.6583 14.9438 72.9986 15.6035 72.1847 15.6035C71.3708 15.6035 70.7111 14.9438 70.7111 14.1299C70.7111 13.3159 71.3708 12.6562 72.1847 12.6562C72.9986 12.6562 73.6583 13.3159 73.6583 14.1299Z" fill="white"/>
</g>
<defs>
<clipPath id="clip0_918_4459">
<rect width="84" height="84" fill="white"/>
</clipPath>
</defs>
</svg>
