<svg width="32" height="36" viewBox="0 0 32 36" fill="none" xmlns="http://www.w3.org/2000/svg">
<path d="M19.5202 0.400391H12.4802C5.68656 0.400391 0.160156 5.92679 0.160156 12.7204V18.0004C0.160156 22.7744 2.91016 27.0996 7.20016 29.1368V35.0196C7.20016 35.53 7.83816 35.794 8.19896 35.4332L13.3118 30.3248H19.5202C26.3138 30.3248 31.8402 24.7984 31.8402 18.0004V12.7204C31.8402 5.92679 26.3138 0.400391 19.5202 0.400391ZM24.1314 23.492L22.3494 25.2344C20.475 27.0692 15.5822 24.9748 11.2702 20.5704C6.95816 16.1616 5.06616 11.2248 6.84816 9.39003L8.63016 7.64763C9.28576 7.00523 10.399 7.01843 11.1338 7.67403L13.7034 10.3008C14.6186 11.238 14.2314 12.8088 13.0214 13.1696C12.1854 13.438 11.6178 14.3576 11.8862 15.1936C12.3306 17.1472 14.8078 19.5892 16.6558 20.0732C17.4874 20.2668 18.4202 19.8136 18.7106 18.982C19.0934 17.7808 20.673 17.4244 21.5926 18.366L24.1578 20.9884C24.8002 21.6436 24.7914 22.7572 24.1314 23.492ZM17.6018 8.76039C17.4258 8.76039 17.2498 8.76919 17.0782 8.79119C16.757 8.82639 16.4666 8.59319 16.4314 8.27199C16.3962 7.95079 16.6294 7.66039 16.9506 7.62519C17.1662 7.59879 17.3862 7.58999 17.6018 7.58999C20.8358 7.58999 23.467 10.2212 23.467 13.4552C23.467 13.6708 23.4582 13.8908 23.4318 14.1064C23.3966 14.4232 23.1018 14.6608 22.785 14.6256C22.4682 14.5904 22.2306 14.2956 22.2658 13.9788C22.2834 13.8072 22.2966 13.6312 22.2966 13.4552C22.2966 10.868 20.189 8.76039 17.6018 8.76039ZM21.1218 13.4552C21.1218 13.7764 20.8534 14.0404 20.5322 14.0404C20.2154 14.0404 19.947 13.7764 19.947 13.4552C19.947 12.1616 18.8954 11.11 17.6018 11.11C17.2762 11.11 17.0122 10.846 17.0122 10.5204C17.0122 10.1992 17.2762 9.93519 17.6018 9.93519C19.5422 9.93519 21.1218 11.5148 21.1218 13.4552ZM25.5966 15.3516C25.5218 15.6684 25.183 15.8664 24.8706 15.7828C24.567 15.6992 24.3822 15.3824 24.4526 15.0788C24.5802 14.5508 24.6418 14.0052 24.6418 13.4552C24.6418 9.57439 21.4826 6.41519 17.6018 6.41519C17.4214 6.41519 17.2366 6.41959 17.0562 6.43719C16.735 6.45919 16.4534 6.21719 16.427 5.89599C16.405 5.57039 16.647 5.28879 16.9682 5.26679C17.1794 5.24919 17.3906 5.24039 17.6018 5.24039C22.1294 5.24039 25.8166 8.92759 25.8166 13.4552C25.8166 14.0932 25.7418 14.7312 25.5966 15.3516Z" fill="#665CAC"/>
</svg>
